<svg width="179" height="180" viewBox="0 0 179 180" fill="none" xmlns="http://www.w3.org/2000/svg">
<path d="M176.849 104.189C177.939 104.367 178.68 105.396 178.478 106.482C174.794 126.258 164.585 144.252 149.455 157.566C133.823 171.321 113.905 179.231 93.0956 179.947C72.2859 180.663 51.8717 174.141 35.3313 161.494C18.7909 148.846 7.14766 130.854 2.38548 110.584C-2.37671 90.3138 0.0368103 69.0196 9.2148 50.3295C18.3928 31.6394 33.7674 16.7099 52.7189 8.08468C71.6704 -0.5405 93.0264 -2.32765 113.148 3.02772C132.624 8.21146 149.778 19.7768 161.882 35.8437C162.547 36.7259 162.341 37.9771 161.444 38.622L138.58 55.0643C137.684 55.7092 136.437 55.5024 135.761 54.6285C128.009 44.5988 117.161 37.3778 104.876 34.1079C91.9449 30.6663 78.2206 31.8148 66.0416 37.3577C53.8625 42.9006 43.9822 52.495 38.084 64.506C32.1858 76.5171 30.6348 90.2016 33.6952 103.228C36.7556 116.254 44.238 127.817 54.8676 135.945C65.4972 144.073 78.6162 148.264 91.9894 147.804C105.363 147.343 118.162 142.26 128.208 133.421C137.752 125.022 144.249 113.726 146.724 101.294C146.94 100.211 147.965 99.4702 149.055 99.6483L176.849 104.189Z" fill="#B6E5D4"/>
</svg>
