<svg width="217" height="217" viewBox="0 0 217 217" fill="none" xmlns="http://www.w3.org/2000/svg">
<g filter="url(#filter0_d_1912_19405)">
<rect x="48.4614" y="47" width="120" height="120" rx="60" fill="#A84D01"/>
<path d="M136.795 122.834H129.295V115.334C129.295 113.967 128.161 112.834 126.795 112.834C125.428 112.834 124.295 113.967 124.295 115.334V122.834H116.795C115.428 122.834 114.295 123.967 114.295 125.334C114.295 126.701 115.428 127.834 116.795 127.834H124.295V135.334C124.295 136.701 125.428 137.834 126.795 137.834C128.161 137.834 129.295 136.701 129.295 135.334V127.834H136.795C138.161 127.834 139.295 126.701 139.295 125.334C139.295 123.967 138.161 122.834 136.795 122.834Z" fill="#F9D1B1"/>
<path opacity="0.4" d="M141.795 95.3993V80.266C141.795 75.566 139.661 73.666 134.361 73.666H120.895C115.595 73.666 113.461 75.566 113.461 80.266V95.366C113.461 100.099 115.595 101.966 120.895 101.966H134.361C139.661 101.999 141.795 100.099 141.795 95.3993Z" fill="#F9D1B1"/>
<path d="M103.461 95.3993V80.266C103.461 75.566 101.328 73.666 96.0279 73.666H82.5613C77.2613 73.666 75.1279 75.566 75.1279 80.266V95.366C75.1279 100.099 77.2613 101.966 82.5613 101.966H96.0279C101.328 101.999 103.461 100.099 103.461 95.3993Z" fill="#F9D1B1"/>
<path opacity="0.4" d="M103.461 132.9V119.433C103.461 114.133 101.328 112 96.0279 112H82.5613C77.2613 112 75.1279 114.133 75.1279 119.433V132.9C75.1279 138.2 77.2613 140.333 82.5613 140.333H96.0279C101.328 140.333 103.461 138.2 103.461 132.9Z" fill="#F9D1B1"/>
</g>
<defs>
<filter id="filter0_d_1912_19405" x="0.384505" y="0.846156" width="216.154" height="216.154" filterUnits="userSpaceOnUse" color-interpolation-filters="sRGB">
<feFlood flood-opacity="0" result="BackgroundImageFix"/>
<feColorMatrix in="SourceAlpha" type="matrix" values="0 0 0 0 0 0 0 0 0 0 0 0 0 0 0 0 0 0 127 0" result="hardAlpha"/>
<feMorphology radius="9.61538" operator="dilate" in="SourceAlpha" result="effect1_dropShadow_1912_19405"/>
<feOffset dy="1.92308"/>
<feGaussianBlur stdDeviation="19.2308"/>
<feColorMatrix type="matrix" values="0 0 0 0 0.945098 0 0 0 0 0.537255 0 0 0 0 0.207843 0 0 0 0.5 0"/>
<feBlend mode="normal" in2="BackgroundImageFix" result="effect1_dropShadow_1912_19405"/>
<feBlend mode="normal" in="SourceGraphic" in2="effect1_dropShadow_1912_19405" result="shape"/>
</filter>
</defs>
</svg>
