<svg width="80" height="70" viewBox="0 0 80 70" fill="none" xmlns="http://www.w3.org/2000/svg">
<g clip-path="url(#clip0_568_15303)">
<path d="M12.2619 54.7434C12.7224 53.7478 13.0894 52.7111 13.3583 51.6469C9.27985 49.169 5.90712 45.6746 3.5668 41.5021C1.22649 37.3296 -0.00211242 32.6204 2.72645e-06 27.8306C2.72645e-06 12.4603 12.3976 0 27.6905 0C42.9833 0 55.3821 12.4603 55.3821 27.8306C55.3821 43.2008 42.9845 55.6623 27.6905 55.6623C25.6458 55.6629 23.6072 55.4366 21.6119 54.9875C19.84 57.1985 17.5625 58.9462 14.9735 60.0816C12.3845 61.217 9.56072 61.7066 6.74286 61.5084C9.12265 59.7593 11.0217 57.4316 12.2619 54.7434Z" fill="#109D6A"/>
<path d="M4.93354 30.5524C4.93354 16.9793 15.8859 5.97629 29.3859 5.97629C33.133 5.97256 36.8307 6.8361 40.1923 8.49997C43.5539 10.1639 46.4891 12.5834 48.7704 15.571C46.6272 11.8235 43.538 8.7106 39.8149 6.54676C36.0918 4.38292 31.8665 3.24472 27.5657 3.24707C14.0609 3.24707 3.1133 14.2549 3.1133 27.8232C3.10634 33.2425 4.88922 38.5109 8.18235 42.8021C6.04736 39.0767 4.92681 34.8516 4.93354 30.5524Z" fill="#B6E5D4"/>
<path d="M55.368 26.9533C55.368 26.9353 55.368 26.9186 55.368 26.9006C55.2106 22.3163 53.9256 17.8425 51.6281 13.8791C49.3305 9.91562 46.0918 6.58593 42.2014 4.1875C45.0481 8.65441 46.5569 13.8498 46.5478 19.1545C46.5478 34.4996 34.1668 46.9408 18.9014 46.9408C13.795 46.9474 8.78751 45.5256 4.43945 42.8344C6.70031 46.3803 9.72986 49.3663 13.3014 51.5689L13.2811 51.5988L13.3573 51.6466C13.0888 52.7108 12.7221 53.7475 12.2621 54.7432C11.0225 57.4311 9.12433 59.7588 6.74541 61.5082C9.56311 61.7065 12.3867 61.2171 14.9756 60.0816C17.5644 58.9462 19.8417 57.1984 21.6133 54.9873L21.6549 54.9957C21.6555 54.9901 21.6555 54.9845 21.6549 54.9789C25.5285 55.8532 29.5439 55.8796 33.4286 55.0561C37.3132 54.2327 40.976 52.5787 44.1683 50.2065C47.3606 47.8343 50.0076 44.7995 51.9296 41.3081C53.8516 37.8167 55.0036 33.9505 55.3073 29.9721C55.3808 28.9676 55.4011 27.9599 55.368 26.9533Z" fill="#12AC75"/>
<path d="M67.7374 63.1919C67.277 62.1962 66.9099 61.1596 66.641 60.0954C70.7195 57.6175 74.0922 54.1231 76.4325 49.9506C78.7729 45.7781 80.0014 41.0689 79.9993 36.279C79.9993 20.9088 67.6017 8.44727 52.3089 8.44727C37.016 8.44727 24.6172 20.9088 24.6172 36.279C24.6172 51.6493 37.0148 64.1096 52.3089 64.1096C54.3536 64.1107 56.3922 63.8844 58.3874 63.4348C60.1592 65.646 62.4366 67.3939 65.0257 68.5293C67.6147 69.6647 70.4386 70.1541 73.2565 69.9557C70.8765 68.2073 68.9774 65.8799 67.7374 63.1919Z" fill="#12AC75"/>
<path d="M67.7376 63.1915C67.2796 62.201 66.9137 61.17 66.6447 60.1117C70.7051 57.6461 74.066 54.1721 76.4044 50.0238C78.7428 45.8754 79.98 41.1921 79.9972 36.4242C80.0142 31.6564 78.8106 26.9643 76.5021 22.7991C74.1935 18.6338 70.8575 15.1356 66.815 12.6406C69.6635 17.1069 71.1735 22.3025 71.165 27.6076C71.1674 42.9539 58.7888 55.3975 43.5209 55.3975C38.4139 55.406 33.4054 53.9849 29.0566 51.2935C32.1183 56.0967 36.5746 59.8382 41.8222 62.0113C47.0698 64.1844 52.8552 64.6841 58.3947 63.4428C60.1667 65.6514 62.4434 67.3969 65.0311 68.5308C67.6187 69.6648 70.4406 70.1535 73.2566 69.9553C70.8766 68.207 68.9776 65.8796 67.7376 63.1915Z" fill="#109D6A"/>
<path d="M29.5507 39.0055C29.5507 25.4324 40.5031 14.4294 54.0043 14.4294C57.7512 14.4259 61.4486 15.2895 64.81 16.9534C68.1714 18.6172 71.1064 21.0367 73.3876 24.0241C71.2445 20.2768 68.1555 17.164 64.4326 15.0002C60.7097 12.8364 56.4847 11.6981 52.1841 11.7002C38.6781 11.7002 27.7305 22.708 27.7305 36.2763C27.7227 41.6969 29.5057 46.9667 32.7995 51.2589C30.6639 47.5324 29.5434 43.3059 29.5507 39.0055Z" fill="#B6E5D4"/>
<path d="M42.1176 39.532C43.5535 39.532 44.7176 38.362 44.7176 36.9188C44.7176 35.4756 43.5535 34.3057 42.1176 34.3057C40.6816 34.3057 39.5176 35.4756 39.5176 36.9188C39.5176 38.362 40.6816 39.532 42.1176 39.532Z" fill="white"/>
<path d="M52.309 39.532C53.7449 39.532 54.909 38.362 54.909 36.9188C54.909 35.4756 53.7449 34.3057 52.309 34.3057C50.873 34.3057 49.709 35.4756 49.709 36.9188C49.709 38.362 50.873 39.532 52.309 39.532Z" fill="white"/>
<path d="M62.2504 39.532C63.6863 39.532 64.8504 38.362 64.8504 36.9188C64.8504 35.4756 63.6863 34.3057 62.2504 34.3057C60.8144 34.3057 59.6504 35.4756 59.6504 36.9188C59.6504 38.362 60.8144 39.532 62.2504 39.532Z" fill="white"/>
</g>
<defs>
<clipPath id="clip0_568_15303">
<rect width="80" height="70" fill="white"/>
</clipPath>
</defs>
</svg>
