<svg width="218" height="217" viewBox="0 0 218 217" fill="none" xmlns="http://www.w3.org/2000/svg">
<g filter="url(#filter0_d_1912_19391)">
<rect x="49" y="47" width="120" height="120" rx="60" fill="#188C43"/>
<path opacity="0.4" d="M99.0001 73.666C90.2667 73.666 83.1667 80.766 83.1667 89.4993C83.1667 98.066 89.8667 104.999 98.6001 105.299C98.8667 105.266 99.1334 105.266 99.3334 105.299C99.4001 105.299 99.4334 105.299 99.5001 105.299C99.5334 105.299 99.5334 105.299 99.5667 105.299C108.1 104.999 114.8 98.066 114.833 89.4993C114.833 80.766 107.733 73.666 99.0001 73.666Z" fill="#BAEDCD"/>
<path d="M115.934 114.168C106.634 107.968 91.4669 107.968 82.1002 114.168C77.8669 117.001 75.5336 120.834 75.5336 124.934C75.5336 129.034 77.8669 132.834 82.0669 135.634C86.7336 138.768 92.8669 140.334 99.0002 140.334C105.134 140.334 111.267 138.768 115.934 135.634C120.134 132.801 122.467 129.001 122.467 124.868C122.434 120.768 120.134 116.968 115.934 114.168Z" fill="#BAEDCD"/>
<path opacity="0.4" d="M135.634 91.4663C136.167 97.933 131.567 103.6 125.2 104.366C125.167 104.366 125.167 104.366 125.134 104.366H125.034C124.834 104.366 124.634 104.366 124.467 104.433C121.234 104.6 118.267 103.566 116.034 101.666C119.467 98.5997 121.434 93.9997 121.034 88.9997C120.8 86.2997 119.867 83.833 118.467 81.733C119.734 81.0997 121.2 80.6997 122.7 80.5663C129.234 79.9997 135.067 84.8663 135.634 91.4663Z" fill="#BAEDCD"/>
<path d="M142.3 122.301C142.034 125.534 139.967 128.334 136.5 130.234C133.167 132.067 128.967 132.934 124.8 132.834C127.2 130.667 128.6 127.967 128.867 125.101C129.2 120.967 127.234 117.001 123.3 113.834C121.067 112.067 118.467 110.667 115.634 109.634C123 107.501 132.267 108.934 137.967 113.534C141.034 116.001 142.6 119.101 142.3 122.301Z" fill="#BAEDCD"/>
</g>
<defs>
<filter id="filter0_d_1912_19391" x="0.923079" y="0.846156" width="216.154" height="216.154" filterUnits="userSpaceOnUse" color-interpolation-filters="sRGB">
<feFlood flood-opacity="0" result="BackgroundImageFix"/>
<feColorMatrix in="SourceAlpha" type="matrix" values="0 0 0 0 0 0 0 0 0 0 0 0 0 0 0 0 0 0 127 0" result="hardAlpha"/>
<feMorphology radius="9.61538" operator="dilate" in="SourceAlpha" result="effect1_dropShadow_1912_19391"/>
<feOffset dy="1.92308"/>
<feGaussianBlur stdDeviation="19.2308"/>
<feColorMatrix type="matrix" values="0 0 0 0 0.305882 0 0 0 0 0.819608 0 0 0 0 0.494118 0 0 0 0.5 0"/>
<feBlend mode="normal" in2="BackgroundImageFix" result="effect1_dropShadow_1912_19391"/>
<feBlend mode="normal" in="SourceGraphic" in2="effect1_dropShadow_1912_19391" result="shape"/>
</filter>
</defs>
</svg>
