<svg width="48" height="48" viewBox="0 0 48 48" fill="none" xmlns="http://www.w3.org/2000/svg">
<path opacity="0.4" d="M39.1999 25.2098H43.1322V22.4066C43.1322 18.3769 39.8423 15.0869 35.8125 15.0869H13.4642C9.43449 15.0869 6.14453 18.3769 6.14453 22.4066V30.9137C7.48777 29.843 9.18142 29.2006 11.0113 29.2006C15.3136 29.2006 18.7982 32.6852 18.7982 36.9874C18.7982 38.4474 18.3894 39.8296 17.6691 40.9976C17.2603 41.6985 16.7347 42.3214 16.1312 42.8275H35.8125C39.8423 42.8275 43.1322 39.5376 43.1322 35.5079V33.1913H39.4334C37.331 33.1913 35.4037 31.6534 35.2285 29.551C35.1117 28.3245 35.5789 27.176 36.3966 26.3778C37.1169 25.6381 38.1097 25.2098 39.1999 25.2098Z" fill="#D32F2F"/>
<path d="M30.1865 7.68958V15.0871H13.4642C9.43449 15.0871 6.14453 18.377 6.14453 22.4067V15.2623C6.14453 12.9457 7.56563 10.8821 9.72649 10.0645L25.1835 4.22438C27.5974 3.32889 30.1865 5.10045 30.1865 7.68958Z" fill="#D32F2F"/>
<path d="M45.1978 27.1955V31.2059C45.1978 32.2766 44.3413 33.1525 43.2511 33.1914H39.4356C37.3331 33.1914 35.4059 31.6535 35.2307 29.5511C35.1138 28.3247 35.5811 27.1761 36.3987 26.3779C37.119 25.6382 38.1118 25.21 39.202 25.21H43.2511C44.3413 25.2489 45.1978 26.1248 45.1978 27.1955Z" fill="#D32F2F"/>
<path d="M28.5324 24.8205H14.9054C14.1072 24.8205 13.4453 24.1586 13.4453 23.3604C13.4453 22.5623 14.1072 21.9004 14.9054 21.9004H28.5324C29.3306 21.9004 29.9924 22.5623 29.9924 23.3604C29.9924 24.1586 29.3306 24.8205 28.5324 24.8205Z" fill="#D32F2F"/>
<path d="M16.5179 31.4817C15.2239 30.1878 13.5721 29.4445 11.8652 29.2517C9.59388 28.9902 7.24 29.7473 5.50556 31.4817C4.47316 32.5141 3.78489 33.7805 3.46829 35.1158C2.82132 37.6623 3.49582 40.4842 5.50556 42.494C6.89587 43.8843 8.6716 44.6414 10.5024 44.7377C11.287 44.8065 12.0992 44.7377 12.8838 44.5312C14.2191 44.2146 15.4855 43.5264 16.5179 42.494C19.56 39.4518 19.56 34.5239 16.5179 31.4817ZM9.58009 34.0696C9.58009 33.2712 10.2408 32.6105 11.0392 32.6105C11.8514 32.6243 12.4983 33.2712 12.5121 34.0834L12.4984 35.5287L13.8887 35.5149C14.7009 35.5287 15.3478 36.1757 15.3616 36.9878C15.3478 37.8 14.7009 38.447 13.8887 38.4607L12.4984 38.447L12.5121 39.8923C12.4984 40.7045 11.8514 41.3515 11.0392 41.3652C10.64 41.3515 10.2822 41.1862 10.0206 40.9247C9.7591 40.6632 9.59386 40.3053 9.5801 39.9061L9.58014 38.447L8.06596 38.4469C7.653 38.4469 7.29505 38.2818 7.03351 38.0203C6.77197 37.7587 6.60683 37.4008 6.60683 36.9878C6.60683 36.1894 7.26756 35.5287 8.06596 35.5287L9.58013 35.5287L9.58009 34.0696Z" fill="#D32F2F"/>
</svg>
