<svg width="34" height="36" viewBox="0 0 34 36" fill="none" xmlns="http://www.w3.org/2000/svg">
<path d="M16.9988 15.2931C16.3688 15.2931 15.7738 15.1414 15.2722 14.8731C15.0972 14.7797 14.9222 14.9781 15.0272 15.1414C15.4472 15.7831 16.1705 16.2147 16.9988 16.2147C17.8272 16.2147 18.5505 15.7831 18.9705 15.1414C19.0755 14.9781 18.8888 14.7914 18.7255 14.8731C18.2238 15.1414 17.6405 15.2931 16.9988 15.2931ZM12.5422 11.3264C12.7172 10.6031 13.3705 10.0664 14.1522 10.0664C14.9572 10.0664 15.6338 10.6381 15.7855 11.4081C15.7944 11.4478 15.7941 11.4891 15.7846 11.5287C15.7752 11.5684 15.7568 11.6053 15.731 11.6368C15.7051 11.6683 15.6724 11.6935 15.6354 11.7104C15.5983 11.7274 15.5579 11.7357 15.5172 11.7347H15.4238C15.4472 11.6414 15.4588 11.5481 15.4588 11.4547C15.4588 10.8714 14.9922 10.3931 14.3972 10.3931C14.2339 10.3934 14.0729 10.4312 13.9265 10.5037C13.7802 10.5761 13.6525 10.6813 13.5532 10.8109C13.454 10.9406 13.3859 11.0914 13.3542 11.2515C13.3226 11.4117 13.3281 11.5771 13.3705 11.7347H12.8572C12.6472 11.7347 12.4955 11.5364 12.5422 11.3264Z" fill="#12AC75"/>
<path d="M15.0048 11.4431C15.0048 11.1047 14.7365 10.8364 14.3981 10.8364C14.3164 10.8351 14.2353 10.851 14.1601 10.8831C14.1886 10.9082 14.2087 10.9413 14.2178 10.9781C14.227 11.015 14.2247 11.0537 14.2112 11.0892C14.1978 11.1246 14.1739 11.1552 14.1427 11.1767C14.1114 11.1983 14.0744 11.2098 14.0365 11.2097C14.0054 11.2097 13.9748 11.2019 13.9475 11.187C13.9202 11.1721 13.897 11.1507 13.8801 11.1246C13.8255 11.2142 13.7951 11.3165 13.7918 11.4214C13.7885 11.5263 13.8125 11.6302 13.8615 11.7231H14.9348C14.9814 11.6414 15.0048 11.5481 15.0048 11.4431ZM21.4681 11.3264C21.2931 10.6031 20.6398 10.0664 19.8581 10.0664C19.0415 10.0664 18.3764 10.6381 18.2248 11.4081C18.1898 11.5831 18.3181 11.7347 18.4931 11.7347H18.5748C18.5596 11.6599 18.5518 11.5837 18.5515 11.5072C18.5499 11.3674 18.5763 11.2286 18.6291 11.0991C18.6819 10.9696 18.76 10.8519 18.8589 10.753C18.9578 10.6541 19.0755 10.576 19.205 10.5232C19.3345 10.4704 19.4733 10.444 19.6131 10.4456C19.7718 10.446 19.9283 10.4819 20.0713 10.5506C20.2143 10.6193 20.3401 10.719 20.4397 10.8426C20.5392 10.9661 20.6098 11.1104 20.6465 11.2647C20.6831 11.4191 20.6848 11.5796 20.6514 11.7347H21.1531C21.3631 11.7347 21.5148 11.5364 21.4681 11.3264Z" fill="#12AC75"/>
<path d="M19.3905 10.878C19.5057 10.8302 19.6329 10.8194 19.7545 10.847C19.8761 10.8746 19.9861 10.9393 20.0694 11.0322C20.1526 11.125 20.205 11.2414 20.2192 11.3653C20.2335 11.4892 20.2089 11.6145 20.1488 11.7238H19.0755C19.0246 11.6275 19.0005 11.5193 19.0059 11.4105C19.0112 11.3017 19.0457 11.1963 19.1058 11.1055C19.1181 11.1306 19.1359 11.1526 19.1578 11.1699C19.1798 11.1873 19.2053 11.1994 19.2326 11.2056C19.2599 11.2117 19.2882 11.2116 19.3155 11.2053C19.3427 11.199 19.3682 11.1867 19.39 11.1692C19.4119 11.1518 19.4295 11.1297 19.4417 11.1045C19.4538 11.0793 19.4601 11.0517 19.4602 11.0237C19.4602 10.9958 19.454 10.9681 19.4419 10.9429C19.4299 10.9177 19.4123 10.8955 19.3905 10.878Z" fill="#12AC75"/>
<path d="M11.8607 2.33868C12.2141 1.77462 12.7053 1.30984 13.2881 0.988156C13.8708 0.666473 14.5259 0.49848 15.1915 0.50001C15.755 0.50001 16.2683 0.616677 16.7338 0.810344L16.7548 0.81851C16.832 0.852583 16.9155 0.870182 16.9998 0.870182C17.0842 0.870182 17.1677 0.852583 17.2448 0.81851L17.2518 0.816177C17.7404 0.608489 18.2656 0.500976 18.7965 0.50001C20.2315 0.50001 21.4682 1.27001 22.167 2.39118L22.174 2.40284C22.3805 2.74351 22.7317 3.02118 23.1552 3.16118L23.168 3.16584C23.6743 3.34084 24.1538 3.62084 24.5645 4.00001H32.5865C32.9948 4.00001 33.3098 4.32668 33.3098 4.72334V27.7533C33.313 27.8487 33.2969 27.9438 33.2625 28.0329C33.2281 28.1219 33.1762 28.2031 33.1098 28.2717C33.0434 28.3403 32.9639 28.3948 32.876 28.432C32.7881 28.4692 32.6936 28.4884 32.5982 28.4883H30.8785C30.9516 29.0662 30.9882 29.6535 30.9882 30.25V33.1667C30.9882 34.4523 29.9405 35.5 28.6548 35.5H4.1665C3.85708 35.5 3.56034 35.3771 3.34155 35.1583C3.12275 34.9395 2.99984 34.6428 2.99984 34.3333V30.25C2.99984 29.6527 3.03639 29.0655 3.1095 28.4883H1.38984C0.99317 28.4883 0.666504 28.1617 0.666504 27.765V4.72334C0.666504 4.32668 0.99317 4.00001 1.38984 4.00001H9.42584C9.83184 3.62668 10.3067 3.34318 10.8212 3.16584C11.2412 3.02001 11.6145 2.72601 11.8595 2.33868M18.8735 18.567C19.7176 18.4077 20.4905 17.9877 21.0834 17.3661C21.6763 16.7445 22.0594 15.9527 22.1787 15.102L22.2697 13.611C22.2784 13.4712 22.3373 13.3391 22.4354 13.2391C22.5335 13.1391 22.6644 13.0777 22.804 13.0662C22.9448 13.0545 23.0801 13.0222 23.21 12.9693C23.2701 12.9326 23.3333 12.9014 23.399 12.876C23.6005 12.7554 23.7678 12.5853 23.8852 12.382C24.0026 12.1786 24.0662 11.9487 24.0699 11.7139C24.0736 11.4791 24.0174 11.2473 23.9066 11.0403C23.7957 10.8333 23.6338 10.658 23.4363 10.531C23.3441 10.4986 23.2563 10.4547 23.175 10.4003C23.1096 10.3749 23.0421 10.3553 22.9732 10.342C22.9178 10.3307 22.8643 10.3115 22.8145 10.2848C22.8107 10.3013 22.8088 10.3181 22.8087 10.335V11.63C22.8087 12.8667 21.8053 13.8583 20.5803 13.8583H19.752C19.4289 13.8591 19.1096 13.7892 18.8164 13.6536C18.5232 13.5179 18.2631 13.3198 18.0545 13.0732L18.142 13.3567C18.2703 13.765 17.967 14.185 17.5353 14.185H16.6253C16.1937 14.185 15.8903 13.765 16.0187 13.3567L16.0933 13.1152C15.685 13.5713 15.09 13.8583 14.432 13.8583H13.6037C13.0127 13.8583 12.4459 13.6236 12.028 13.2057C11.6101 12.7878 11.3753 12.221 11.3753 11.63V10.3467C11.3739 10.3155 11.3651 10.2851 11.3497 10.2579C11.3343 10.2307 11.3127 10.2076 11.2867 10.1903C11.2023 10.26 11.1 10.3044 10.9915 10.3187C10.9263 10.3265 10.8619 10.3397 10.799 10.3583C10.6833 10.4384 10.554 10.4969 10.4175 10.531C10.2208 10.6592 10.0601 10.8355 9.95059 11.0432C9.8411 11.2509 9.78645 11.4831 9.79182 11.7179C9.7972 11.9526 9.86242 12.1821 9.9813 12.3845C10.1002 12.587 10.2688 12.7558 10.4712 12.8748C10.5762 12.906 10.6734 12.9487 10.7628 13.0032C10.8943 13.0444 11.0296 13.065 11.1688 13.065C11.3173 13.0647 11.4603 13.121 11.5687 13.2225C11.677 13.3239 11.7427 13.4629 11.7522 13.611L11.8525 15.1382C11.9763 15.9817 12.3602 16.7656 12.9509 17.3805C13.5415 17.9954 14.3093 18.4106 15.1472 18.5682H15.1787V18.5728C15.4136 18.6156 15.6519 18.6374 15.8938 18.6382H18.1292C18.3625 18.6382 18.5919 18.618 18.8175 18.5775V18.567H18.8735ZM22.5263 9.23834L22.5462 8.74018C22.5557 8.43635 22.445 8.14102 22.2382 7.91825C22.0313 7.69549 21.745 7.56323 21.4413 7.55018H19.7928C19.1206 7.55152 18.4623 7.35926 17.8964 6.99637C17.3306 6.63349 16.8812 6.11533 16.602 5.50384C16.5857 5.46086 16.5571 5.42365 16.5197 5.39688C16.4824 5.3701 16.4379 5.35496 16.392 5.35334H14.8637C13.9591 5.35423 13.0914 5.71205 12.4491 6.34906C11.8069 6.98607 11.442 7.8508 11.4337 8.75534L11.4663 9.24534C11.4902 9.24113 11.5144 9.23879 11.5387 9.23834H12.7567C12.6921 9.1993 12.6431 9.13912 12.6178 9.06801C12.5954 9.00522 12.5935 8.93694 12.6124 8.873C12.6313 8.80905 12.6699 8.75274 12.7228 8.71218C13.3676 8.25982 14.1585 8.06544 14.9395 8.16734C15.0016 8.175 15.0601 8.20073 15.1078 8.24134C15.1554 8.28195 15.1901 8.33565 15.2075 8.39579C15.2249 8.45592 15.2242 8.51984 15.2056 8.57961C15.187 8.63938 15.1513 8.69237 15.1028 8.73201C15.0702 8.75776 15.0328 8.7768 14.9927 8.78801C14.9527 8.79922 14.9108 8.8024 14.8695 8.79734C14.2393 8.71798 13.6021 8.87511 13.081 9.23834H15.5998C15.9498 9.23834 16.2765 9.40168 16.4982 9.67001C16.6382 9.84501 16.8482 9.95001 17.0932 9.95001C17.3382 9.95001 17.5482 9.84501 17.6882 9.67001C17.9098 9.40168 18.2365 9.23834 18.5865 9.23834H20.9338L20.9023 9.21618C20.3864 8.87544 19.7663 8.72869 19.1523 8.80201C19.0698 8.80853 18.988 8.78279 18.9241 8.73022C18.8602 8.67764 18.8191 8.60232 18.8096 8.52011C18.8001 8.4379 18.8228 8.35519 18.873 8.2894C18.9233 8.22361 18.997 8.17986 19.0788 8.16734C19.8597 8.06772 20.6498 8.2619 21.2955 8.71218C21.3363 8.74431 21.3686 8.7859 21.3897 8.83335C21.4108 8.8808 21.4201 8.93267 21.4166 8.98448C21.4132 9.03629 21.3972 9.08649 21.37 9.13072C21.3428 9.17495 21.3052 9.21189 21.2605 9.23834H22.5263ZM17.5237 11.3617V10.93C17.5195 10.8179 17.4723 10.7118 17.3919 10.6336C17.3115 10.5554 17.2041 10.5111 17.092 10.51C16.8587 10.51 16.672 10.685 16.6603 10.9183V11.301C16.8353 10.9195 17.4012 10.9393 17.5237 11.3617ZM15.272 19.764C15.3919 20.1262 15.6227 20.4415 15.9318 20.6651C16.2409 20.8887 16.6126 21.0093 16.9941 21.0098C17.3756 21.0103 17.7476 20.8907 18.0573 20.6679C18.367 20.4452 18.5987 20.1305 18.7195 19.7687C18.5251 19.792 18.3294 19.8041 18.1327 19.8048H15.8973C15.6873 19.8048 15.4785 19.7912 15.2708 19.764M21.5265 19.4327L22.5065 21.5397C22.6115 21.7415 22.4482 21.9748 22.2008 21.9748H20.9677C20.6853 21.9748 20.5558 22.284 20.7448 22.4532L20.984 22.6667H22.6442C23.1692 22.6667 23.5892 23.0867 23.5892 23.6117V23.6513H23.5962V25.7H23.6125C24.5762 25.7 25.3625 26.4863 25.3625 27.45V33.1667H28.6525V30.25C28.6525 25.525 25.8525 21.4603 21.8193 19.624C21.7127 19.5753 21.6139 19.5108 21.5265 19.4327ZM23.5892 26.8678V28.136C23.596 28.2164 23.586 28.2974 23.5598 28.3738C23.5337 28.4501 23.4921 28.5203 23.4374 28.5797C23.3828 28.6391 23.3165 28.6866 23.2426 28.719C23.1687 28.7515 23.0889 28.7683 23.0082 28.7683H20.0332C19.9948 28.7761 19.9557 28.78 19.9165 28.78C19.7333 28.78 19.605 28.9223 19.6015 29.0623V29.0693C19.6006 29.1195 19.6128 29.1691 19.6367 29.2133C19.6606 29.2574 19.6955 29.2946 19.738 29.3213C19.8183 29.375 19.8841 29.4477 19.9293 29.533C19.9746 29.6182 19.998 29.7134 19.9974 29.81C19.9969 29.9066 19.9723 30.0015 19.926 30.0862C19.8797 30.1709 19.8131 30.2429 19.7322 30.2955C19.6932 30.3213 19.661 30.356 19.6383 30.3968C19.6155 30.4376 19.6029 30.4833 19.6015 30.53C19.6015 30.635 19.6505 30.7132 19.7217 30.7575C19.8052 30.8092 19.8743 30.8811 19.9226 30.9666C19.9709 31.0521 19.9968 31.1484 19.998 31.2466C19.9992 31.3448 19.9755 31.4417 19.9293 31.5284C19.883 31.615 19.8156 31.6885 19.7333 31.7422C19.6942 31.7678 19.6617 31.8025 19.6388 31.8433C19.6158 31.8841 19.603 31.9299 19.6015 31.9767C19.6015 32.0817 19.6505 32.1598 19.7217 32.2042C19.8024 32.2541 19.8697 32.3231 19.9177 32.4049C19.9658 32.4868 19.9931 32.5792 19.9974 32.674C20.0016 32.7689 19.9827 32.8633 19.9421 32.9492C19.9016 33.035 19.8408 33.1097 19.7648 33.1667H24.1982V27.45C24.1977 27.3715 24.1816 27.294 24.1507 27.2218C24.1197 27.1497 24.0746 27.0846 24.0181 27.0302C23.9615 26.9758 23.8946 26.9333 23.8214 26.9052C23.7481 26.8771 23.6699 26.864 23.5915 26.8667M22.4318 25.6988V23.6688H12.4498C12.1806 23.6688 11.9225 23.7758 11.7321 23.9661C11.5418 24.1565 11.4348 24.4146 11.4348 24.6838C11.4348 24.953 11.5418 25.2112 11.7321 25.4016C11.9225 25.5919 12.1806 25.6988 12.4498 25.6988H22.4318ZM19.395 20.9622C19.109 21.35 18.7333 21.6627 18.3 21.8735C17.8667 22.0844 17.3888 22.1871 16.9071 22.1729C16.4255 22.1587 15.9544 22.0279 15.5344 21.7919C15.1143 21.5558 14.7576 21.2215 14.495 20.8175V22.6667H19.395V20.9622ZM13.144 22.4532C13.3318 22.2828 13.2023 21.9748 12.9212 21.9748H11.6868C11.4407 21.9748 11.2762 21.7403 11.3812 21.5385L12.4977 19.3988C12.4007 19.4943 12.2878 19.5721 12.164 19.6287C10.1262 20.5568 8.39852 22.0519 7.18728 23.9352C5.97604 25.8186 5.33239 28.0108 5.33317 30.25V33.1667H8.62317V27.45C8.62317 26.9367 8.87284 26.4968 9.18667 26.1982C9.49 25.9112 9.9135 25.6988 10.3615 25.7V24.86C10.3615 23.6467 11.3415 22.655 12.5665 22.6667H12.9048L13.144 22.4532ZM10.3615 26.8667C10.2198 26.8788 10.0875 26.9423 9.98934 27.0452C9.93086 27.096 9.8831 27.158 9.84885 27.2275C9.8146 27.297 9.79453 27.3727 9.78984 27.45V33.1667H14.2232C14.1472 33.1097 14.0864 33.035 14.0459 32.9492C14.0053 32.8633 13.9864 32.7689 13.9906 32.674C13.9949 32.5792 14.0222 32.4868 14.0703 32.4049C14.1183 32.3231 14.1856 32.2541 14.2663 32.2042C14.3046 32.1802 14.3359 32.1465 14.357 32.1066C14.3781 32.0666 14.3883 32.0218 14.3865 31.9767C14.3849 31.9302 14.3722 31.8847 14.3495 31.8442C14.3268 31.8036 14.2946 31.769 14.2558 31.7433C14.1733 31.6899 14.1056 31.6163 14.059 31.5297C14.0125 31.443 13.9886 31.3459 13.9897 31.2475C13.9907 31.1492 14.0166 31.0526 14.065 30.967C14.1134 30.8813 14.1826 30.8092 14.2663 30.7575C14.3046 30.7335 14.3359 30.6999 14.357 30.6599C14.3781 30.62 14.3883 30.5752 14.3865 30.53C14.3849 30.4835 14.3722 30.4381 14.3495 30.3975C14.3268 30.3569 14.2946 30.3223 14.2558 30.2967C14.1746 30.2441 14.1078 30.1721 14.0613 30.0873C14.0149 30.0024 13.9902 29.9073 13.9897 29.8106C13.9891 29.7138 14.0126 29.6185 14.058 29.5331C14.1035 29.4477 14.1694 29.3749 14.25 29.3213C14.2925 29.2946 14.3274 29.2574 14.3513 29.2133C14.3753 29.1691 14.3874 29.1195 14.3865 29.0693V29.0623C14.383 28.9223 14.2547 28.78 14.0715 28.78C14.0323 28.78 13.9932 28.7761 13.9548 28.7683H10.9635C10.8128 28.7685 10.6678 28.7102 10.5591 28.6058C10.4503 28.5014 10.3862 28.359 10.3802 28.2083H10.3732V26.8667H10.3615ZM8.1985 6.33334H2.99984V26.155H3.60767C4.65078 22.7575 6.94396 19.8823 10.0243 18.1097C9.70581 17.459 9.49201 16.7621 9.39084 16.0447C9.20284 15.676 9.07746 15.2785 9.01984 14.8687C7.8345 14.3122 7.0435 13.0778 7.0435 11.6965C7.0435 10.4738 7.663 9.36551 8.62784 8.74134C8.23465 8.00394 8.08439 7.1612 8.1985 6.33334ZM30.3815 26.155H30.9882V6.33334H25.7872C25.9069 7.20137 25.7358 8.08462 25.3007 8.84518C25.7472 9.17407 26.1098 9.60372 26.3589 10.0992C26.6081 10.5946 26.7368 11.1419 26.7345 11.6965C26.7388 12.3175 26.5777 12.9284 26.2679 13.4666C25.9582 14.0047 25.5108 14.4508 24.9717 14.759C24.9235 15.2147 24.7918 15.6577 24.5832 16.0657C24.4802 16.7721 24.2697 17.4587 23.959 18.1015C27.044 19.8741 29.3398 22.753 30.3815 26.155ZM14.3398 13.4383C15.4015 13.4383 16.2648 12.575 16.2648 11.5133H16.2532V10.6733C16.2532 10.1017 15.7982 9.64668 15.2265 9.64668H12.7998C12.2282 9.64668 11.7732 10.1017 11.7732 10.6733V11.5133C11.7732 12.575 12.6365 13.4383 13.6982 13.4383H14.3398ZM20.4998 13.4383C21.5615 13.4383 22.4248 12.575 22.4248 11.5133V10.6733C22.4248 10.1017 21.9698 9.64668 21.3982 9.64668H18.9598C18.3882 9.64668 17.9332 10.1017 17.9332 10.6733V11.5133C17.9332 12.575 18.7965 13.4383 19.8582 13.4383H20.4998Z" fill="#12AC75"/>
</svg>
