<svg width="38" height="38" viewBox="0 0 38 38" fill="none" xmlns="http://www.w3.org/2000/svg">
<path d="M4.22266 9.66775L12.7782 6.55664L21.3338 9.66775L17.4449 12.0011V14.3344C17.4449 14.3344 16.4073 13.5566 12.7782 13.5566C9.1491 13.5566 8.11154 14.3344 8.11154 14.3344V12.0011L4.22266 9.66775ZM4.22266 9.66775V15.89" stroke="#12AC75" strokeWidth="2.33333" strokeLinecap="round" strokeLinejoin="round"/>
<path d="M17.4448 13.5556V14.9384C17.4448 17.6109 15.3557 19.7778 12.7782 19.7778C10.2006 19.7778 8.11149 17.6109 8.11149 14.9384V13.5556M24.1617 17.4911C24.1617 17.4911 24.9162 16.942 27.5559 16.942C30.1957 16.942 30.9502 17.4896 30.9502 17.4896M24.1617 17.4911V15.8889L21.3337 14.3333L27.5559 12L33.7782 14.3333L30.9502 15.8889V17.4896M24.1617 17.4911V17.9391C24.1617 18.8393 24.5193 19.7026 25.1559 20.3392C25.7924 20.9757 26.6557 21.3333 27.5559 21.3333C28.4561 21.3333 29.3195 20.9757 29.956 20.3392C30.5926 19.7026 30.9502 18.8393 30.9502 17.9391V17.4896M25.2226 31.4444H30.9859C32.1884 31.4444 33.1435 30.8596 34.0022 30.0413C35.7599 28.3676 32.8744 27.0298 31.7746 26.3749C30.7965 25.7976 29.7105 25.427 28.5836 25.286C27.4566 25.145 26.3127 25.2366 25.2226 25.5551M7.15482 25.1071C5.68793 25.9269 1.84104 27.5991 4.18371 29.6913C5.3286 30.7133 6.6026 31.4444 8.20638 31.4444H17.3499C18.9522 31.4444 20.2277 30.7133 21.3726 29.6913C23.7153 27.5991 19.8684 25.9269 18.4015 25.1071C14.9606 23.186 10.5957 23.186 7.15482 25.1071Z" stroke="#12AC75" strokeWidth="2.33333" strokeLinecap="round" strokeLinejoin="round"/>
</svg>
