<svg width="38" height="38" viewBox="0 0 38 38" fill="none" xmlns="http://www.w3.org/2000/svg">
<path d="M36.2382 8.79243H28.9102C28.8346 8.79243 28.7599 8.77751 28.6901 8.74853C28.6204 8.71955 28.5571 8.67708 28.5038 8.62356C28.4505 8.57004 28.4084 8.50652 28.3797 8.43665C28.351 8.36678 28.3365 8.29194 28.3368 8.21643C28.3386 8.07421 28.3857 7.94798 28.4782 7.83776L33.7048 1.86443C33.7555 1.8052 33.8185 1.75779 33.8895 1.72554C33.9604 1.69329 34.0376 1.67698 34.1155 1.67776C34.4142 1.67776 34.6568 1.92309 34.6568 2.22176V11.1631M23.9315 11.1604H17.6115V9.81376C17.6121 9.35303 17.7469 8.90246 17.9993 8.51701C18.2517 8.13156 18.6108 7.8279 19.0328 7.64309L22.5528 6.10443C23.0399 5.89235 23.439 5.51883 23.6828 5.04683C23.9265 4.57482 24.0001 4.0332 23.8911 3.51326C23.7821 2.99332 23.4972 2.52686 23.0844 2.19251C22.6715 1.85815 22.1561 1.67636 21.6248 1.67776H19.9822C19.492 1.6783 19.014 1.83061 18.6138 2.11376C18.2137 2.39691 17.9111 2.79701 17.7475 3.25909M20.3475 35.1738C21.7299 36.0639 23.3753 36.4541 25.0102 36.2794C26.6451 36.1048 28.171 35.3758 29.3342 34.2138L30.3475 33.2004C30.7969 32.7461 31.049 32.1328 31.049 31.4938C31.049 30.8547 30.7969 30.2414 30.3475 29.7871L26.0808 25.5471C25.631 25.0993 25.0222 24.8479 24.3875 24.8479C23.7528 24.8479 23.1439 25.0993 22.6942 25.5471C22.2398 25.9966 21.6266 26.2487 20.9875 26.2487C20.3484 26.2487 19.7351 25.9966 19.2808 25.5471L12.4808 18.7471C12.0314 18.2928 11.7793 17.6795 11.7793 17.0404C11.7793 16.4014 12.0314 15.7881 12.4808 15.3338C12.9286 14.884 13.1801 14.2751 13.1801 13.6404C13.1801 13.0057 12.9286 12.3969 12.4808 11.9471L8.37416 7.68043C7.91984 7.23097 7.30656 6.97887 6.66749 6.97887C6.02842 6.97887 5.41514 7.23097 4.96082 7.68043L3.94749 8.69376C2.76457 9.84053 2.01072 11.3583 1.81175 12.9938C1.61277 14.6292 1.98071 16.2835 2.85416 17.6804C7.50254 24.5851 13.4428 30.5254 20.3475 35.1738Z" stroke="#12AC75" stroke-width="2.66667" stroke-linecap="round" stroke-linejoin="round"/>
</svg>
