<svg width="200" height="40" viewBox="0 0 200 40" fill="none" xmlns="http://www.w3.org/2000/svg">
<path d="M167.712 11.4024V8.51632C167.712 8.35737 167.649 8.20493 167.536 8.09253C167.424 7.98014 167.272 7.91699 167.113 7.91699H163.524C163.365 7.91699 163.213 7.98014 163.1 8.09253C162.988 8.20493 162.925 8.35737 162.925 8.51632V18.6902C162.925 18.8491 162.988 19.0016 163.1 19.114C163.213 19.2264 163.365 19.2895 163.524 19.2895H164.791C164.887 19.2896 164.982 19.3126 165.067 19.3566C165.152 19.4007 165.225 19.4645 165.28 19.5426C165.336 19.6208 165.371 19.7111 165.385 19.806C165.398 19.9008 165.388 19.9975 165.356 20.0878L161.426 31.2221C161.395 31.3124 161.385 31.4091 161.398 31.5039C161.411 31.5988 161.447 31.6891 161.502 31.7673C161.558 31.8454 161.631 31.9092 161.716 31.9533C161.801 31.9973 161.896 32.0203 161.991 32.0204H167.599C167.758 32.0204 167.91 31.9572 168.023 31.8448C168.135 31.7324 168.198 31.58 168.198 31.4211V20.7928C168.198 15.863 171.364 13.9643 176.162 14.1608C176.243 14.1648 176.324 14.1523 176.401 14.124C176.477 14.0957 176.547 14.0523 176.606 13.9963C176.665 13.9403 176.713 13.873 176.745 13.7982C176.778 13.7235 176.795 13.643 176.795 13.5615V8.53597C176.796 8.45539 176.781 8.37545 176.75 8.30107C176.719 8.22669 176.673 8.15945 176.615 8.10351C176.557 8.04758 176.488 8.00413 176.413 7.97585C176.337 7.94757 176.257 7.93506 176.176 7.9391C173.293 8.13806 170.549 9.71253 168.766 11.8102C168.686 11.9056 168.578 11.9737 168.457 12.0047C168.336 12.0358 168.209 12.0283 168.093 11.9833C167.977 11.9384 167.878 11.8582 167.809 11.754C167.741 11.6498 167.707 11.5269 167.712 11.4024ZM162.586 7.91699H162.124L152.598 7.92927H152.515C147.111 7.92927 143.26 11.0635 142.638 16.0522C142.63 16.1349 142.639 16.2185 142.665 16.2975C142.691 16.3766 142.733 16.4493 142.789 16.511C142.845 16.5728 142.913 16.6222 142.989 16.6561C143.065 16.69 143.147 16.7077 143.23 16.708H147.494C147.635 16.7099 147.772 16.6615 147.88 16.5714C147.988 16.4813 148.06 16.3555 148.084 16.2167C148.447 13.8956 149.985 12.5495 152.436 12.5495C154.964 12.5495 156.447 14.0822 156.447 16.7006V17.4228C156.448 17.5066 156.43 17.5896 156.396 17.6662C156.362 17.7428 156.312 17.8114 156.25 17.8675C156.187 17.9236 156.114 17.9659 156.034 17.9917C155.954 18.0175 155.87 18.0262 155.787 18.0172C154.717 17.8957 153.641 17.8342 152.564 17.833C145.76 17.833 142.093 20.2769 142.093 24.8137C142.093 29.176 145.323 32.013 150.164 32.013C152.709 32.013 154.694 31.2909 156.167 29.8908C156.251 29.8072 156.357 29.7502 156.473 29.7271C156.589 29.704 156.709 29.7158 156.818 29.761C156.928 29.8063 157.021 29.8829 157.086 29.9812C157.152 30.0795 157.187 30.1951 157.187 30.3133V31.4137C157.187 31.4924 157.202 31.5703 157.232 31.643C157.263 31.7158 157.307 31.7818 157.362 31.8375C157.418 31.8931 157.484 31.9373 157.557 31.9674C157.629 31.9975 157.707 32.013 157.786 32.013H160.193C160.272 32.013 160.35 31.9975 160.423 31.9674C160.495 31.9373 160.561 31.8931 160.617 31.8375C160.673 31.7818 160.717 31.7158 160.747 31.643C160.777 31.5703 160.793 31.4924 160.793 31.4137V21.2472C160.793 21.0882 160.729 20.9358 160.617 20.8234C160.505 20.711 160.352 20.6479 160.193 20.6479H158.926C158.83 20.6474 158.736 20.624 158.651 20.5797C158.566 20.5353 158.492 20.4713 158.437 20.393C158.382 20.3146 158.346 20.2242 158.333 20.1293C158.32 20.0343 158.329 19.9376 158.361 19.8471L162.586 7.91699ZM156.445 23.421C156.445 26.1229 154.568 27.8423 151.471 27.8423C149.204 27.8423 147.806 26.6141 147.806 24.6491C147.806 22.5515 149.509 21.456 152.964 21.456C153.961 21.4656 154.956 21.5477 155.941 21.7016C156.084 21.7217 156.215 21.7927 156.309 21.9015C156.403 22.0103 156.455 22.1496 156.455 22.2936L156.445 23.421Z" fill="#12AC75"/>
<path d="M0 31.5216V1.36354C0.000646718 1.20283 0.0647727 1.04889 0.178411 0.935247C0.292049 0.821609 0.445992 0.757483 0.606699 0.756836H11.1416C21.1043 0.756836 27.1344 7.14314 27.1344 16.2682C27.1344 25.3932 20.8857 32.1283 11.1416 32.1283H0.606699C0.445793 32.1283 0.291473 32.0644 0.177695 31.9506C0.063917 31.8369 0 31.6825 0 31.5216ZM6.63193 25.7985C6.63193 25.8782 6.64763 25.9571 6.67811 26.0307C6.7086 26.1043 6.75329 26.1712 6.80963 26.2275C6.86596 26.2839 6.93285 26.3285 7.00646 26.359C7.08006 26.3895 7.15896 26.4052 7.23863 26.4052H10.783C17.0956 26.4052 20.3748 22.7036 20.306 16.0643C20.2801 13.516 19.2501 11.0807 17.4396 9.28716C15.629 7.49364 13.1841 6.48667 10.6357 6.48486H7.24846C7.16878 6.48486 7.08989 6.50056 7.01628 6.53104C6.94268 6.56153 6.87579 6.60622 6.81945 6.66256C6.76312 6.7189 6.71843 6.78577 6.68794 6.85938C6.65745 6.93299 6.64176 7.01189 6.64176 7.09156L6.63193 25.7985Z" fill="#12AC75"/>
<path d="M28.3334 19.9061C28.3334 12.9597 33.1821 7.91699 39.9122 7.91699C47.1214 7.91699 51.948 13.5983 51.1644 20.9352C51.1469 21.0831 51.0757 21.2193 50.9643 21.3181C50.8529 21.4168 50.709 21.4711 50.5602 21.4707H35.2306C35.1418 21.4712 35.0543 21.491 34.9739 21.5288C34.8936 21.5665 34.8225 21.6213 34.7654 21.6893C34.7084 21.7573 34.6669 21.837 34.6437 21.9226C34.6205 22.0083 34.6163 22.098 34.6313 22.1855C35.1741 25.5334 36.9672 27.3682 39.868 27.3682C42.371 27.3682 44.1026 26.2113 44.8837 24.1529C44.9263 24.0341 45.0042 23.9312 45.1069 23.8579C45.2096 23.7845 45.3323 23.7444 45.4585 23.7427H50.2507C50.3466 23.7437 50.4409 23.7671 50.5261 23.8111C50.6114 23.8551 50.6851 23.9184 50.7415 23.996C50.7978 24.0736 50.8352 24.1633 50.8506 24.2579C50.8661 24.3526 50.8591 24.4496 50.8304 24.541C49.3198 29.3308 45.3873 32.0449 40.0007 32.0449C33.0077 32.0548 28.3334 27.2036 28.3334 19.9061ZM35.3583 17.634H43.997C44.0845 17.6338 44.1709 17.6149 44.2504 17.5784C44.33 17.542 44.4007 17.4889 44.458 17.4228C44.5153 17.3567 44.5577 17.2791 44.5824 17.1952C44.6071 17.1113 44.6136 17.023 44.6013 16.9364C44.223 14.1043 42.452 12.385 39.7796 12.385C37.1538 12.385 35.4222 13.9299 34.7639 16.8996C34.7458 16.9881 34.7474 17.0795 34.7688 17.1673C34.7902 17.255 34.8308 17.337 34.8876 17.4072C34.9445 17.4774 35.0161 17.5342 35.0975 17.5734C35.1789 17.6126 35.268 17.6333 35.3583 17.634Z" fill="#12AC75"/>
<path d="M57.9315 32.0548H53.0706C52.9099 32.0541 52.7559 31.99 52.6423 31.8764C52.5286 31.7627 52.4645 31.6088 52.4639 31.4481V8.52369C52.4639 8.44402 52.4796 8.36513 52.51 8.29152C52.5405 8.21791 52.5852 8.15103 52.6416 8.09469C52.6979 8.03835 52.7648 7.99366 52.8384 7.96317C52.912 7.93269 52.9909 7.91699 53.0706 7.91699H57.4501C57.611 7.91699 57.7653 7.98091 57.8791 8.09469C57.9929 8.20847 58.0568 8.36278 58.0568 8.52369V9.64375C58.0572 9.76193 58.0922 9.87741 58.1576 9.97588C58.2229 10.0744 58.3157 10.1515 58.4245 10.1978C58.5332 10.244 58.6532 10.2574 58.7694 10.2362C58.8857 10.215 58.9932 10.1602 59.0786 10.0785C60.6776 8.58264 62.7335 7.91699 65.2193 7.91699C69.8862 7.91699 73.1285 10.5378 73.1285 16.175V31.4481C73.1285 31.5277 73.1128 31.6066 73.0823 31.6802C73.0518 31.7539 73.0071 31.8207 72.9508 31.8771C72.8944 31.9334 72.8276 31.9781 72.754 32.0086C72.6803 32.0391 72.6015 32.0548 72.5218 32.0548H67.7075C67.5468 32.0541 67.3928 31.99 67.2792 31.8764C67.1656 31.7627 67.1014 31.6088 67.1008 31.4481V18.2284C67.1008 14.7749 65.7474 12.4857 62.9939 12.4857C60.5917 12.4857 58.5382 14.7749 58.5382 18.533V31.4481C58.5376 31.6088 58.4734 31.7627 58.3598 31.8764C58.2462 31.99 58.0922 32.0541 57.9315 32.0548Z" fill="#12AC75"/>
<path d="M87.0579 12.5101V8.52356C87.0579 8.36266 86.994 8.20834 86.8802 8.09456C86.7665 7.98079 86.6121 7.91686 86.4512 7.91686H80.9836C80.8229 7.91622 80.6689 7.85209 80.5553 7.73845C80.4416 7.62482 80.3775 7.47087 80.3769 7.31017V1.36354C80.3762 1.20283 80.3121 1.04889 80.1985 0.935247C80.0848 0.821609 79.9309 0.757483 79.7702 0.756836H74.9461C74.7853 0.757483 74.6314 0.821609 74.5178 0.935247C74.4041 1.04889 74.34 1.20283 74.3394 1.36354V24.057C74.3394 29.2987 77.5743 32.0546 82.3812 32.0546C83.8706 32.0909 85.3487 31.7885 86.7042 31.1704C86.8092 31.1214 86.8979 31.0433 86.9598 30.9453C87.0216 30.8473 87.054 30.7336 87.053 30.6177V26.6509C87.0535 26.555 87.0313 26.4604 86.988 26.3748C86.9448 26.2893 86.8818 26.2153 86.8043 26.1589C86.7268 26.1025 86.6369 26.0654 86.5422 26.0505C86.4475 26.0357 86.3507 26.0436 86.2596 26.0736C85.5334 26.3346 84.7667 26.4651 83.995 26.4593C81.8089 26.4593 80.372 25.3662 80.372 22.6545V13.7235C80.3726 13.5628 80.4367 13.4088 80.5504 13.2952C80.664 13.1816 80.8179 13.1174 80.9787 13.1168H86.4463C86.5263 13.1171 86.6056 13.1017 86.6796 13.0714C86.7536 13.041 86.821 12.9965 86.8778 12.9401C86.9346 12.8838 86.9797 12.8168 87.0106 12.743C87.0415 12.6692 87.0576 12.5901 87.0579 12.5101Z" fill="#12AC75"/>
<path d="M93.7389 7.91699H88.8779C88.5429 7.91699 88.2712 8.18862 88.2712 8.52369V31.4481C88.2712 31.7831 88.5429 32.0548 88.8779 32.0548H93.7389C94.074 32.0548 94.3456 31.7831 94.3456 31.4481V8.52369C94.3456 8.18862 94.074 7.91699 93.7389 7.91699Z" fill="#12AC75"/>
<path d="M106.386 32.0769C100.056 32.0769 96.3841 29.176 95.6399 24.4011C95.6249 24.3136 95.6291 24.2239 95.6523 24.1382C95.6755 24.0525 95.717 23.9729 95.774 23.9049C95.8311 23.8369 95.9022 23.7821 95.9825 23.7444C96.0629 23.7066 96.1504 23.6868 96.2392 23.6863H100.808C100.952 23.6859 101.091 23.7373 101.2 23.8311C101.309 23.9249 101.381 24.0549 101.402 24.1972C101.719 26.3047 103.684 27.6139 106.482 27.6139C108.842 27.6139 110.24 26.877 110.24 25.2116C110.24 23.7379 109.673 23.114 107.442 22.6768L103.249 21.8908C99.0541 21.1539 96.5192 18.8327 96.5192 15.2048C96.5192 10.8793 100.233 7.91211 106.045 7.91211C111.615 7.91211 115.526 10.673 116.268 15.2809C116.283 15.3685 116.278 15.4583 116.255 15.5441C116.232 15.6299 116.19 15.7097 116.134 15.7779C116.077 15.8461 116.005 15.9011 115.925 15.9391C115.845 15.9771 115.757 15.9973 115.668 15.9982H111.065C110.928 15.9992 110.795 15.9532 110.688 15.8678C110.58 15.7824 110.506 15.6628 110.476 15.529C110.08 13.5345 108.44 12.3752 106.054 12.3752C103.827 12.3752 102.341 13.1587 102.341 14.6448C102.341 16.0424 103.301 16.6098 105.399 17.0028L109.506 17.833C114.052 18.7074 116.366 20.8051 116.366 24.1702C116.356 29.0606 113.035 32.0769 106.386 32.0769Z" fill="#12AC75"/>
<path d="M130.505 32.0772C128.331 32.1063 126.233 31.2756 124.668 29.7659C124.583 29.6834 124.475 29.6278 124.359 29.6062C124.242 29.5845 124.122 29.5977 124.012 29.6441C123.903 29.6904 123.81 29.7679 123.744 29.8669C123.679 29.9659 123.644 30.082 123.644 30.2007V38.6355C123.644 38.7962 123.579 38.9501 123.466 39.0638C123.352 39.1774 123.198 39.2415 123.037 39.2422H118.177C118.016 39.2415 117.862 39.1774 117.748 39.0638C117.635 38.9501 117.57 38.7962 117.57 38.6355V8.52405C117.57 8.36315 117.634 8.20883 117.748 8.09505C117.861 7.98128 118.016 7.91736 118.177 7.91736H122.556C122.636 7.91703 122.715 7.9325 122.789 7.96288C122.862 7.99325 122.929 8.03793 122.986 8.09433C123.042 8.15073 123.087 8.21775 123.117 8.2915C123.148 8.36526 123.163 8.44429 123.163 8.52405V10.0641C123.162 10.1845 123.198 10.3023 123.264 10.4024C123.331 10.5025 123.426 10.5803 123.538 10.626C123.649 10.6717 123.772 10.683 123.889 10.6586C124.007 10.6342 124.115 10.5752 124.199 10.4891C125.021 9.65581 126.004 8.99821 127.088 8.55614C128.172 8.11407 129.334 7.89675 130.505 7.91736C136.795 7.91736 140.86 13.1124 140.86 19.9727C140.86 26.8773 136.795 32.0772 130.505 32.0772ZM129.149 13.2917C126.179 13.2917 123.688 15.5588 123.688 19.9727C123.688 24.3867 126.179 26.6587 129.149 26.6587C132.118 26.6587 134.611 24.4309 134.611 19.9727C134.611 15.603 132.121 13.2917 129.149 13.2917Z" fill="#12AC75"/>
<path d="M178.028 31.4479V1.36354C178.028 1.20263 178.092 1.04831 178.206 0.934535C178.32 0.820757 178.474 0.756836 178.635 0.756836H183.494C183.655 0.756836 183.809 0.820757 183.923 0.934535C184.036 1.04831 184.1 1.20263 184.1 1.36354V17.0517C184.1 17.1753 184.138 17.296 184.208 17.3977C184.278 17.4994 184.378 17.5772 184.493 17.6207C184.609 17.6642 184.735 17.6714 184.855 17.6413C184.975 17.6112 185.083 17.5452 185.164 17.4521L193.309 8.13056C193.367 8.06566 193.437 8.01372 193.516 7.97815C193.596 7.94259 193.681 7.92421 193.768 7.92423H199.147C199.264 7.92445 199.377 7.95807 199.475 8.0211C199.573 8.08414 199.65 8.17392 199.699 8.27977C199.747 8.38562 199.763 8.50308 199.747 8.61816C199.73 8.73323 199.681 8.84107 199.604 8.92885L190.307 19.5768C190.209 19.6877 190.155 19.8305 190.155 19.9784C190.155 20.1263 190.209 20.2691 190.307 20.38L199.845 31.0525C199.923 31.1397 199.975 31.2478 199.993 31.3637C200.011 31.4795 199.995 31.5981 199.948 31.7052C199.9 31.8122 199.822 31.9032 199.723 31.9669C199.625 32.0307 199.51 32.0646 199.393 32.0645H193.299C193.21 32.0642 193.122 32.0443 193.041 32.0061C192.96 31.9679 192.889 31.9123 192.832 31.8434L185.174 22.6005C185.094 22.5046 184.987 22.4356 184.867 22.4028C184.747 22.37 184.619 22.375 184.502 22.4171C184.385 22.4593 184.283 22.5365 184.211 22.6383C184.139 22.7401 184.101 22.8615 184.1 22.9861V31.4578C184.1 31.6187 184.036 31.773 183.923 31.8868C183.809 32.0005 183.655 32.0645 183.494 32.0645H178.635C178.555 32.0645 178.475 32.0485 178.401 32.0174C178.326 31.9863 178.259 31.9407 178.203 31.8833C178.146 31.8259 178.102 31.7579 178.072 31.6831C178.042 31.6084 178.027 31.5284 178.028 31.4479Z" fill="#12AC75"/>
<path d="M93.7389 0.756836H88.8779C88.5429 0.756836 88.2712 1.02846 88.2712 1.36354V6.2245C88.2712 6.55957 88.5429 6.8312 88.8779 6.8312H93.7389C94.074 6.8312 94.3456 6.55957 94.3456 6.2245V1.36354C94.3456 1.02846 94.074 0.756836 93.7389 0.756836Z" fill="#131313"/>
</svg>
