<svg width="48" height="48" viewBox="0 0 48 48" fill="none" xmlns="http://www.w3.org/2000/svg">
<path opacity="0.4" d="M41 20.38H35.22C30.48 20.38 26.62 16.52 26.62 11.78V6C26.62 4.9 25.72 4 24.62 4H16.14C9.98 4 5 8 5 15.14V32.86C5 40 9.98 44 16.14 44H31.86C38.02 44 43 40 43 32.86V22.38C43 21.28 42.1 20.38 41 20.38Z" fill="#2A50FA"/>
<path d="M31.5994 4.41999C30.7794 3.59999 29.3594 4.15999 29.3594 5.29999V12.28C29.3594 15.2 31.8394 17.62 34.8594 17.62C36.7594 17.64 39.3994 17.64 41.6594 17.64C42.7994 17.64 43.3994 16.3 42.5994 15.5C39.7194 12.6 34.5594 7.37999 31.5994 4.41999Z" fill="#2A50FA"/>
<path d="M22 35.4999C21.62 35.4999 21.24 35.3599 20.94 35.0599C20.36 34.4799 20.36 33.5199 20.94 32.9399L22.38 31.4999H14C13.18 31.4999 12.5 30.8199 12.5 29.9999C12.5 29.1799 13.18 28.4999 14 28.4999H22.38L20.94 27.0599C20.64 26.7599 20.5 26.3799 20.5 25.9999C20.5 25.6199 20.64 25.2399 20.94 24.9399C21.52 24.3599 22.48 24.3599 23.06 24.9399L27.06 28.9399C27.32 29.1999 27.46 29.5399 27.48 29.8599C27.48 29.9599 27.48 30.0799 27.48 30.1799C27.44 30.4599 27.32 30.7199 27.12 30.9599C27.1 30.9799 27.06 31.0199 27.04 31.0399L23.04 35.0399C22.76 35.3599 22.38 35.4999 22 35.4999Z" fill="#2A50FA"/>
</svg>
