<svg width="48" height="48" viewBox="0 0 48 48" fill="none" xmlns="http://www.w3.org/2000/svg">
<path opacity="0.4" d="M44 12.5V22.7C44 25.24 43.16 27.38 41.66 28.86C40.18 30.36 38.04 31.2 35.5 31.2V34.8199C35.5 36.1799 33.98 37 32.86 36.24L30.92 34.96C31.1 34.34 31.18 33.6599 31.18 32.9399V24.8C31.18 20.72 28.46 18 24.38 18H10.8C10.52 18 10.26 18.02 10 18.04V12.5C10 7.4 13.4 4 18.5 4H35.5C40.6 4 44 7.4 44 12.5Z" fill="#F18935"/>
<path d="M11.2998 39.2402H10.7998C8.87289 39.2402 7.30659 38.5996 6.2334 37.5264C5.13948 36.4324 4.5 34.8651 4.5 32.9395V24.7998C4.50005 23.0053 5.05542 21.5238 6.00781 20.4551C6.95955 19.3872 8.33781 18.6968 10.0459 18.5371C10.3051 18.5172 10.5444 18.5 10.7998 18.5H24.3799C26.3062 18.5 27.8725 19.1401 28.9561 20.2236C30.0396 21.3072 30.6796 22.8735 30.6797 24.7998V32.9395C30.6797 33.6236 30.6034 34.2554 30.4395 34.8203L30.4355 34.8379C29.7569 37.5341 27.5338 39.2402 24.3799 39.2402H18.7891L18.6631 39.3242L12.623 43.3438L12.6162 43.3486C12.0607 43.731 11.2998 43.3324 11.2998 42.6396V39.2402Z" fill="#F18935" stroke="#F7BB8B"/>
</svg>
