<svg width="48" height="48" viewBox="0 0 48 48" fill="none" xmlns="http://www.w3.org/2000/svg">
<path opacity="0.4" d="M4 19.5C3.18 19.5 2.5 18.82 2.5 18V13C2.5 7.2 7.22 2.5 13 2.5H18C18.82 2.5 19.5 3.18 19.5 4C19.5 4.82 18.82 5.5 18 5.5H13C8.86 5.5 5.5 8.86 5.5 13V18C5.5 18.82 4.82 19.5 4 19.5Z" fill="#12AC75"/>
<path d="M44 19.5C43.18 19.5 42.5 18.82 42.5 18V13C42.5 8.86 39.14 5.5 35 5.5H30C29.18 5.5 28.5 4.82 28.5 4C28.5 3.18 29.18 2.5 30 2.5H35C40.78 2.5 45.5 7.2 45.5 13V18C45.5 18.82 44.82 19.5 44 19.5Z" fill="#12AC75"/>
<path opacity="0.4" d="M35 45.5H32C31.18 45.5 30.5 44.82 30.5 44C30.5 43.18 31.18 42.5 32 42.5H35C39.14 42.5 42.5 39.14 42.5 35V32C42.5 31.18 43.18 30.5 44 30.5C44.82 30.5 45.5 31.18 45.5 32V35C45.5 40.8 40.78 45.5 35 45.5Z" fill="#12AC75"/>
<path d="M18 45.5H13C7.22 45.5 2.5 40.8 2.5 35V30C2.5 29.18 3.18 28.5 4 28.5C4.82 28.5 5.5 29.18 5.5 30V35C5.5 39.14 8.86 42.5 13 42.5H18C18.82 42.5 19.5 43.18 19.5 44C19.5 44.82 18.82 45.5 18 45.5Z" fill="#12AC75"/>
<path d="M17.0002 22.7602C20.1814 22.7602 22.7602 20.1814 22.7602 17.0002C22.7602 13.8191 20.1814 11.2402 17.0002 11.2402C13.8191 11.2402 11.2402 13.8191 11.2402 17.0002C11.2402 20.1814 13.8191 22.7602 17.0002 22.7602Z" fill="#12AC75"/>
<path opacity="0.4" d="M15.0002 36.7602C17.0768 36.7602 18.7602 35.0768 18.7602 33.0002C18.7602 30.9236 17.0768 29.2402 15.0002 29.2402C12.9236 29.2402 11.2402 30.9236 11.2402 33.0002C11.2402 35.0768 12.9236 36.7602 15.0002 36.7602Z" fill="#12AC75"/>
<path opacity="0.4" d="M33.0002 18.7602C35.0768 18.7602 36.7602 17.0768 36.7602 15.0002C36.7602 12.9236 35.0768 11.2402 33.0002 11.2402C30.9236 11.2402 29.2402 12.9236 29.2402 15.0002C29.2402 17.0768 30.9236 18.7602 33.0002 18.7602Z" fill="#12AC75"/>
<path d="M31.0002 36.7602C34.1814 36.7602 36.7602 34.1814 36.7602 31.0002C36.7602 27.8191 34.1814 25.2402 31.0002 25.2402C27.8191 25.2402 25.2402 27.8191 25.2402 31.0002C25.2402 34.1814 27.8191 36.7602 31.0002 36.7602Z" fill="#12AC75"/>
</svg>
