<svg width="217" height="217" viewBox="0 0 217 217" fill="none" xmlns="http://www.w3.org/2000/svg">
<g filter="url(#filter0_d_1912_19432)">
<rect x="48.4614" y="47" width="120" height="120" rx="60" fill="#0D7A53"/>
<path opacity="0.4" d="M141.795 93.0327V117.533C140.828 117.066 139.762 116.733 138.562 116.533L137.528 116.366L136.662 114.566C134.828 110.833 131.828 108.666 128.462 108.666C125.095 108.666 122.095 110.833 120.262 114.566L119.362 116.366L118.362 116.533C114.395 117.199 111.528 119.399 110.495 122.533C109.495 125.699 110.528 129.166 113.362 132.033L114.395 133.066L114.295 133.466C113.628 136.433 113.895 138.699 114.528 140.333H94.4951C82.3617 140.333 75.1284 133.099 75.1284 120.966V93.0327C75.1284 80.8994 82.3617 73.666 94.4951 73.666H122.428C134.562 73.666 141.795 80.8994 141.795 93.0327Z" fill="#B6E5D4"/>
<path d="M132.194 116.801L133.261 118.967C133.794 120.034 135.161 121.034 136.294 121.234L137.728 121.467C142.094 122.201 143.094 125.401 139.994 128.534L138.661 129.867C137.761 130.767 137.294 132.501 137.561 133.767L137.728 134.567C138.928 139.834 136.128 141.867 131.561 139.101L130.594 138.501C129.428 137.801 127.494 137.801 126.328 138.501L125.361 139.101C120.761 141.867 117.994 139.834 119.194 134.567L119.361 133.767C119.628 132.534 119.161 130.767 118.261 129.867L116.928 128.534C113.828 125.367 114.828 122.201 119.194 121.467L120.628 121.234C121.794 121.034 123.128 120.034 123.661 118.967L124.728 116.801C126.794 112.634 130.128 112.634 132.194 116.801Z" fill="#B6E5D4"/>
<path fill-rule="evenodd" clip-rule="evenodd" d="M122.226 93.3914C123.318 94.2373 123.517 95.8077 122.671 96.899L114.956 106.851C112.973 109.359 109.317 109.816 106.766 107.846L106.749 107.832L100.66 103.041C100.284 102.755 99.7594 102.826 99.4738 103.195C99.4735 103.195 99.474 103.195 99.4738 103.195L91.542 113.493C90.6995 114.587 89.1297 114.79 88.0359 113.948C86.942 113.105 86.7383 111.536 87.5808 110.442L95.5165 100.139C97.4962 97.5767 101.167 97.1137 103.723 99.0891L103.741 99.1026L109.829 103.894C110.209 104.182 110.745 104.108 111.029 103.756L118.719 93.8357C119.565 92.7444 121.135 92.5455 122.226 93.3914Z" fill="#B6E5D4"/>
</g>
<defs>
<filter id="filter0_d_1912_19432" x="0.384505" y="0.846156" width="216.154" height="216.154" filterUnits="userSpaceOnUse" color-interpolation-filters="sRGB">
<feFlood flood-opacity="0" result="BackgroundImageFix"/>
<feColorMatrix in="SourceAlpha" type="matrix" values="0 0 0 0 0 0 0 0 0 0 0 0 0 0 0 0 0 0 127 0" result="hardAlpha"/>
<feMorphology radius="9.61538" operator="dilate" in="SourceAlpha" result="effect1_dropShadow_1912_19432"/>
<feOffset dy="1.92308"/>
<feGaussianBlur stdDeviation="19.2308"/>
<feColorMatrix type="matrix" values="0 0 0 0 0.254902 0 0 0 0 0.741176 0 0 0 0 0.568627 0 0 0 0.5 0"/>
<feBlend mode="normal" in2="BackgroundImageFix" result="effect1_dropShadow_1912_19432"/>
<feBlend mode="normal" in="SourceGraphic" in2="effect1_dropShadow_1912_19432" result="shape"/>
</filter>
</defs>
</svg>
