<svg width="200" height="40" viewBox="0 0 200 40" fill="none" xmlns="http://www.w3.org/2000/svg">
<path d="M167.713 11.4121V8.51711C167.713 8.35798 167.649 8.20537 167.537 8.09285C167.424 7.98033 167.272 7.91711 167.113 7.91711H163.525C163.446 7.91678 163.368 7.93208 163.295 7.96211C163.222 7.99215 163.156 8.03633 163.1 8.09211C163.044 8.14789 163 8.21417 162.97 8.28711C162.94 8.36006 162.925 8.43823 162.925 8.51711V18.6896C162.925 18.7685 162.94 18.8467 162.97 18.9196C163 18.9926 163.044 19.0589 163.1 19.1146C163.156 19.1704 163.222 19.2146 163.295 19.2446C163.368 19.2747 163.446 19.29 163.525 19.2896H164.793C164.889 19.2897 164.983 19.3129 165.068 19.357C165.153 19.4012 165.227 19.4652 165.282 19.5435C165.337 19.6219 165.373 19.7124 165.386 19.8074C165.399 19.9024 165.39 19.9992 165.358 20.0896L161.42 31.2222C161.388 31.3125 161.378 31.4092 161.391 31.5041C161.404 31.599 161.44 31.6894 161.496 31.7676C161.551 31.8458 161.624 31.9095 161.71 31.9534C161.795 31.9973 161.889 32.02 161.985 32.0197H167.59C167.669 32.02 167.747 32.0048 167.82 31.9749C167.892 31.945 167.959 31.9011 168.014 31.8456C168.07 31.79 168.114 31.7241 168.144 31.6514C168.175 31.5788 168.19 31.5009 168.19 31.4222V20.7921C168.19 15.8621 171.358 13.9646 176.153 14.1621C176.234 14.1665 176.316 14.1544 176.392 14.1264C176.469 14.0984 176.539 14.0552 176.598 13.9993C176.657 13.9434 176.705 13.8761 176.737 13.8014C176.77 13.7267 176.787 13.6461 176.788 13.5646V8.53711C176.789 8.4563 176.773 8.37613 176.742 8.30151C176.711 8.22689 176.665 8.1594 176.607 8.1032C176.549 8.047 176.48 8.00327 176.405 7.97471C176.329 7.94615 176.248 7.93335 176.168 7.93711C173.285 8.13961 170.543 9.71211 168.758 11.8096C168.677 11.9006 168.571 11.9648 168.453 11.9939C168.335 12.0229 168.211 12.0153 168.098 11.9722C167.984 11.929 167.887 11.8523 167.818 11.7522C167.749 11.6522 167.712 11.5335 167.713 11.4121ZM162.585 7.91211H162.125L152.6 7.92461H152.515C147.118 7.92461 143.265 11.0596 142.64 16.0471C142.631 16.1306 142.64 16.2149 142.666 16.2947C142.692 16.3744 142.735 16.4477 142.791 16.5098C142.848 16.5719 142.917 16.6214 142.994 16.6549C143.071 16.6885 143.154 16.7055 143.238 16.7046H147.488C147.627 16.7068 147.763 16.6591 147.871 16.5703C147.978 16.4814 148.051 16.3571 148.075 16.2196C148.44 13.8971 149.978 12.5521 152.43 12.5521C154.958 12.5521 156.43 14.0871 156.43 16.7046V17.4246C156.43 17.5084 156.413 17.5913 156.379 17.6679C156.345 17.7445 156.295 17.8131 156.233 17.8692C156.17 17.9253 156.097 17.9677 156.017 17.9936C155.938 18.0195 155.853 18.0284 155.77 18.0196C154.7 17.8989 153.624 17.838 152.548 17.8371C145.743 17.8371 142.075 20.2796 142.075 24.8172C142.075 29.1797 145.305 32.0147 150.148 32.0147C152.69 32.0147 154.675 31.2947 156.148 29.8922C156.231 29.8086 156.338 29.7517 156.454 29.7286C156.569 29.7056 156.69 29.7174 156.799 29.7626C156.908 29.8079 157.001 29.8845 157.067 29.9827C157.133 30.081 157.168 30.1965 157.168 30.3147V31.4172C157.168 31.4958 157.183 31.5737 157.213 31.6464C157.244 31.7191 157.288 31.785 157.344 31.8406C157.399 31.8961 157.465 31.94 157.538 31.9699C157.611 31.9998 157.689 32.015 157.768 32.0147H160.173C160.251 32.015 160.329 31.9998 160.402 31.9699C160.475 31.94 160.541 31.8961 160.597 31.8406C160.652 31.785 160.697 31.7191 160.727 31.6464C160.757 31.5737 160.773 31.4958 160.773 31.4172V21.2496C160.773 21.1708 160.758 21.0926 160.728 21.0197C160.698 20.9467 160.653 20.8804 160.598 20.8246C160.542 20.7689 160.476 20.7247 160.403 20.6946C160.33 20.6646 160.252 20.6493 160.173 20.6496H158.905C158.809 20.6495 158.715 20.6264 158.63 20.5823C158.544 20.5381 158.471 20.4741 158.416 20.3958C158.36 20.3174 158.325 20.2269 158.311 20.1319C158.298 20.0369 158.308 19.9401 158.34 19.8496L162.585 7.91211ZM156.453 23.4122C156.453 26.1197 154.575 27.8247 151.478 27.8247C149.213 27.8247 147.813 26.5997 147.813 24.6372C147.813 22.5396 149.515 21.4496 152.963 21.4496C153.959 21.4559 154.954 21.5336 155.94 21.6821C156.081 21.7059 156.208 21.7788 156.299 21.8878C156.391 21.9968 156.441 22.1348 156.44 22.2771L156.453 23.4122Z" fill="#FEFEFE"/>
<path d="M0 31.5229V1.36531C0 1.20419 0.0640046 1.04967 0.177933 0.935746C0.291862 0.821817 0.44638 0.757812 0.6075 0.757812H11.1425C21.1051 0.757812 27.1426 7.13784 27.1426 16.2579C27.1426 25.3779 20.8926 32.1204 11.1425 32.1204H0.6075C0.448098 32.1204 0.295077 32.0578 0.181431 31.946C0.0677858 31.8342 0.0026239 31.6823 0 31.5229ZM6.64252 25.8004C6.64252 25.9608 6.70626 26.1147 6.81972 26.2282C6.93318 26.3416 7.08706 26.4054 7.24752 26.4054H10.7925C17.105 26.4054 20.3851 22.7054 20.3176 16.0654C20.2925 13.5165 19.2629 11.0805 17.4524 9.28628C15.6418 7.4921 13.1965 6.48468 10.6475 6.48283H7.25002C7.17057 6.48283 7.0919 6.49847 7.0185 6.52888C6.9451 6.55928 6.8784 6.60385 6.82222 6.66003C6.76604 6.71621 6.72147 6.78291 6.69107 6.85631C6.66067 6.92971 6.64502 7.00838 6.64502 7.08783L6.64252 25.8004Z" fill="#FEFEFE"/>
<path d="M28.3323 19.9082C28.3323 12.9607 33.1823 7.9082 39.9123 7.9082C47.1223 7.9082 51.9573 13.5882 51.1623 20.9357C51.1446 21.0836 51.0731 21.2197 50.9616 21.3183C50.8501 21.417 50.7062 21.4712 50.5573 21.4707H35.2298C35.141 21.4716 35.0534 21.4918 34.9732 21.5299C34.8929 21.5679 34.8219 21.623 34.7651 21.6913C34.7082 21.7595 34.6669 21.8393 34.644 21.9251C34.621 22.011 34.6171 22.1007 34.6323 22.1882C35.1723 25.5357 36.9673 27.3708 39.8673 27.3708C42.3673 27.3708 44.1048 26.2133 44.8848 24.1557C44.9267 24.0367 45.004 23.9334 45.1063 23.8597C45.2087 23.7859 45.3312 23.7453 45.4573 23.7432H50.2498C50.3461 23.7437 50.4408 23.7669 50.5265 23.8108C50.6121 23.8548 50.6861 23.9183 50.7426 23.9962C50.7991 24.0741 50.8365 24.1643 50.8516 24.2593C50.8668 24.3543 50.8593 24.4516 50.8298 24.5432C49.3298 29.3333 45.3873 32.0433 39.9998 32.0433C32.9998 32.0558 28.3323 27.2058 28.3323 19.9082ZM35.3573 17.6357H43.9998C44.0872 17.6351 44.1734 17.6159 44.2527 17.5793C44.3321 17.5428 44.4027 17.4897 44.46 17.4237C44.5172 17.3577 44.5597 17.2803 44.5847 17.1966C44.6097 17.1129 44.6165 17.0248 44.6048 16.9382C44.2173 14.1107 42.4448 12.3732 39.7748 12.3732C37.1473 12.3732 35.4173 13.9207 34.7573 16.8882C34.7375 16.978 34.7381 17.0711 34.759 17.1607C34.7799 17.2503 34.8207 17.334 34.8782 17.4057C34.9358 17.4774 35.0087 17.5353 35.0916 17.5751C35.1745 17.6149 35.2653 17.6356 35.3573 17.6357Z" fill="#FEFEFE"/>
<path d="M57.93 32.0555H53.07C52.9089 32.0555 52.7544 31.9915 52.6405 31.8776C52.5265 31.7637 52.4625 31.6091 52.4625 31.448V8.52297C52.4625 8.44331 52.4783 8.36443 52.5088 8.29087C52.5394 8.2173 52.5842 8.15049 52.6406 8.09428C52.6971 8.03807 52.764 7.99356 52.8377 7.9633C52.9114 7.93304 52.9904 7.91764 53.07 7.91797H57.45C57.5297 7.91764 57.6086 7.93304 57.6823 7.9633C57.756 7.99356 57.823 8.03807 57.8795 8.09428C57.9359 8.15049 57.9807 8.2173 58.0112 8.29087C58.0418 8.36443 58.0575 8.44331 58.0575 8.52297V9.64547C58.0581 9.76366 58.0933 9.8791 58.1587 9.97753C58.2241 10.076 58.3169 10.1531 58.4257 10.1993C58.5344 10.2456 58.6544 10.259 58.7707 10.2379C58.8869 10.2168 58.9945 10.162 59.08 10.0805C60.6775 8.58047 62.7326 7.91797 65.2226 7.91797C69.8976 7.91797 73.1326 10.538 73.1326 16.168V31.4405C73.1326 31.6017 73.0686 31.7562 72.9546 31.8701C72.8407 31.984 72.6862 32.048 72.5251 32.048H67.7076C67.6279 32.048 67.549 32.0323 67.4755 32.0017C67.4019 31.9712 67.3351 31.9264 67.2789 31.87C67.2227 31.8135 67.1782 31.7465 67.1479 31.6728C67.1176 31.5991 67.1022 31.5202 67.1026 31.4405V18.228C67.1026 14.778 65.7476 12.478 62.9951 12.478C60.59 12.478 58.5375 14.7705 58.5375 18.528V31.4405C58.5385 31.5209 58.5236 31.6008 58.4935 31.6753C58.4634 31.7499 58.4188 31.8177 58.3623 31.875C58.3058 31.9322 58.2385 31.9776 58.1643 32.0086C58.0901 32.0396 58.0105 32.0555 57.93 32.0555Z" fill="#FEFEFE"/>
<path d="M87.0578 12.5003V8.50033C87.0578 8.42067 87.042 8.3418 87.0115 8.26823C86.9809 8.19467 86.9361 8.12786 86.8797 8.07164C86.8232 8.01543 86.7562 7.97092 86.6825 7.94066C86.6088 7.91041 86.5299 7.895 86.4502 7.89533H80.9827C80.9031 7.89533 80.8242 7.8796 80.7506 7.84904C80.6771 7.81848 80.6103 7.7737 80.554 7.71725C80.4978 7.66081 80.4533 7.59381 80.4231 7.52012C80.3928 7.44643 80.3774 7.36749 80.3777 7.28783V1.36531C80.3777 1.20419 80.3137 1.04967 80.1998 0.935746C80.0859 0.821817 79.9313 0.757812 79.7702 0.757812H74.9527C74.7916 0.757812 74.6371 0.821817 74.5231 0.935746C74.4092 1.04967 74.3452 1.20419 74.3452 1.36531V24.0579C74.3452 29.3079 77.5802 32.0579 82.3852 32.0579C83.8743 32.0942 85.3521 31.7925 86.7077 31.1754C86.8127 31.1263 86.9014 31.0482 86.9634 30.9503C87.0255 30.8524 87.0582 30.7388 87.0578 30.6229V26.6529C87.0588 26.5567 87.0368 26.4616 86.9936 26.3757C86.9504 26.2897 86.8872 26.2154 86.8094 26.1588C86.7315 26.1023 86.6413 26.0652 86.5462 26.0507C86.4511 26.0362 86.3539 26.0446 86.2627 26.0754C85.5371 26.3358 84.7712 26.4662 84.0002 26.4604C81.8152 26.4604 80.3777 25.3679 80.3777 22.6554V13.7254C80.3774 13.6457 80.3928 13.5667 80.4231 13.4931C80.4533 13.4194 80.4978 13.3524 80.554 13.2959C80.6103 13.2395 80.6771 13.1947 80.7506 13.1641C80.8242 13.1336 80.9031 13.1178 80.9827 13.1178H86.4502C86.5309 13.1179 86.6107 13.1018 86.6851 13.0707C86.7594 13.0395 86.8268 12.9939 86.8834 12.9364C86.9399 12.8789 86.9845 12.8108 87.0144 12.7359C87.0443 12.661 87.0591 12.581 87.0578 12.5003Z" fill="#FEFEFE"/>
<path d="M93.7377 7.91797H88.8802C88.5447 7.91797 88.2727 8.18995 88.2727 8.52547V31.448C88.2727 31.7835 88.5447 32.0555 88.8802 32.0555H93.7377C94.0732 32.0555 94.3452 31.7835 94.3452 31.448V8.52547C94.3452 8.18995 94.0732 7.91797 93.7377 7.91797Z" fill="#FEFEFE"/>
<path d="M106.395 32.078C100.063 32.078 96.3951 29.178 95.6451 24.403C95.6298 24.3156 95.6338 24.226 95.6567 24.1403C95.6797 24.0546 95.721 23.9749 95.7779 23.9069C95.8348 23.8388 95.9058 23.7839 95.9861 23.7461C96.0664 23.7083 96.1539 23.6885 96.2426 23.688H100.813C100.955 23.6867 101.093 23.7364 101.203 23.8281C101.312 23.9197 101.384 24.0474 101.408 24.188C101.715 26.2955 103.685 27.6105 106.48 27.6105C108.84 27.6105 110.23 26.8605 110.23 25.208C110.23 23.708 109.663 23.1105 107.433 22.673L103.25 21.8955C99.0551 21.1455 96.5201 18.838 96.5201 15.2105C96.5201 10.8855 100.233 7.91797 106.045 7.91797C111.615 7.91797 115.525 10.668 116.268 15.2805C116.283 15.368 116.279 15.4578 116.256 15.5436C116.233 15.6294 116.192 15.7092 116.135 15.7775C116.078 15.8457 116.007 15.9008 115.927 15.9389C115.847 15.977 115.759 15.9971 115.67 15.998H111.065C110.928 15.9988 110.795 15.9526 110.688 15.8671C110.581 15.7815 110.507 15.6618 110.478 15.528C110.08 13.528 108.44 12.373 106.045 12.373C103.818 12.373 102.33 13.158 102.33 14.643C102.33 16.0405 103.293 16.608 105.39 17.003L109.5 17.833C114.045 18.7055 116.36 20.803 116.36 24.168C116.358 29.063 113.038 32.078 106.395 32.078Z" fill="#FEFEFE"/>
<path d="M130.5 32.0773C128.327 32.106 126.23 31.2759 124.665 29.7673C124.58 29.6838 124.473 29.6274 124.356 29.605C124.239 29.5827 124.118 29.5955 124.008 29.6417C123.899 29.688 123.805 29.7657 123.74 29.865C123.674 29.9643 123.64 30.0808 123.64 30.1998V38.6348C123.64 38.7959 123.576 38.9504 123.462 39.0644C123.348 39.1783 123.194 39.2423 123.033 39.2423H118.178C118.017 39.2423 117.862 39.1783 117.748 39.0644C117.634 38.9504 117.57 38.7959 117.57 38.6348V8.52223C117.57 8.44257 117.586 8.3637 117.616 8.29013C117.647 8.21657 117.692 8.14976 117.748 8.09355C117.805 8.03733 117.872 7.99282 117.945 7.96256C118.019 7.93231 118.098 7.91691 118.178 7.91724H122.558C122.718 7.91724 122.872 7.98098 122.986 8.09444C123.099 8.2079 123.163 8.36178 123.163 8.52223V10.0647C123.162 10.1849 123.197 10.3026 123.264 10.4025C123.331 10.5025 123.426 10.5802 123.537 10.6256C123.649 10.671 123.771 10.6821 123.889 10.6575C124.006 10.6328 124.114 10.5735 124.198 10.4872C125.02 9.65528 126.003 8.99861 127.086 8.5569C128.169 8.11518 129.331 7.89759 130.5 7.91724C136.79 7.91724 140.855 13.1123 140.855 19.9723C140.86 26.8773 136.795 32.0773 130.5 32.0773ZM129.145 13.2897C126.173 13.2897 123.683 15.5598 123.683 19.9723C123.683 24.3848 126.183 26.6573 129.145 26.6573C132.108 26.6573 134.608 24.4298 134.608 19.9723C134.613 15.6023 132.12 13.2897 129.15 13.2897H129.145Z" fill="#FEFEFE"/>
<path d="M178.028 31.4479V1.36531C178.028 1.20419 178.092 1.04967 178.206 0.935746C178.32 0.821817 178.474 0.757813 178.635 0.757813H183.5C183.58 0.757812 183.659 0.77354 183.732 0.8041C183.806 0.834661 183.873 0.879454 183.929 0.935898C183.985 0.992343 184.03 1.05933 184.06 1.13302C184.09 1.20671 184.106 1.28565 184.105 1.36531V17.0553C184.105 17.179 184.143 17.2998 184.213 17.4014C184.284 17.5031 184.383 17.5809 184.499 17.6244C184.615 17.6679 184.741 17.675 184.861 17.6448C184.981 17.6146 185.089 17.5485 185.17 17.4554L193.315 8.13533C193.372 8.07 193.443 8.01765 193.522 7.98185C193.601 7.94605 193.686 7.92763 193.773 7.92783H199.153C199.268 7.929 199.381 7.96298 199.478 8.0258C199.574 8.08862 199.651 8.17768 199.699 8.28257C199.747 8.38746 199.764 8.50383 199.749 8.6181C199.733 8.73237 199.685 8.8398 199.61 8.92783L190.313 19.5754C190.216 19.6865 190.162 19.8291 190.162 19.9766C190.162 20.1242 190.216 20.2667 190.313 20.3779L199.845 31.0379C199.924 31.1253 199.975 31.2334 199.993 31.3493C200.011 31.4651 199.995 31.5837 199.947 31.6908C199.899 31.7978 199.822 31.8887 199.723 31.9525C199.625 32.0164 199.51 32.0503 199.393 32.0504H193.3C193.211 32.0505 193.123 32.0309 193.042 31.9928C192.961 31.9548 192.89 31.8993 192.833 31.8304L185.175 22.5804C185.096 22.4842 184.988 22.415 184.868 22.3822C184.747 22.3493 184.619 22.3545 184.502 22.3968C184.384 22.4392 184.283 22.5167 184.211 22.6189C184.139 22.7211 184.1 22.843 184.1 22.9679V31.4379C184.101 31.5176 184.085 31.5965 184.055 31.6702C184.025 31.7439 183.98 31.8109 183.924 31.8673C183.868 31.9238 183.801 31.9685 183.727 31.9991C183.654 32.0297 183.575 32.0454 183.495 32.0454H178.635C178.476 32.0454 178.323 31.9828 178.209 31.871C178.096 31.7592 178.03 31.6073 178.028 31.4479Z" fill="#FEFEFE"/>
<path d="M93.7377 0.757812H88.8802C88.5447 0.757812 88.2727 1.0298 88.2727 1.36531V6.22283C88.2727 6.55835 88.5447 6.83033 88.8802 6.83033H93.7377C94.0732 6.83033 94.3452 6.55835 94.3452 6.22283V1.36531C94.3452 1.0298 94.0732 0.757812 93.7377 0.757812Z" fill="#12AC75"/>
</svg>
