<svg width="582" height="327" viewBox="0 0 582 327" fill="none" xmlns="http://www.w3.org/2000/svg">
<rect width="615.514" height="410.343" transform="translate(-14.3064 -31.0625)" fill="#E7F7F1"/>
<path d="M489.048 338.929C489.048 338.929 526.902 347.903 545.537 307.232C569.712 254.47 535.781 204.345 477.249 200.735C392.83 195.53 439.615 60.7476 306.403 97.3172C268.937 107.6 187.473 54.5189 139.512 144.46C131.357 159.754 106.979 159.005 74.4996 185.095C17.2033 231.12 37.8297 339.419 86.0962 339.91C134.363 340.401 489.048 338.929 489.048 338.929Z" fill="#E7F7F1"/>
<path d="M94.5443 339.713C94.5443 339.713 96.3039 328.183 118.757 325.081C141.21 321.979 162.097 297.106 199.117 300.717C236.137 304.327 266.87 326.976 309.02 320.036C351.169 313.096 377.563 321.941 387.016 328.919C396.47 335.897 435.597 327.282 438.487 340.069L94.5443 339.713Z" fill="#A8D29F"/>
<path d="M186.852 64.9622C186.852 64.9622 161.502 63.7177 174.945 140.958C174.945 140.958 183.988 167.175 172.572 184.073H340.634V64.9622H186.852Z" fill="#AFCDFB"/>
<path d="M204.102 265.767C204.102 265.767 192.361 252.069 203.378 243.367C203.378 243.367 211.426 238.494 217.987 238.891C217.987 238.891 208.69 254.482 211.698 256.034C214.707 257.586 220.806 237.912 220.806 237.912C220.806 237.912 239.118 236.128 245.01 238.969C245.01 238.969 229.354 251.781 232.652 252.544C235.951 253.307 252.86 240.725 252.86 240.725C252.86 240.725 269.902 243.624 268.995 254.023C268.087 264.422 262.213 267.626 259.628 267.354C257.043 267.082 241.948 261.315 241.62 263.429C241.292 265.544 250.38 272.457 256.744 272.78C256.744 272.78 244.729 286.032 236.74 282.207C228.752 278.382 228.074 272.321 223.094 270.046C218.114 267.771 213.866 267.778 215.922 270.097C217.978 272.417 226.988 274.669 229.834 279.705C232.679 284.74 235.235 288.137 226.972 286.895C218.71 285.653 205.282 279.611 204.691 272.68L204.102 265.767Z" fill="#599DAD"/>
<path d="M260.622 254.311C260.622 254.311 214.327 252.527 204.104 265.767C204.104 265.767 201.843 272.538 194.885 278.702L193.801 281.657C193.801 281.657 201.829 273.198 204.693 272.687C204.693 272.68 200.203 256.287 260.622 254.311Z" fill="#599DAD"/>
<path d="M194.879 278.703C194.879 278.703 184.944 286.062 184.252 299.182L186.056 299.343C186.056 299.343 189.23 285.766 194.966 280.458C200.702 275.15 194.879 278.703 194.879 278.703Z" fill="#599DAD"/>
<path d="M163.051 248.54C163.051 248.54 181.722 238.08 173.024 223.886C173.024 223.886 166.05 215.17 158.58 212.929C158.58 212.929 162.565 234.097 158.58 234.595C154.594 235.092 155.83 210.683 155.83 210.683C155.83 210.683 136.156 201.221 128.437 201.968C128.437 201.968 140.638 222.637 136.655 222.14C132.672 221.642 118.973 200.73 118.973 200.73C118.973 200.73 98.8033 196.995 95.5562 208.948C92.3092 220.902 97.5567 226.874 100.545 227.632C103.533 228.391 122.708 228.132 122.211 230.621C121.713 233.109 108.763 237.088 101.542 234.858C101.542 234.858 109.51 254.53 119.969 253.533C130.429 252.536 133.667 246.064 140.141 245.565C146.615 245.065 151.347 246.811 148.109 248.553C144.871 250.295 133.914 249.124 128.685 253.571C123.455 258.018 119.222 260.756 128.935 262.748C138.647 264.739 156.08 263.495 159.565 256.024L163.051 248.54Z" fill="#6BB7BF"/>
<path d="M104.781 212.689C104.781 212.689 157.076 229.625 163.052 248.55C163.052 248.55 162.805 257.024 168.034 266.73V270.45C168.034 270.45 162.555 257.738 159.56 256.005C159.564 256.01 171.268 239.574 104.781 212.689Z" fill="#6BB7BF"/>
<path d="M168.033 266.72C168.033 266.72 176.097 278.965 171.498 293.874L169.424 293.316C169.424 293.316 171.431 276.896 167.219 268.638C163.006 260.38 168.033 266.72 168.033 266.72Z" fill="#6BB7BF"/>
<path d="M192.764 234.115C192.764 234.115 168.144 220.329 179.633 201.618C179.633 201.618 188.826 190.129 198.674 187.174C198.674 187.174 193.422 215.077 198.674 215.733C203.926 216.388 202.285 184.219 202.285 184.219C202.285 184.219 228.219 171.746 238.395 172.729C238.395 172.729 222.309 199.977 227.561 199.319C232.813 198.661 250.868 171.088 250.868 171.088C250.868 171.088 277.458 166.164 281.726 181.922C285.995 197.68 279.099 205.561 275.161 206.542C271.222 207.524 245.946 207.198 246.602 210.481C247.257 213.763 264.327 219.015 273.847 216.056C273.847 216.056 263.343 241.99 249.554 240.677C235.766 239.363 231.49 230.828 222.965 230.173C214.439 229.517 208.195 231.814 212.461 234.111C216.727 236.408 231.171 234.865 238.065 240.726C244.958 246.586 250.54 250.197 237.737 252.822C224.934 255.447 201.957 253.807 197.361 243.959L192.764 234.115Z" fill="#86D1CD"/>
<path d="M269.588 186.846C269.588 186.846 200.653 209.167 192.773 234.124C192.773 234.124 193.101 245.275 186.208 258.087V263.011C186.208 263.011 193.431 246.27 197.359 243.973C197.361 243.964 181.944 222.298 269.588 186.846Z" fill="#6BB7BF"/>
<path d="M186.2 258.079C186.2 258.079 175.569 274.222 181.631 293.874L184.365 293.141C184.365 293.141 181.711 271.495 187.264 260.61C192.817 249.725 186.2 258.079 186.2 258.079Z" fill="#6BB7BF"/>
<path d="M191.936 336.488C218.573 336.488 240.163 314.896 240.163 288.262H143.71C143.71 314.896 165.302 336.488 191.936 336.488Z" fill="#E7F7F1"/>
<path d="M203.8 336.12C201.812 336.367 199.811 336.49 197.807 336.488C171.173 336.488 149.583 314.896 149.583 288.262H161.563C161.568 312.869 179.995 333.17 203.8 336.12Z" fill="#B6E5D4"/>
<path d="M241.259 288.262H142.123V289.74H241.259V288.262Z" fill="#E7F7F1"/>
<path d="M366.448 104.893C366.448 104.893 358 88.9525 370.658 82.8821C370.658 82.8821 379.579 79.8959 385.895 81.7224C385.895 81.7224 373.406 94.8935 375.995 97.0657C378.584 99.2378 388.858 81.3857 388.858 81.3857C388.858 81.3857 407.114 83.6738 412.241 87.7304C412.241 87.7304 394.155 96.7936 397.204 98.261C400.252 99.7284 419.505 91.1714 419.505 91.1714C419.505 91.1714 435.497 97.7436 432.328 107.688C429.159 117.632 422.725 119.474 420.265 118.638C417.805 117.801 404.342 108.865 403.557 110.857C402.772 112.848 410.123 121.586 416.269 123.299C416.269 123.299 401.637 133.591 394.686 128.105C387.734 122.618 388.399 116.557 384.041 113.245C379.684 109.933 375.536 109.008 377.032 111.72C378.529 114.432 386.825 118.611 388.497 124.148C390.17 129.686 391.916 133.562 384.126 130.535C376.336 127.509 364.561 118.662 365.507 111.778L366.448 104.893Z" fill="#599DAD"/>
<path d="M424.1 106.12C424.1 106.12 379.328 94.22 366.447 104.891C366.447 104.891 362.756 111.002 354.614 115.491L352.908 118.131C352.908 118.131 362.591 111.639 365.504 111.771C365.504 111.776 364.723 94.7887 424.1 106.12Z" fill="#599DAD"/>
<path d="M354.614 115.493C354.614 115.493 343.308 120.481 339.753 133.14L341.477 133.693C341.477 133.693 347.552 121.144 354.313 117.223C361.075 113.303 354.614 115.493 354.614 115.493Z" fill="#599DAD"/>
<path d="M310.821 76.1394C310.821 76.1394 285.801 63.0932 296.728 44.0479C296.728 44.0479 305.573 32.2885 315.33 29.0436C315.33 29.0436 310.91 57.0897 316.18 57.5892C321.449 58.0888 318.856 25.9817 318.856 25.9817C318.856 25.9817 344.406 12.7414 354.607 13.4239C354.607 13.4239 339.339 41.1354 344.571 40.3236C349.803 39.5118 367.029 11.4123 367.029 11.4123C367.029 11.4123 393.46 5.69871 398.195 21.3207C402.929 36.9427 396.272 45.0247 392.365 46.1264C388.458 47.2281 363.175 47.6607 363.922 50.9122C364.669 54.1637 381.895 58.9161 391.321 55.6802C391.321 55.6802 381.594 81.9132 367.774 81.0122C353.953 80.1112 349.435 71.7059 340.883 71.3045C332.33 70.9031 326.164 73.3852 330.501 75.5551C334.839 77.725 349.235 75.7491 356.291 81.4025C363.347 87.0558 369.042 90.4992 356.324 93.5054C343.606 96.5116 320.586 95.5548 315.7 85.8471L310.821 76.1394Z" fill="#86D1CD"/>
<path d="M386.195 26.6055C386.195 26.6055 317.954 50.9696 310.817 76.141C310.817 76.141 311.486 87.2916 304.968 100.291L305.115 105.213C305.115 105.213 311.834 88.2639 315.703 85.8487C315.708 85.8487 299.642 64.6514 386.195 26.6055Z" fill="#6BB7BF"/>
<path d="M304.972 100.292C304.972 100.292 294.827 116.744 301.47 136.197L304.182 135.383C304.182 135.383 300.884 113.827 306.118 102.778C311.352 91.7305 304.972 100.292 304.972 100.292Z" fill="#6BB7BF"/>
<path d="M372.959 110.68H197.497V339.506H372.959V110.68Z" fill="#9ABCEF"/>
<path d="M375.75 110.68H203.236V339.506H375.75V110.68Z" fill="#E9F3FE"/>
<path d="M497.388 338.943H462.624C460.762 337.364 463.913 333.776 467.207 333.535C468.637 333.426 470.448 333.724 472.513 334.162C472.992 327.808 475.724 299.245 486.018 300.393C497.595 301.678 486.018 312.971 482.747 319.657C480.323 324.61 477.765 331.713 476.596 335.065C477.537 335.268 478.51 335.468 479.495 335.651C481.03 330.939 486.739 315.092 493.991 316.026C502.517 317.108 499.089 323.461 493.048 327.233C488.614 330.007 483.173 333.947 480.586 335.852C482.83 336.244 485.106 336.427 487.383 336.398C493.356 336.238 496.261 338 497.388 338.943Z" fill="#A8D29F"/>
<path d="M375.742 110.674H203.233C204.187 97.6303 202.751 88.15 200.445 81.3437C196.023 68.2462 188.402 64.959 188.402 64.959H351.099C364.984 64.959 375.751 73.3242 378.681 84.428C378.79 84.8472 378.893 85.262 378.982 85.6768C381.763 98.3841 375.862 110.442 375.742 110.674Z" fill="#E9F3FE"/>
<path d="M375.742 110.674H203.233C204.187 97.6303 202.751 88.1501 200.445 81.3438C218.077 84.573 261.74 91.4507 308.479 90.2932C338.715 89.5417 362.609 87.519 378.978 85.6769C381.763 98.3841 375.862 110.442 375.742 110.674Z" fill="#D8E8FD"/>
<path d="M330.176 159.152H238.692C237.748 159.152 236.984 159.917 236.984 160.861V161.735C236.984 162.678 237.748 163.443 238.692 163.443H330.176C331.119 163.443 331.884 162.678 331.884 161.735V160.861C331.884 159.917 331.119 159.152 330.176 159.152Z" fill="#BBD5FC"/>
<path d="M294.771 166.373H238.331C237.587 166.373 236.984 166.976 236.984 167.72V169.317C236.984 170.061 237.587 170.664 238.331 170.664H294.771C295.515 170.664 296.118 170.061 296.118 169.317V167.72C296.118 166.976 295.515 166.373 294.771 166.373Z" fill="#BBD5FC"/>
<path d="M228.171 169.966V161.202H227.016C226.314 161.202 225.963 160.91 225.963 160.325C225.963 159.903 226.238 159.606 226.788 159.433C227.225 159.314 227.674 159.244 228.126 159.224C228.74 159.176 229.234 159.152 229.607 159.152C229.968 159.152 230.198 159.226 230.292 159.375C230.386 159.525 230.432 159.893 230.432 160.49V169.973H231.623C232.395 169.973 232.781 170.307 232.781 170.972C232.781 171.675 232.395 172.026 231.623 172.025H226.82C226.513 172.035 226.213 171.939 225.97 171.753C225.857 171.661 225.767 171.545 225.708 171.412C225.648 171.28 225.621 171.135 225.629 170.99C225.629 170.312 226.02 169.973 226.802 169.973L228.171 169.966Z" fill="#BBD5FC"/>
<path d="M330.176 204.346H238.692C237.748 204.346 236.984 205.111 236.984 206.054V206.928C236.984 207.872 237.748 208.636 238.692 208.636H330.176C331.119 208.636 331.884 207.872 331.884 206.928V206.054C331.884 205.111 331.119 204.346 330.176 204.346Z" fill="#D2E4FD"/>
<path d="M294.771 211.562H238.331C237.587 211.562 236.984 212.166 236.984 212.91V214.506C236.984 215.25 237.587 215.853 238.331 215.853H294.771C295.515 215.853 296.118 215.25 296.118 214.506V212.91C296.118 212.166 295.515 211.562 294.771 211.562Z" fill="#D2E4FD"/>
<path d="M232.963 214.981C232.963 215.565 232.555 215.858 231.739 215.858H226.659C225.926 215.858 225.558 215.56 225.557 214.965C225.581 214.722 225.684 214.493 225.851 214.314C226.141 213.984 226.565 213.488 227.122 212.827C227.97 211.764 228.678 210.844 229.245 210.068C229.442 209.812 229.721 209.42 230.082 208.891C230.34 208.489 230.494 208.029 230.528 207.553C230.534 207.369 230.503 207.185 230.436 207.014C230.37 206.842 230.27 206.686 230.142 206.553C230.013 206.423 229.858 206.321 229.687 206.253C229.516 206.185 229.333 206.153 229.15 206.159C228.774 206.152 228.41 206.284 228.126 206.529C227.882 206.786 227.721 207.11 227.662 207.459C227.586 207.805 227.493 208.146 227.383 208.483C227.324 208.633 227.219 208.762 227.083 208.85C226.947 208.939 226.787 208.983 226.625 208.978C226.485 208.984 226.346 208.956 226.219 208.896C226.092 208.837 225.981 208.748 225.896 208.636C225.723 208.417 225.635 208.142 225.648 207.863C225.65 207.49 225.707 207.119 225.818 206.763C226.03 206.018 226.496 205.371 227.136 204.934C227.786 204.516 228.547 204.306 229.319 204.33C230.185 204.303 231.027 204.608 231.674 205.184C231.993 205.473 232.245 205.828 232.414 206.225C232.583 206.621 232.663 207.049 232.651 207.479C232.628 208.245 232.385 208.989 231.953 209.622C231.696 210.025 231.164 210.739 230.358 211.763C229.946 212.291 229.296 213.056 228.407 214.06H231.752C232.559 214.07 232.963 214.377 232.963 214.981Z" fill="#D2E4FD"/>
<path d="M330.176 242.043H238.692C237.748 242.043 236.984 242.808 236.984 243.751V244.625C236.984 245.569 237.748 246.334 238.692 246.334H330.176C331.119 246.334 331.884 245.569 331.884 244.625V243.751C331.884 242.808 331.119 242.043 330.176 242.043Z" fill="#D2E4FD"/>
<path d="M294.771 249.264H238.331C237.587 249.264 236.984 249.867 236.984 250.611V252.207C236.984 252.951 237.587 253.554 238.331 253.554H294.771C295.515 253.554 296.118 252.951 296.118 252.207V250.611C296.118 249.867 295.515 249.264 294.771 249.264Z" fill="#D2E4FD"/>
<path d="M232.963 249.96C232.982 250.459 232.888 250.956 232.688 251.414C232.488 251.872 232.187 252.279 231.808 252.605C231.034 253.254 230.046 253.593 229.036 253.555C228.252 253.578 227.479 253.363 226.819 252.937C225.847 252.283 225.361 251.496 225.361 250.578C225.356 250.327 225.447 250.084 225.615 249.897C225.696 249.805 225.796 249.731 225.908 249.682C226.02 249.633 226.142 249.609 226.264 249.612C226.539 249.612 226.797 249.797 227.04 250.165C227.249 250.515 227.477 250.854 227.723 251.18C227.894 251.361 228.102 251.505 228.332 251.6C228.563 251.695 228.811 251.741 229.061 251.733C229.801 251.733 230.327 251.458 230.644 250.91C230.804 250.585 230.88 250.226 230.867 249.864C230.867 248.831 230.26 248.256 229.045 248.14C228.358 248.076 228.015 247.785 228.015 247.268C228.012 247.087 228.07 246.909 228.178 246.764C228.286 246.618 228.438 246.511 228.613 246.461C229.357 246.186 229.728 246.044 229.745 246.033C230.145 245.769 230.345 245.31 230.343 244.654C230.352 244.485 230.326 244.315 230.266 244.156C230.207 243.997 230.115 243.851 229.997 243.729C229.873 243.612 229.726 243.522 229.566 243.464C229.406 243.405 229.236 243.379 229.065 243.388C228.657 243.363 228.254 243.487 227.93 243.735C227.647 244.021 227.446 244.377 227.346 244.766C227.307 244.928 227.214 245.071 227.081 245.172C226.949 245.273 226.785 245.325 226.619 245.319C226.496 245.32 226.374 245.29 226.265 245.232C226.157 245.174 226.064 245.09 225.997 244.987C225.837 244.778 225.751 244.522 225.751 244.26C225.756 243.914 225.849 243.575 226.021 243.276C226.329 242.716 226.805 242.268 227.381 241.994C227.951 241.707 228.581 241.561 229.219 241.568C230.039 241.543 230.838 241.835 231.449 242.382C231.744 242.653 231.977 242.986 232.131 243.356C232.285 243.727 232.357 244.126 232.341 244.527C232.353 245.029 232.236 245.525 232.002 245.969C231.768 246.413 231.424 246.789 231.003 247.063C232.31 247.58 232.963 248.546 232.963 249.96Z" fill="#D2E4FD"/>
<path d="M262.531 120.893H319.521C319.995 120.893 320.448 121.081 320.783 121.415C321.118 121.75 321.306 122.204 321.306 122.677V124.115C321.306 124.588 321.118 125.042 320.783 125.377C320.448 125.711 319.995 125.899 319.521 125.899H262.531C262.058 125.899 261.604 125.711 261.269 125.377C260.935 125.042 260.747 124.588 260.747 124.115V122.677C260.747 122.204 260.935 121.75 261.269 121.415C261.604 121.081 262.058 120.893 262.531 120.893Z" fill="#BBD5FC"/>
<path d="M247.669 128.578H334.383C334.96 128.578 335.513 128.807 335.92 129.215C336.328 129.623 336.557 130.176 336.557 130.753V131.386C336.557 131.963 336.328 132.516 335.92 132.924C335.513 133.331 334.96 133.56 334.383 133.56H247.669C247.092 133.56 246.538 133.331 246.13 132.923C245.722 132.515 245.492 131.961 245.492 131.384V130.751C245.492 130.174 245.722 129.621 246.129 129.213C246.537 128.805 247.09 128.576 247.667 128.576L247.669 128.578Z" fill="#BBD5FC"/>
<path d="M284.341 186.583C265.547 186.583 247.713 184.226 234.419 180.854C220.987 177.448 213.75 171.884 213.75 166.947C213.75 162.473 219.647 158.356 230.804 155.047C220.113 158.22 214.395 162.879 214.395 166.947C214.395 171.46 221.806 175.93 234.727 179.212C247.976 182.573 265.594 184.422 284.341 184.422C303.087 184.422 320.705 182.573 333.952 179.212C346.873 175.939 354.284 171.469 354.284 166.947C354.284 162.165 346.479 156.224 333.918 151.443C319.646 146.004 302.028 143.985 284.341 143.985C251.132 143.985 237.463 147.861 225.601 152.721C237.515 147.841 251.025 142.311 284.341 142.311C302.099 142.311 319.782 145.321 334.133 150.785C346.96 155.669 354.928 161.862 354.928 166.947C354.928 171.884 347.531 176.478 334.099 179.881C320.805 183.253 303.134 186.583 284.341 186.583Z" fill="#C65447"/>
<path d="M398.463 230.639C398.463 230.639 397.844 236.661 397.166 237.793C396.488 238.926 393.597 242.568 392.364 243.282C391.131 243.995 393.116 238.491 392.866 237.419C392.616 236.346 391.851 239.375 391.305 239.446C390.758 239.517 390.901 236.792 390.881 235.802C390.861 234.812 393.522 232.363 394.449 230.253C395.377 228.144 398.463 230.639 398.463 230.639Z" fill="#FFB27D"/>
<path d="M324.547 175.15L323.164 172.541C323.164 172.541 323.851 167.891 318.035 164.959C318.035 164.959 315.905 164.091 314.703 165.829C313.588 167.428 316.813 167.138 316.641 169.874C316.469 172.61 317.756 174.216 319.574 175.106L321.068 176.839L324.547 175.15Z" fill="#FFB27D"/>
<path d="M379.596 168.913C379.596 168.913 374.594 193.464 347.068 201.488C338.473 203.993 318.952 175.701 318.952 175.701C318.952 175.701 319.637 173.092 323.937 173.694C323.937 173.694 342.946 186.279 345.346 187.646C347.469 188.859 361.434 172.053 367.799 169.341C374.164 166.629 379.596 168.913 379.596 168.913Z" fill="#E58638"/>
<path d="M306.338 164.075L305.557 169.158L331.12 173.084L331.901 168.001L306.338 164.075Z" fill="#C65447"/>
<path d="M300.012 165.714L305.565 169.168L306.346 164.086L300.012 165.714Z" fill="#FFB27D"/>
<path d="M334.622 170.153L334.375 171.761C334.302 172.235 334.043 172.661 333.656 172.945C333.269 173.229 332.784 173.348 332.31 173.275L331.128 173.094L331.908 168.012L333.195 168.208C333.642 168.277 334.043 168.521 334.311 168.885C334.578 169.25 334.69 169.706 334.622 170.153Z" fill="#FFB27D"/>
<path d="M412.461 323.258C412.461 323.258 415.875 326.38 415.211 328.588C414.546 330.795 411.462 332.278 411.045 334.984C410.628 337.689 408.964 339.167 407.463 339.167H400.327C400.327 339.167 399.212 337.263 401.888 336.69C404.564 336.116 405.559 332.934 405.394 329.981C405.229 327.029 405.643 323.093 405.643 323.093L411.306 321.781L412.461 323.258Z" fill="#12AC75"/>
<path d="M370.566 331.318C370.566 331.318 371.177 338.41 369.674 339.148L350.495 339.11C350.495 339.11 350.495 336.895 353.575 336.403C356.654 335.91 362.071 334.106 362.988 330.087C363.905 326.068 370.566 331.318 370.566 331.318Z" fill="#12AC75"/>
<path d="M354.366 231.126C354.366 231.126 355.379 243.559 356.567 258.503C358.184 278.797 360.136 303.741 360.321 308.457C360.653 316.662 361.987 329.784 361.987 329.784C361.987 329.784 365.151 332.906 371.482 331.586C371.482 331.586 377.125 312.853 378.737 293.036C378.762 292.713 378.786 292.385 378.811 292.057C380.311 271.881 382.642 229.391 382.642 229.391L354.366 231.126Z" fill="#41BD91"/>
<path d="M354.366 231.127C354.366 231.127 355.379 243.56 356.567 258.504L378.737 293.044C378.762 292.721 378.786 292.393 378.811 292.065C380.311 271.889 382.642 229.398 382.642 229.398L354.366 231.127Z" fill="#12AC75"/>
<path d="M358.988 232.604C358.988 232.604 377.23 277.63 389.224 298.79C401.217 319.949 404.957 325.855 404.957 325.855C404.957 325.855 411.828 323.15 412.453 321.303C412.453 321.303 407.865 280.454 399.835 270.496C395.296 264.87 389.964 247.972 389.714 242.078C389.465 236.184 388.091 224.484 388.091 224.484L358.988 232.604Z" fill="#41BD91"/>
<path d="M382.988 163.214C382.988 163.214 370.646 169.169 363.53 166.961C364.883 165.389 366.517 164.083 368.347 163.107C368.099 161.678 367.901 160.431 367.798 159.387C367.628 158.13 367.527 156.864 367.497 155.596L372.258 151.849L376.774 148.266C376.411 158.337 382.988 163.214 382.988 163.214Z" fill="#FFB27D"/>
<path d="M389.491 226.791C389.52 227.544 387.905 228.407 387.194 228.731C381.911 231.048 376.985 232.665 371.403 233.191C364.808 233.86 357.007 232.384 354.327 232.437C354.052 232.432 353.79 232.327 353.588 232.141C353.397 232.007 353.258 224.056 353.397 214.061C353.397 213.655 353.397 213.251 353.423 212.848V212.712C353.479 208.805 353.615 204.71 353.807 200.613C354.19 191.613 354.9 182.937 356.104 178.14C357.556 172.483 360.839 168.736 363.822 166.015L366.276 163.859C368.74 164.345 371.338 164.209 373.938 162.942C376.784 161.568 379.85 160.085 380.343 160.464C384.065 163.185 386.587 169.302 387.926 177.117C388.72 182.016 389.093 186.973 389.041 191.936C389.041 193.876 388.985 195.872 388.876 197.839C388.22 208.508 388.876 217.779 389.259 223.14C389.382 224.714 389.464 225.927 389.491 226.791Z" fill="#EE9849"/>
<path d="M389.273 226.295C346.055 226.208 381.302 179.398 381.302 179.398L388.305 177.123C388.882 182.381 389.152 187.668 389.114 192.957C389.114 195.029 389.077 197.161 388.996 199.261C388.521 210.669 388.996 220.573 389.273 226.295Z" fill="#E58638"/>
<path d="M376.858 152.113C376.858 152.113 373.736 157.797 367.799 159.387C367.629 158.13 367.528 156.865 367.498 155.596L372.26 151.85L376.858 152.113Z" fill="#ED985F"/>
<path d="M365.328 155.425C365.328 155.425 377.101 157.352 378.207 150.113C379.313 142.874 381.577 138.248 374.106 136.712C366.635 135.175 364.74 137.722 363.783 140.057C362.826 142.392 362.293 154.738 365.328 155.425Z" fill="#FFB27D"/>
<path d="M382.486 135.847C382.593 135.724 382.838 135.624 383.378 135.595C383.065 135.417 382.714 135.317 382.354 135.305C382.238 134.542 381.832 133.193 380.519 132.865C380.733 132.99 380.916 133.161 381.054 133.367C381.192 133.572 381.282 133.806 381.317 134.051C379.796 132.49 376.538 131.353 367.515 132.064C355.624 133.003 359.542 140.617 361.081 141.525C362.62 142.432 366.496 139.946 369.366 140.173C372.236 140.401 372.778 144.544 373.752 145.113C374.727 145.682 374.341 144.667 375.659 144.083C376.977 143.498 377.1 145.668 376.721 147.087C376.342 148.505 378.148 150.376 378.148 150.376L379.977 148.407C381.805 146.438 383.529 138.099 382.697 136.322L382.486 135.847Z" fill="#2E2E2E"/>
<path d="M380.345 160.416C380.345 160.416 387.795 163.944 391.366 169.366C396.908 177.778 403.33 208.437 403.449 211.276C403.567 214.115 398.765 234.157 398.765 234.157C398.765 234.157 393.89 233.836 392.633 231.376C392.633 231.376 393.607 210.783 392.989 209.459C392.372 208.134 372.669 181.834 374.885 176.23C377.102 170.626 380.345 160.416 380.345 160.416Z" fill="#EE9849"/>
<path d="M323.141 172.417C323.141 172.417 323.544 170.818 322.434 170.098C321.323 169.377 320.304 167.421 319.836 167.689C318.865 168.238 320.366 169.944 320.092 172.073C319.989 172.818 321.731 174.779 323.141 172.417Z" fill="#FFB27D"/>
<path d="M142.124 323.959C142.124 323.959 124.631 279.147 112.365 286.284C100.099 293.42 142.124 323.959 142.124 323.959Z" fill="#A8D29F"/>
<path d="M133.472 323.961C133.472 323.961 110.354 303.984 99.797 307.681C89.2396 311.379 133.472 323.961 133.472 323.961Z" fill="#A8D29F"/>
<path d="M378.244 330.414C378.244 330.414 383.571 311.89 389.82 314.076C396.069 316.261 378.244 330.414 378.244 330.414Z" fill="#A8D29F"/>
<path d="M383.102 329.403C383.102 329.403 396.706 320.482 399.689 323.234C402.673 325.986 383.102 329.403 383.102 329.403Z" fill="#A8D29F"/>
<path d="M336.632 289.74H230.561C230.218 289.74 229.89 289.604 229.648 289.362C229.406 289.12 229.27 288.791 229.269 288.449C229.27 288.107 229.407 287.78 229.649 287.538C229.891 287.297 230.219 287.161 230.561 287.16H336.641C336.983 287.161 337.31 287.297 337.552 287.538C337.794 287.78 337.931 288.107 337.932 288.449C337.931 288.619 337.897 288.788 337.832 288.945C337.766 289.102 337.67 289.244 337.549 289.364C337.429 289.484 337.285 289.579 337.128 289.643C336.971 289.708 336.802 289.741 336.632 289.74Z" fill="#D2E4FD"/>
<path d="M336.632 294.908H230.561C230.218 294.908 229.89 294.772 229.648 294.53C229.406 294.288 229.27 293.959 229.269 293.617C229.27 293.275 229.407 292.948 229.649 292.706C229.891 292.465 230.219 292.329 230.561 292.328H336.641C336.983 292.329 337.31 292.465 337.552 292.706C337.794 292.948 337.931 293.275 337.932 293.617C337.931 293.787 337.897 293.956 337.832 294.113C337.766 294.27 337.67 294.412 337.549 294.532C337.429 294.652 337.285 294.747 337.128 294.811C336.971 294.876 336.802 294.909 336.632 294.908Z" fill="#D2E4FD"/>
<path d="M336.632 300.635H230.561C230.218 300.635 229.89 300.498 229.648 300.256C229.406 300.014 229.27 299.686 229.269 299.344C229.27 299.002 229.407 298.674 229.649 298.432C229.891 298.19 230.218 298.054 230.561 298.053H336.641C336.983 298.054 337.311 298.19 337.553 298.432C337.794 298.674 337.931 299.002 337.932 299.344C337.931 299.514 337.897 299.682 337.832 299.839C337.766 299.996 337.67 300.139 337.549 300.259C337.429 300.379 337.285 300.474 337.128 300.538C336.971 300.603 336.802 300.636 336.632 300.635Z" fill="#D2E4FD"/>
<path d="M322.707 303.779H230.465C229.8 303.779 229.26 304.318 229.26 304.984V305.158C229.26 305.823 229.8 306.362 230.465 306.362H322.707C323.372 306.362 323.911 305.823 323.911 305.158V304.984C323.911 304.318 323.372 303.779 322.707 303.779Z" fill="#D2E4FD"/>
</svg>
