<svg width="582" height="327" viewBox="0 0 582 327" fill="none" xmlns="http://www.w3.org/2000/svg">
<path d="M53.2329 116.61C54.1312 116.074 55.1595 115.794 56.2058 115.801C57.2521 115.808 58.2764 116.102 59.1673 116.651C59.6659 116.953 60.1727 117.24 60.6877 117.517C61.2027 117.795 61.734 118.065 62.2653 118.335C63.209 118.772 64.0137 119.461 64.5906 120.327C65.1676 121.192 65.4943 122.2 65.535 123.239L65.7638 130.531L89.5261 129.795L89.2972 122.504C89.2705 121.457 89.5354 120.423 90.0623 119.518C90.5891 118.613 91.3573 117.872 92.2808 117.378C93.32 116.814 94.327 116.191 95.2971 115.515C96.1511 114.915 97.1538 114.563 98.1951 114.497C99.2363 114.431 100.276 114.653 101.199 115.139L107.607 118.58L118.847 97.6215L112.43 94.1802C111.515 93.6823 110.755 92.9406 110.236 92.0374C109.716 91.1342 109.457 90.1047 109.487 89.0632C109.512 87.882 109.471 86.7004 109.365 85.5238C109.272 84.4804 109.468 83.4316 109.931 82.4918C110.394 81.552 111.105 80.7573 111.989 80.1942L118.185 76.3524L105.686 56.1213L99.4577 59.9877C98.5654 60.5254 97.5416 60.8054 96.4999 60.7968C95.4582 60.7881 94.4392 60.4911 93.556 59.9387C93.0573 59.6444 92.5505 59.3501 92.0356 59.0722C91.5206 58.7943 90.9975 58.5327 90.4661 58.2548C89.523 57.8168 88.7188 57.1273 88.142 56.2621C87.5651 55.3969 87.238 54.3894 87.1965 53.3503L86.9758 46.0508L63.2135 46.7946L63.4424 54.0696C63.4708 55.1159 63.2075 56.1494 62.6821 57.0545C62.1566 57.9596 61.3896 58.7007 60.467 59.1948C59.426 59.7642 58.4164 60.389 57.4425 61.0667C56.5904 61.6704 55.5872 62.0252 54.545 62.0916C53.5028 62.158 52.4627 61.9334 51.5408 61.4427L45.0832 58.0341L33.8438 78.9763L40.2605 82.4176C41.1786 82.9171 41.9403 83.6612 42.4612 84.5673C42.9821 85.4735 43.2417 86.5062 43.2113 87.551C43.184 88.7347 43.2222 89.9191 43.3258 91.0986C43.4284 92.1466 43.2374 93.2025 42.774 94.1481C42.3105 95.0937 41.5931 95.8917 40.7019 96.4526L34.514 100.286L47.045 120.485L53.2329 116.61ZM59.1918 79.0907C61.0097 75.6956 63.7936 72.9158 67.1914 71.1029C70.5892 69.29 74.4483 68.5254 78.2806 68.9059C82.113 69.2864 85.7464 70.7948 88.7214 73.2404C91.6965 75.686 93.8794 78.9589 94.9942 82.6452C96.109 86.3315 96.1056 90.2657 94.9844 93.95C93.8632 97.6344 91.6746 100.904 88.6954 103.344C85.7161 105.784 82.0801 107.287 78.2471 107.66C74.4141 108.034 70.5563 107.263 67.1616 105.444C62.6138 103.003 59.2204 98.8566 57.7262 93.9158C56.232 88.975 56.7591 83.6433 59.1918 79.0907Z" stroke="#EBEBEB" stroke-width="1.04" stroke-miterlimit="10"/>
<path d="M527.849 299.802C528.275 299.079 528.893 298.489 529.635 298.098C530.377 297.706 531.213 297.529 532.05 297.586C532.508 297.586 532.982 297.586 533.448 297.586C533.914 297.586 534.388 297.586 534.862 297.586C535.694 297.531 536.526 297.709 537.263 298.098C538.001 298.488 538.616 299.075 539.039 299.793L541.949 304.894L558.428 295.388L555.51 290.328C555.096 289.6 554.892 288.771 554.921 287.934C554.95 287.097 555.211 286.285 555.673 285.587C556.194 284.797 556.669 283.979 557.096 283.135C557.47 282.387 558.044 281.758 558.754 281.316C559.463 280.875 560.282 280.638 561.118 280.633H566.938V261.571H561.118C560.282 261.566 559.463 261.33 558.754 260.888C558.044 260.447 557.47 259.817 557.096 259.07C556.669 258.226 556.194 257.407 555.673 256.618C555.21 255.92 554.949 255.107 554.92 254.27C554.891 253.433 555.095 252.604 555.51 251.877L558.428 246.825L541.949 237.318L539.015 242.395C538.591 243.113 537.976 243.699 537.239 244.088C536.501 244.476 535.669 244.651 534.838 244.593C534.372 244.593 533.906 244.593 533.44 244.593C532.974 244.593 532.5 244.593 532.042 244.593C531.205 244.65 530.369 244.473 529.627 244.082C528.885 243.691 528.266 243.101 527.84 242.378L524.931 237.318L508.435 246.858L511.345 251.893C511.761 252.62 511.967 253.448 511.939 254.285C511.912 255.123 511.652 255.936 511.19 256.634C510.67 257.424 510.196 258.243 509.767 259.086C509.393 259.834 508.819 260.463 508.11 260.904C507.4 261.346 506.582 261.582 505.746 261.587H499.926V280.609H505.746C506.582 280.614 507.4 280.85 508.11 281.292C508.819 281.733 509.393 282.363 509.767 283.11C510.196 283.953 510.67 284.772 511.19 285.562C511.652 286.261 511.912 287.074 511.939 287.911C511.967 288.748 511.761 289.576 511.345 290.303L508.435 295.347L524.939 304.894L527.849 299.802ZM517.86 271.094C517.858 268.013 518.77 265 520.481 262.437C522.192 259.874 524.624 257.876 527.47 256.695C530.316 255.514 533.449 255.204 536.471 255.804C539.494 256.403 542.271 257.886 544.451 260.063C546.631 262.241 548.116 265.016 548.719 268.038C549.322 271.06 549.015 274.193 547.837 277.04C546.659 279.888 544.664 282.322 542.102 284.036C539.541 285.749 536.529 286.664 533.448 286.666C529.317 286.664 525.356 285.023 522.434 282.104C519.511 279.184 517.866 275.225 517.86 271.094Z" fill="#EBEBEB"/>
<path d="M14.5846 140.005C14.9825 140.241 15.3071 140.584 15.5221 140.993C15.7371 141.403 15.8342 141.865 15.8026 142.327C15.8026 142.58 15.8026 142.842 15.8026 143.103C15.8026 143.365 15.8026 143.626 15.8026 143.921C15.8384 144.382 15.7431 144.844 15.5276 145.253C15.3121 145.662 14.9852 146.002 14.5846 146.234L11.7891 147.869L17.045 156.942L19.8406 155.307C20.2436 155.078 20.7021 154.966 21.1653 154.982C21.6284 154.997 22.0781 155.141 22.4645 155.397C22.9009 155.695 23.3539 155.968 23.8214 156.214C24.234 156.422 24.5813 156.739 24.825 157.132C25.0687 157.524 25.1995 157.976 25.2029 158.438V161.658H35.723V158.438C35.7264 157.976 35.8571 157.524 36.1009 157.132C36.3446 156.739 36.6919 156.422 37.1044 156.214C37.5719 155.968 38.025 155.695 38.4613 155.397C38.8478 155.141 39.2975 154.997 39.7606 154.982C40.2237 154.966 40.6822 155.078 41.0852 155.307L43.8808 156.942L49.1368 147.836L46.3331 146.201C45.9285 145.968 45.599 145.624 45.3832 145.21C45.1675 144.796 45.0745 144.328 45.1151 143.863C45.1151 143.61 45.1151 143.348 45.1151 143.095C45.1151 142.842 45.1151 142.572 45.1151 142.318C45.0833 141.856 45.1812 141.393 45.3978 140.983C45.6144 140.573 45.9412 140.232 46.3412 139.997L49.1368 138.362L43.8808 129.248L41.0934 130.883C40.6904 131.111 40.2319 131.224 39.7688 131.208C39.3056 131.192 38.8559 131.049 38.4695 130.793C38.0331 130.495 37.5801 130.222 37.1126 129.975C36.6991 129.768 36.3507 129.451 36.1055 129.059C35.8604 128.667 35.728 128.214 35.723 127.752V124.572H25.2029V127.793C25.1995 128.255 25.0687 128.707 24.825 129.099C24.5813 129.491 24.234 129.809 23.8214 130.016C23.3513 130.263 22.8956 130.536 22.4563 130.834C22.0699 131.089 21.6202 131.233 21.1571 131.249C20.6939 131.265 20.2355 131.152 19.8324 130.924L17.045 129.289L11.7891 138.403L14.5846 140.005ZM30.4588 134.479C32.1625 134.479 33.8279 134.984 35.2445 135.931C36.6612 136.877 37.7655 138.222 38.4178 139.796C39.0701 141.37 39.2412 143.102 38.9095 144.773C38.5777 146.444 37.7579 147.979 36.5538 149.184C35.3498 150.389 33.8154 151.211 32.1447 151.544C30.4739 151.877 28.7419 151.708 27.1675 151.057C25.593 150.406 24.2469 149.303 23.2992 147.887C22.3516 146.472 21.8449 144.807 21.8433 143.103C21.8433 140.817 22.7507 138.625 24.3662 137.008C25.9817 135.391 28.1731 134.482 30.4588 134.479Z" fill="#EBEBEB"/>
<path d="M472.6 331.329C472.999 331.565 473.325 331.907 473.541 332.317C473.758 332.727 473.856 333.188 473.826 333.651C473.826 333.912 473.826 334.166 473.826 334.427C473.826 334.689 473.826 334.95 473.826 335.204C473.862 335.665 473.767 336.127 473.551 336.536C473.336 336.946 473.009 337.286 472.608 337.517L469.805 339.152L475.061 348.217L477.864 346.582C478.267 346.355 478.724 346.243 479.186 346.26C479.648 346.278 480.096 346.423 480.48 346.68C480.918 346.977 481.371 347.249 481.837 347.498C482.254 347.7 482.605 348.016 482.849 348.41C483.094 348.803 483.222 349.258 483.219 349.721V352.942H493.722V349.721C493.719 349.258 493.847 348.803 494.092 348.41C494.336 348.016 494.687 347.7 495.104 347.498C495.57 347.249 496.023 346.977 496.461 346.68C496.846 346.423 497.296 346.278 497.759 346.261C498.222 346.243 498.681 346.355 499.085 346.582L501.88 348.217L507.136 339.103L504.324 337.468C503.925 337.237 503.599 336.899 503.383 336.491C503.168 336.083 503.072 335.623 503.106 335.163C503.106 334.901 503.106 334.648 503.106 334.386C503.106 334.125 503.106 333.871 503.106 333.61C503.076 333.147 503.175 332.686 503.391 332.276C503.608 331.866 503.934 331.524 504.332 331.288L507.136 329.654L501.896 320.605L499.101 322.24C498.701 322.473 498.243 322.589 497.78 322.573C497.317 322.557 496.868 322.41 496.485 322.15C496.045 321.853 495.589 321.581 495.12 321.332C494.702 321.133 494.348 320.819 494.101 320.427C493.853 320.035 493.722 319.581 493.722 319.117V315.896H483.219V319.117C483.222 319.58 483.094 320.035 482.849 320.429C482.605 320.822 482.254 321.138 481.837 321.34C481.368 321.589 480.912 321.862 480.472 322.158C480.089 322.418 479.64 322.565 479.177 322.581C478.714 322.597 478.256 322.481 477.856 322.248L475.061 320.613L469.805 329.727L472.6 331.329ZM488.483 325.804C490.189 325.802 491.857 326.306 493.276 327.253C494.695 328.2 495.802 329.546 496.456 331.121C497.11 332.697 497.282 334.431 496.95 336.105C496.618 337.778 495.797 339.315 494.592 340.522C493.386 341.729 491.849 342.551 490.176 342.885C488.503 343.218 486.769 343.048 485.193 342.395C483.616 341.743 482.269 340.638 481.321 339.219C480.373 337.801 479.867 336.133 479.867 334.427C479.867 332.142 480.775 329.949 482.39 328.332C484.006 326.715 486.197 325.806 488.483 325.804Z" stroke="#EBEBEB" stroke-width="1.04" stroke-miterlimit="10"/>
<path d="M343.374 25.927C343.771 26.1643 344.096 26.5064 344.312 26.9159C344.528 27.3253 344.628 27.7862 344.6 28.2484C344.6 28.5018 344.6 28.7634 344.6 29.025C344.6 29.2865 344.6 29.5399 344.6 29.8424C344.626 30.3032 344.526 30.7625 344.31 31.1703C344.094 31.5781 343.77 31.9189 343.374 32.1557L340.578 33.7905L345.834 42.8965L348.63 41.2617C349.033 41.0329 349.491 40.9202 349.954 40.9361C350.417 40.952 350.867 41.0958 351.254 41.3516C351.691 41.6478 352.144 41.9207 352.61 42.169C353.023 42.3766 353.37 42.694 353.614 43.0863C353.858 43.4786 353.989 43.9305 353.992 44.3924V47.613H364.52V44.327C364.524 43.8662 364.654 43.4152 364.896 43.0232C365.138 42.6311 365.483 42.313 365.893 42.1036C366.362 41.8589 366.815 41.5859 367.25 41.2862C367.637 41.0304 368.087 40.8866 368.55 40.8707C369.013 40.8548 369.471 40.9675 369.874 41.1963L372.67 42.8311L377.934 33.7251L375.122 32.0903C374.722 31.8588 374.395 31.5188 374.179 31.1095C373.964 30.7001 373.868 30.2382 373.904 29.777C373.904 29.5236 373.904 29.262 373.904 29.0086C373.904 28.7552 373.904 28.4855 373.904 28.2321C373.872 27.7694 373.97 27.307 374.187 26.8969C374.404 26.4868 374.73 26.1452 375.13 25.9106L377.934 24.2758L372.67 15.2025L369.882 16.8373C369.479 17.066 369.021 17.1787 368.558 17.1628C368.095 17.147 367.645 17.0032 367.259 16.7474C366.822 16.4493 366.369 16.1764 365.902 15.93C365.489 15.7224 365.142 15.4049 364.898 15.0127C364.654 14.6204 364.524 14.1684 364.52 13.7066V10.4941H353.992V13.7148C353.989 14.1766 353.858 14.6285 353.614 15.0208C353.37 15.4131 353.023 15.7305 352.61 15.9381C352.14 16.1846 351.685 16.4575 351.245 16.7555C350.859 17.0113 350.409 17.1551 349.946 17.171C349.483 17.1869 349.025 17.0742 348.621 16.8455L345.834 15.2106L340.578 24.3248L343.374 25.927ZM359.248 20.4339C360.955 20.4258 362.625 20.9249 364.048 21.8677C365.471 22.8105 366.581 24.1547 367.239 25.7297C367.897 27.3047 368.072 29.0395 367.742 30.7141C367.412 32.3888 366.592 33.9277 365.387 35.1357C364.181 36.3437 362.644 37.1664 360.97 37.4994C359.296 37.8324 357.56 37.6607 355.984 37.006C354.408 36.3514 353.062 35.2433 352.116 33.8224C351.171 32.4015 350.668 30.7317 350.673 29.025C350.682 26.7519 351.587 24.5742 353.193 22.9654C354.799 21.3566 356.975 20.4468 359.248 20.4339Z" stroke="#EBEBEB" stroke-width="1.04" stroke-miterlimit="10"/>
<path d="M351.734 362.123H226.996L233.879 310.617H344.851L351.734 362.123Z" fill="#41BD91"/>
<g opacity="0.5">
<path d="M351.734 362.123H226.996L233.879 310.617H344.851L351.734 362.123Z" fill="white"/>
</g>
<g opacity="0.6">
<path d="M347.623 331.33L231.664 327.211L233.879 310.617H344.852L347.623 331.33Z" fill="#41BD91"/>
</g>
<path d="M494.799 33.5703H83.9414V319.233H494.799V33.5703Z" fill="#263238"/>
<path d="M494.799 277.096H83.9414V319.233H494.799V277.096Z" fill="#41BD91"/>
<path opacity="0.7" d="M494.799 277.096H83.9414V319.233H494.799V277.096Z" fill="white"/>
<path d="M475.412 52.1426H103.324V257.273H475.412V52.1426Z" fill="white"/>
<path d="M475.412 52.1426H103.324V257.273H475.412V52.1426Z" fill="white"/>
<path d="M475.412 52.1426H103.324V61.4284H475.412V52.1426Z" fill="#A6A6A6"/>
<path d="M110.139 56.7843C110.139 57.0947 110.047 57.3981 109.874 57.6562C109.702 57.9143 109.457 58.1155 109.17 58.2343C108.883 58.353 108.568 58.3841 108.263 58.3236C107.959 58.263 107.679 58.1135 107.46 57.894C107.24 57.6745 107.091 57.3949 107.03 57.0905C106.97 56.786 107.001 56.4705 107.119 56.1837C107.238 55.8969 107.439 55.6518 107.698 55.4793C107.956 55.3069 108.259 55.2148 108.569 55.2148C108.986 55.2148 109.385 55.3802 109.679 55.6745C109.974 55.9688 110.139 56.368 110.139 56.7843Z" fill="#C7C7C7"/>
<path d="M116.549 56.7843C116.549 57.0947 116.457 57.3981 116.285 57.6562C116.112 57.9143 115.867 58.1155 115.58 58.2343C115.293 58.353 114.978 58.3841 114.673 58.3236C114.369 58.263 114.089 58.1135 113.87 57.894C113.65 57.6745 113.501 57.3949 113.44 57.0905C113.38 56.786 113.411 56.4705 113.53 56.1837C113.648 55.8969 113.85 55.6518 114.108 55.4793C114.366 55.3069 114.669 55.2148 114.98 55.2148C115.396 55.2148 115.795 55.3802 116.089 55.6745C116.384 55.9688 116.549 56.368 116.549 56.7843Z" fill="white"/>
<path d="M122.963 56.7843C122.963 57.0947 122.871 57.3981 122.699 57.6562C122.526 57.9143 122.281 58.1155 121.994 58.2343C121.707 58.353 121.392 58.3841 121.087 58.3236C120.783 58.263 120.503 58.1135 120.284 57.894C120.064 57.6745 119.915 57.3949 119.854 57.0905C119.794 56.786 119.825 56.4705 119.944 56.1837C120.062 55.8969 120.264 55.6518 120.522 55.4793C120.78 55.3069 121.083 55.2148 121.394 55.2148C121.81 55.2148 122.209 55.3802 122.503 55.6745C122.798 55.9688 122.963 56.368 122.963 56.7843Z" fill="#41BD91"/>
<path d="M475.401 61.4277H468.641V257.281H475.401V61.4277Z" fill="#DBDBDB"/>
<path d="M472.027 141.846C471.563 141.846 471.118 141.661 470.79 141.333C470.462 141.005 470.277 140.56 470.277 140.096V64.5754C470.277 64.1115 470.462 63.6666 470.79 63.3385C471.118 63.0105 471.563 62.8262 472.027 62.8262C472.256 62.8262 472.483 62.8715 472.695 62.9595C472.907 63.0475 473.099 63.1765 473.261 63.339C473.422 63.5016 473.55 63.6945 473.638 63.9066C473.725 64.1188 473.769 64.3461 473.768 64.5754V140.137C473.759 140.593 473.572 141.028 473.246 141.347C472.921 141.667 472.483 141.846 472.027 141.846Z" fill="#A6A6A6"/>
<path d="M416.41 201.705C415.588 207.283 413.181 212.507 409.475 216.756C405.769 221.005 400.921 224.1 395.506 225.672C390.092 227.245 384.34 227.229 378.934 225.627C373.529 224.024 368.698 220.903 365.015 216.633C361.333 212.364 358.954 207.127 358.163 201.545C357.371 195.962 358.2 190.27 360.55 185.146C362.901 180.021 366.674 175.679 371.421 172.637C376.168 169.595 381.689 167.981 387.327 167.986V197.413L416.41 201.705Z" fill="#EBEBEB"/>
<path d="M422.719 191.406C422.721 192.847 422.614 194.287 422.4 195.713L393.309 191.406V161.979C397.175 161.972 401.004 162.729 404.577 164.205C408.151 165.682 411.397 167.849 414.131 170.583C416.865 173.317 419.032 176.564 420.509 180.137C421.985 183.71 422.742 187.539 422.736 191.406H422.719Z" fill="#DBDBDB"/>
<path d="M390.504 208.244H421.786" stroke="#C7C7C7" stroke-width="1.01" stroke-miterlimit="10"/>
<path d="M423.98 210.434C423.546 210.434 423.123 210.306 422.763 210.065C422.402 209.824 422.122 209.482 421.956 209.082C421.79 208.681 421.747 208.241 421.831 207.816C421.916 207.391 422.124 207.001 422.431 206.694C422.737 206.388 423.127 206.179 423.552 206.095C423.977 206.01 424.418 206.054 424.818 206.219C425.218 206.385 425.56 206.666 425.801 207.026C426.042 207.387 426.17 207.81 426.17 208.243C426.17 208.824 425.94 209.382 425.529 209.792C425.118 210.203 424.561 210.434 423.98 210.434Z" stroke="#C7C7C7" stroke-width="1.01" stroke-miterlimit="10"/>
<path d="M456.215 206.602H431.922V207.697H456.215V206.602Z" fill="#C7C7C7"/>
<path d="M445.679 208.791H431.922V209.886H445.679V208.791Z" fill="#C7C7C7"/>
<path d="M136.476 183.068H128.719V238.277H136.476V183.068Z" fill="#EBEBEB"/>
<path d="M149.816 196.432H142.059V238.275H149.816V196.432Z" fill="#EBEBEB"/>
<path d="M163.148 217.357H155.391V238.283H163.148V217.357Z" fill="#EBEBEB"/>
<path d="M176.488 205.408H168.73V238.285H176.488V205.408Z" fill="#EBEBEB"/>
<path d="M189.82 192.852H182.062V238.275H189.82V192.852Z" fill="#EBEBEB"/>
<path d="M203.152 185.471H195.395V238.276H203.152V185.471Z" fill="#EBEBEB"/>
<path d="M124.247 176.045L124.337 191.576L124.386 207.107L124.443 238.218L124.247 238.021C131.375 238.021 138.505 238.021 145.639 238.021L167.031 238.062L188.422 238.103L209.814 238.218L188.422 238.34L167.031 238.381L145.639 238.422C138.511 238.422 131.38 238.422 124.247 238.422H124.051V238.226L124.116 207.115L124.157 191.584L124.247 176.045Z" fill="#EBEBEB"/>
<path d="M122.516 179.168C123.638 178.874 124.818 178.874 125.941 179.168C124.818 179.462 123.638 179.462 122.516 179.168Z" fill="#EBEBEB"/>
<path d="M122.516 183.918C123.071 183.76 123.647 183.686 124.224 183.697C124.804 183.682 125.383 183.756 125.941 183.918C124.817 184.201 123.64 184.201 122.516 183.918Z" fill="#EBEBEB"/>
<path d="M122.516 188.625C123.638 188.331 124.818 188.331 125.941 188.625C124.818 188.919 123.638 188.919 122.516 188.625Z" fill="#EBEBEB"/>
<path d="M122.516 193.359C123.638 193.065 124.818 193.065 125.941 193.359C124.818 193.654 123.638 193.654 122.516 193.359Z" fill="#EBEBEB"/>
<path d="M122.516 198.084C123.64 197.8 124.817 197.8 125.941 198.084C125.383 198.245 124.804 198.32 124.224 198.304C123.647 198.316 123.071 198.241 122.516 198.084Z" fill="#EBEBEB"/>
<path d="M122.516 202.816C123.638 202.522 124.818 202.522 125.941 202.816C124.818 203.111 123.638 203.111 122.516 202.816Z" fill="#EBEBEB"/>
<path d="M122.516 207.549C123.071 207.391 123.647 207.317 124.224 207.328C124.804 207.313 125.383 207.387 125.941 207.549C124.817 207.832 123.64 207.832 122.516 207.549Z" fill="#EBEBEB"/>
<path d="M122.516 212.274C123.638 211.979 124.818 211.979 125.941 212.274C124.818 212.568 123.638 212.568 122.516 212.274Z" fill="#EBEBEB"/>
<path d="M122.516 217.007C123.072 216.853 123.647 216.779 124.224 216.786C124.804 216.775 125.382 216.849 125.941 217.007C124.818 217.301 123.638 217.301 122.516 217.007Z" fill="#EBEBEB"/>
<path d="M122.516 221.732C123.64 221.449 124.817 221.449 125.941 221.732C124.818 222.026 123.638 222.026 122.516 221.732Z" fill="#EBEBEB"/>
<path d="M122.516 226.465C123.638 226.171 124.818 226.171 125.941 226.465C124.818 226.759 123.638 226.759 122.516 226.465Z" fill="#EBEBEB"/>
<path d="M122.516 231.197C123.071 231.04 123.647 230.965 124.224 230.977C124.804 230.961 125.383 231.036 125.941 231.197C124.817 231.481 123.64 231.481 122.516 231.197Z" fill="#EBEBEB"/>
<path d="M49.3407 326.148C48.1622 323.825 47.4013 321.313 47.0928 318.726C46.5853 314.676 46.9362 310.566 48.1227 306.661C50.0741 301.082 53.8087 296.302 58.7491 293.059C62.8853 290.337 67.659 289.659 70.7733 291.375C73.8958 292.528 79.2172 295.462 79.2254 295.724C79.1518 295.233 74.983 295.667 72.0076 298.34C69.1467 299.852 62.452 306.424 58.929 309.162C55.3078 311.099 49.8556 317.9 49.5532 320.925C49.2206 322.645 49.149 324.406 49.3407 326.148Z" fill="#41BD91"/>
<path opacity="0.1" d="M49.3407 326.148C48.1622 323.825 47.4013 321.313 47.0928 318.726C46.5853 314.676 46.9362 310.566 48.1227 306.661C50.0741 301.082 53.8087 296.302 58.7491 293.059C62.8853 290.337 67.659 289.659 70.7733 291.375C73.8958 292.528 79.2172 295.462 79.2254 295.724C79.1518 295.233 74.983 295.667 72.0076 298.34C69.1467 299.852 62.452 306.424 58.929 309.162C55.3078 311.099 49.8556 317.9 49.5532 320.925C49.2206 322.645 49.149 324.406 49.3407 326.148Z" fill="black"/>
<path d="M84.2357 330.334H83.7289C83.7289 330.244 84.0885 321.636 83.4755 313.013C82.658 301.708 80.6227 295.528 77.541 295.128L77.6064 294.629C85.6007 295.659 84.2929 328.919 84.2357 330.334Z" fill="#41BD91"/>
<path opacity="0.1" d="M84.2357 330.334H83.7289C83.7289 330.244 84.0885 321.636 83.4755 313.013C82.658 301.708 80.6227 295.528 77.541 295.128L77.6064 294.629C85.6007 295.659 84.2929 328.919 84.2357 330.334Z" fill="black"/>
<g opacity="0.2">
<path d="M76.2507 294.603C69.9811 292.707 65.7714 292.11 60.589 296.761C56.363 300.341 51.9653 304.289 50.2487 309.709C48.9881 313.246 48.3412 316.972 48.3359 320.728C48.2098 316.954 48.7635 313.188 49.9708 309.611C51.6056 304.101 56.0687 300.063 60.3928 296.532C65.6979 291.897 69.9729 292.445 76.2507 294.619V294.603Z" fill="black"/>
<path d="M56.1829 300.496C55.7896 305.045 54.3276 309.436 51.916 313.313C53.8626 309.234 55.2958 304.928 56.1829 300.496Z" fill="black"/>
<path d="M63.712 294.365C60.697 295.182 57.7764 296.313 54.9983 297.741C53.4861 298.828 52.0965 300.12 50.666 301.33C51.9282 299.916 53.3152 298.619 54.8103 297.455C57.5768 295.919 60.5885 294.873 63.712 294.365Z" fill="black"/>
<path d="M68.584 293.204C67.4641 294.913 65.4369 295.91 64.2271 297.479C63.3198 299.049 62.0692 301.272 61.0801 302.768C61.9547 300.888 62.9029 299.081 63.9165 297.267C65.2571 295.632 67.1862 294.774 68.584 293.18V293.204Z" fill="black"/>
</g>
<path d="M81.2523 294.604C81.2523 294.604 80.3859 282.081 79.0371 276.874C77.6884 271.667 74.1326 266.623 70.0455 262.561C65.9585 258.498 60.2366 253.447 56.4683 252.637C52.7 251.828 46.1934 247.104 46.1934 247.104C46.1934 247.104 51.3267 260.607 54.7108 266.623C58.0949 272.64 64.9939 282.89 68.6069 284.198C72.2199 285.506 77.9418 289.397 79.1597 291.187C80.3777 292.977 81.2523 294.604 81.2523 294.604Z" fill="#41BD91"/>
<path opacity="0.1" d="M81.2523 294.604C81.2523 294.604 80.3859 282.081 79.0371 276.874C77.6884 271.667 74.1326 266.623 70.0455 262.561C65.9585 258.498 60.2366 253.447 56.4683 252.637C52.7 251.828 46.1934 247.104 46.1934 247.104C46.1934 247.104 51.3267 260.607 54.7108 266.623C58.0949 272.64 64.9939 282.89 68.6069 284.198C72.2199 285.506 77.9418 289.397 79.1597 291.187C80.3777 292.977 81.2523 294.604 81.2523 294.604Z" fill="black"/>
<path d="M82.3806 330.333C82.3806 329.981 81.645 295.323 80.002 289.854L80.476 289.707C82.1109 295.241 82.8466 328.894 82.8793 330.316L82.3806 330.333Z" fill="#41BD91"/>
<path opacity="0.1" d="M82.3806 330.333C82.3806 329.981 81.645 295.323 80.002 289.854L80.476 289.707C82.1109 295.241 82.8466 328.894 82.8793 330.316L82.3806 330.333Z" fill="black"/>
<g opacity="0.2">
<path d="M49.668 250.479C53.8204 255.204 59.0601 258.841 63.2861 263.492C67.4926 268.171 71.3477 273.155 74.8198 278.402C76.8263 282.084 78.5584 285.909 80.0023 289.846C78.436 285.964 76.6202 282.188 74.5665 278.541C71.1742 273.293 67.0544 268.487 63.0491 263.688C58.8721 259.013 53.657 255.343 49.668 250.471V250.479Z" fill="black"/>
<path d="M62.502 276.514C64.7859 277.762 67.1384 278.881 69.5481 279.865C71.9349 280.805 74.7468 280.985 76.8476 282.603C74.5752 281.238 71.8695 281.148 69.4173 280.217C66.9868 279.232 64.6685 277.991 62.502 276.514Z" fill="black"/>
<path d="M71.9336 265.389C73.1992 267.522 74.188 269.807 74.8763 272.19C75.656 274.562 75.8192 277.094 75.3504 279.547C75.4076 277.094 75.4403 274.642 74.533 272.296C73.8466 269.93 72.9831 267.618 71.9499 265.381L71.9336 265.389Z" fill="black"/>
<path d="M55.2188 262.307C58.9053 264.358 63.0741 265.911 66.7934 267.898C62.8125 266.353 58.7009 264.816 55.2188 262.307Z" fill="black"/>
<path d="M68.2227 261.791C69.2608 264.014 70.1599 266.287 71.0754 268.551C72.1141 270.786 72.7082 273.201 72.8247 275.663C72.4459 273.251 71.7391 270.902 70.7239 268.682C69.8575 266.401 68.9747 264.129 68.2227 261.791Z" fill="black"/>
</g>
<path d="M86.4345 293.165C86.3854 293.452 88.4453 279.809 91.2409 274.144C93.8893 268.202 99.6684 264.155 103.641 263.518C107.769 262.97 111.709 261.376 115.085 261.254C118.126 261.254 125.18 258.131 125.147 258.801C125.409 257.551 118.281 269.428 113.752 271.954C111.57 273.588 108.635 274.218 106.02 275.436C103.371 276.515 101.033 278.215 99.4804 278.942C96.6031 279.498 90.4234 286.25 88.9194 288.858C87.4154 291.465 86.4345 293.182 86.4345 293.165Z" fill="#41BD91"/>
<path opacity="0.1" d="M86.4345 293.165C86.3854 293.452 88.4453 279.809 91.2409 274.144C93.8893 268.202 99.6684 264.155 103.641 263.518C107.769 262.97 111.709 261.376 115.085 261.254C118.126 261.254 125.18 258.131 125.147 258.801C125.409 257.551 118.281 269.428 113.752 271.954C111.57 273.588 108.635 274.218 106.02 275.436C103.371 276.515 101.033 278.215 99.4804 278.942C96.6031 279.498 90.4234 286.25 88.9194 288.858C87.4154 291.465 86.4345 293.182 86.4345 293.165Z" fill="black"/>
<path d="M84.8486 330.334C84.7995 328.952 83.7778 296.329 87.8403 287.436L88.2981 287.64C84.2764 296.435 85.339 329.982 85.3472 330.317L84.8486 330.334Z" fill="#41BD91"/>
<path opacity="0.1" d="M84.8486 330.334C84.7995 328.952 83.7778 296.329 87.8403 287.436L88.2981 287.64C84.2764 296.435 85.339 329.982 85.3472 330.317L84.8486 330.334Z" fill="black"/>
<g opacity="0.2">
<path d="M88.5597 285.572C90.1046 282.081 91.3471 278.444 93.407 275.182C95.7451 272.11 98.7642 269.623 102.227 267.916C105.717 266.363 109.624 265.97 113.197 264.581C116.777 263.33 120.39 261.908 123.39 259.537C118.166 263.779 111.447 265.627 105.031 267.254C100.486 268.719 96.4945 271.533 93.5868 275.321C91.7558 278.101 89.9983 282.547 88.5352 285.572H88.5597Z" fill="black"/>
<path d="M93.2441 275.664C96.3994 274.904 99.3421 273.277 102.669 273.212C105.473 273.212 109.503 272.689 112.331 272.443C109.143 273.062 105.913 273.444 102.669 273.588C99.3993 273.588 96.4321 275.174 93.2441 275.631V275.664Z" fill="black"/>
<path d="M99.332 269.575C100.54 267.906 102.058 266.485 103.803 265.39C105.64 264.488 107.529 263.696 109.46 263.02C107.694 264.009 105.749 264.761 103.991 265.709C102.283 266.798 100.717 268.097 99.332 269.575Z" fill="black"/>
<path d="M95.8984 272.551C96.4487 270.575 97.4253 268.745 98.7594 267.188C100.249 265.791 101.894 264.57 103.664 263.551C102.291 264.679 100.28 266.199 99.0537 267.45C97.6559 268.872 96.8221 270.785 95.923 272.551H95.8984Z" fill="black"/>
<path d="M107.711 266.298C111.455 266.102 115.337 265.562 119.081 265.391C115.347 266.19 111.524 266.495 107.711 266.298Z" fill="black"/>
</g>
<path d="M94.16 286.208C92.2309 286.813 89.2555 289.478 87.1221 291.783C84.9886 294.088 82.0132 302.131 81.7435 304.142C81.4737 306.153 80.7871 311.499 80.7871 311.499C80.7871 311.499 85.9777 284.875 103.969 287.794C103.969 287.728 100.797 284.14 94.16 286.208Z" fill="#41BD91"/>
<path opacity="0.4" d="M94.16 286.208C92.2309 286.813 89.2555 289.478 87.1221 291.783C84.9886 294.088 82.0132 302.131 81.7435 304.142C81.4737 306.153 80.7871 311.499 80.7871 311.499C80.7871 311.499 85.9777 284.875 103.969 287.794C103.969 287.728 100.797 284.14 94.16 286.208Z" fill="black"/>
<path d="M94.1602 286.208C97.1111 284.252 100.158 282.446 103.291 280.797C105.146 279.979 110.607 280.641 113.206 281.541C115.805 282.44 119.892 286.903 120.481 288.333C121.069 289.764 123.939 292.11 125.197 293.532C130.445 299.426 123.334 316.583 123.334 316.583C123.334 316.583 124.642 305.033 120.669 300.93C117.489 297.66 115.764 296.556 111.833 294.488C107.901 292.42 105.359 284.565 94.1602 286.208Z" fill="#41BD91"/>
<path opacity="0.1" d="M94.1602 286.208C97.1111 284.252 100.158 282.446 103.291 280.797C105.146 279.979 110.607 280.641 113.206 281.541C115.805 282.44 119.892 286.903 120.481 288.333C121.069 289.764 123.939 292.11 125.197 293.532C130.445 299.426 123.334 316.583 123.334 316.583C123.334 316.583 124.642 305.033 120.669 300.93C117.489 297.66 115.764 296.556 111.833 294.488C107.901 292.42 105.359 284.565 94.1602 286.208Z" fill="black"/>
<g opacity="0.2">
<path d="M96.6374 284.614C98.5093 284.107 100.398 283.674 102.318 283.33C104.239 282.987 106.218 282.611 108.138 283.126C110.974 283.976 113.506 285.625 115.43 287.875C117.356 290.046 119.405 292.104 121.569 294.038C123.1 295.309 124.202 297.022 124.724 298.943C125.347 302.792 125.319 306.718 124.642 310.558C125.202 306.721 125.145 302.819 124.47 299C123.919 297.156 122.829 295.519 121.34 294.3C119.147 292.377 117.083 290.313 115.16 288.12C113.296 285.897 110.834 284.255 108.065 283.388C106.218 282.873 104.223 283.306 102.343 283.535C100.463 283.764 98.5257 284.18 96.6211 284.63L96.6374 284.614Z" fill="black"/>
<path d="M119.641 292.477C120.883 295.82 122.739 298.926 123.393 302.474C122.698 300.839 122.15 299.13 121.447 297.512C120.607 295.929 119.999 294.233 119.641 292.477Z" fill="black"/>
<path d="M108.31 283.307C110.352 283.203 112.399 283.418 114.375 283.944C115.493 284.431 116.585 284.976 117.645 285.579C116.091 285.113 114.686 284.279 113.083 283.993C111.481 283.707 109.887 283.634 108.285 283.315L108.31 283.307Z" fill="black"/>
<path d="M103.652 283.233C105.287 282.718 106.881 281.802 108.679 281.786C110.449 281.746 112.199 282.169 113.756 283.012C112.133 282.433 110.418 282.156 108.696 282.194C106.947 282.194 105.369 283.061 103.652 283.265V283.233Z" fill="black"/>
</g>
<path d="M80.2875 330.333C80.2875 329.515 79.7561 309.897 82.2574 302.77L82.7315 302.933C80.2793 310.004 80.7861 330.112 80.7943 330.316L80.2875 330.333Z" fill="#41BD91"/>
<path opacity="0.4" d="M80.2875 330.333C80.2875 329.515 79.7561 309.897 82.2574 302.77L82.7315 302.933C80.2793 310.004 80.7861 330.112 80.7943 330.316L80.2875 330.333Z" fill="black"/>
<path d="M58.6999 241.137C52.9126 241.137 50.9508 242.772 48.2452 241.374C45.5395 239.976 40.5042 231.974 38.3708 231.622C36.2179 231.397 34.0517 231.326 31.8887 231.41C31.8887 231.41 42.4742 228.958 45.0899 230.233C47.7057 231.508 51.5312 234.688 56.2477 236.02C60.9641 237.352 71.0347 236.837 74.6068 242.134L58.6999 241.137Z" fill="#41BD91"/>
<path opacity="0.1" d="M58.6999 241.137C52.9126 241.137 50.9508 242.772 48.2452 241.374C45.5395 239.976 40.5042 231.974 38.3708 231.622C36.2179 231.397 34.0517 231.326 31.8887 231.41C31.8887 231.41 42.4742 228.958 45.0899 230.233C47.7057 231.508 51.5312 234.688 56.2477 236.02C60.9641 237.352 71.0347 236.837 74.6068 242.134L58.6999 241.137Z" fill="black"/>
<path d="M82.486 276.514C81.6686 271.609 75.7914 257.149 74.5407 253.046C73.2901 248.942 61.2577 241.381 58.6992 241.136C58.6992 241.136 66.9469 241.504 71.5653 240.711C76.1837 239.918 82.7639 241.618 85.0609 248.395C87.3578 255.171 83.9982 264.833 83.426 267.555C82.8539 270.277 82.486 276.514 82.486 276.514Z" fill="#41BD91"/>
<path opacity="0.4" d="M82.486 276.514C81.6686 271.609 75.7914 257.149 74.5407 253.046C73.2901 248.942 61.2577 241.381 58.6992 241.136C58.6992 241.136 66.9469 241.504 71.5653 240.711C76.1837 239.918 82.7639 241.618 85.0609 248.395C87.3578 255.171 83.9982 264.833 83.426 267.555C82.8539 270.277 82.486 276.514 82.486 276.514Z" fill="black"/>
<path d="M83.0176 330.325C83.0176 329.801 82.8623 278.108 81.6035 269.648L82.1021 269.574C83.3691 278.067 83.5163 329.801 83.5244 330.325H83.0176Z" fill="#41BD91"/>
<path opacity="0.4" d="M83.0176 330.325C83.0176 329.801 82.8623 278.108 81.6035 269.648L82.1021 269.574C83.3691 278.067 83.5163 329.801 83.5244 330.325H83.0176Z" fill="black"/>
<g opacity="0.2">
<path d="M37.9121 230.894C46.2171 230.298 43.7893 233.052 49.8464 236.11C51.1583 236.813 52.5878 237.27 54.0642 237.458C58.5682 237.924 63.1212 238.276 67.568 239.224C69.0629 239.499 70.5218 239.944 71.9166 240.548C70.4936 240.039 69.023 239.675 67.5271 239.461C63.0476 238.725 58.5355 238.39 54.007 237.957C52.477 237.745 50.9981 237.258 49.642 236.518C47.6089 235.461 45.8187 233.991 44.386 232.202C42.5714 230.78 40.1028 231.025 37.9121 230.894Z" fill="black"/>
</g>
<path d="M87.8989 278.673C88.7163 276.025 88.7735 258.058 87.9479 250.799C87.1223 243.54 85.2913 238.914 90.2285 231.508C95.1657 224.102 102.604 218.429 103.937 215.021C105.269 211.612 105.236 209.135 108.285 207.958C111.334 206.781 112.707 207.615 114.522 205.138C116.337 202.662 118.887 201.672 121.952 200.34C125.018 199.008 124.625 198.084 124.625 198.084C124.625 198.084 123.514 205.498 121.756 212.062C119.999 218.626 111.776 237.402 105.343 244.448C98.9095 251.494 87.8989 278.673 87.8989 278.673Z" fill="#41BD91"/>
<path opacity="0.1" d="M87.8989 278.673C88.7163 276.025 88.7735 258.058 87.9479 250.799C87.1223 243.54 85.2913 238.914 90.2285 231.508C95.1657 224.102 102.604 218.429 103.937 215.021C105.269 211.612 105.236 209.135 108.285 207.958C111.334 206.781 112.707 207.615 114.522 205.138C116.337 202.662 118.887 201.672 121.952 200.34C125.018 199.008 124.625 198.084 124.625 198.084C124.625 198.084 123.514 205.498 121.756 212.062C119.999 218.626 111.776 237.402 105.343 244.448C98.9095 251.494 87.8989 278.673 87.8989 278.673Z" fill="black"/>
<path d="M83.2969 299.475C83.583 296.516 90.4983 266.778 102.294 248.664C102.294 248.664 88.3975 259.536 86.1578 265.83C83.9181 272.124 83.2969 299.475 83.2969 299.475Z" fill="#41BD91"/>
<path opacity="0.4" d="M83.2969 299.475C83.583 296.516 90.4983 266.778 102.294 248.664C102.294 248.664 88.3975 259.536 86.1578 265.83C83.9181 272.124 83.2969 299.475 83.2969 299.475Z" fill="black"/>
<g opacity="0.2">
<path d="M88.5605 261.792C89.4597 259.291 90.0074 255.31 90.5224 252.654C91.397 248.06 92.0836 243.409 93.4324 238.913C93.9509 237.414 94.7498 236.027 95.7865 234.826C98.6475 231.115 101.77 227.633 104.639 223.93C105.609 222.716 106.445 221.4 107.132 220.006C108.986 217.484 110.981 215.069 113.108 212.772C117.195 208.056 121.543 203.511 124.625 198.059C121.666 203.576 117.342 208.203 113.296 212.927C111.199 215.228 109.231 217.643 107.402 220.162C106.725 221.568 105.903 222.899 104.95 224.134C102.121 227.862 98.9417 231.327 96.0644 235.006C95.0448 236.169 94.2544 237.514 93.7348 238.97C91.446 246.327 90.9229 254.501 88.5933 261.768L88.5605 261.792Z" fill="black"/>
<path d="M92.3691 242.142C92.4988 238.5 92.9917 234.88 93.8405 231.335C94.895 227.829 97.1101 224.796 99.1619 221.812C97.4126 224.951 95.2301 227.959 94.2002 231.425C93.3692 234.956 92.7577 238.535 92.3691 242.142Z" fill="black"/>
<path d="M91.0215 250.479C95.1086 247.545 99.588 245.002 103.381 241.692C106.413 238.537 110.182 233.387 112.985 229.938C110.129 234.137 107.008 238.15 103.642 241.954C99.7842 245.28 95.3129 247.757 91.0215 250.471V250.479Z" fill="black"/>
<path d="M105.973 222.402C109.071 221.462 111.76 219.517 114.482 217.816C117.204 216.116 119.386 213.656 121.471 211.195C119.607 213.86 117.547 216.468 114.686 218.127C111.825 219.786 109.169 221.748 105.973 222.402Z" fill="black"/>
<path d="M108.129 218.877C110.434 217.855 113.336 215.55 115.486 214.169C117.995 212.681 120.006 210.515 122.172 208.586C120.304 210.847 118.124 212.831 115.698 214.48C113.246 216.024 110.9 217.913 108.137 218.877H108.129Z" fill="black"/>
</g>
<path d="M82.233 330.332H81.7344C81.7344 330.014 82.5518 298.053 84.1866 290.77L84.6771 290.876C83.0668 298.094 82.2412 330.005 82.233 330.332Z" fill="#41BD91"/>
<path opacity="0.4" d="M82.233 330.332H81.7344C81.7344 330.014 82.5518 298.053 84.1866 290.77L84.6771 290.876C83.0668 298.094 82.2412 330.005 82.233 330.332Z" fill="black"/>
<path d="M514.665 102.871C516.939 105.587 518.409 108.884 518.91 112.39C519.411 115.897 518.923 119.474 517.501 122.718L507.496 110.759L499.06 113.898L494.491 121.647L504.496 133.614C501.196 134.405 497.745 134.3 494.499 133.309C491.254 132.319 488.331 130.48 486.035 127.981C483.739 125.483 482.152 122.416 481.438 119.099C480.724 115.781 480.91 112.333 481.975 109.112C483.041 105.89 484.948 103.011 487.499 100.774C490.05 98.5364 493.153 97.0211 496.486 96.3847C499.819 95.7484 503.262 96.0142 506.458 97.1545C509.654 98.2949 512.487 100.268 514.665 102.871Z" fill="#455A64"/>
<path d="M413.444 41.246C411.17 38.5283 409.7 35.23 409.199 31.7223C408.698 28.2145 409.186 24.6365 410.608 21.3909L420.613 33.3497L429.049 30.2435L433.626 22.4863L423.613 10.503C426.913 9.71212 430.364 9.8173 433.61 10.8076C436.855 11.7979 439.777 13.6374 442.074 16.1358C444.37 18.6342 445.957 21.7007 446.671 25.0182C447.385 28.3356 447.199 31.7835 446.134 35.0053C445.068 38.227 443.161 41.1055 440.61 43.343C438.059 45.5806 434.956 47.0959 431.623 47.7322C428.29 48.3686 424.847 48.1028 421.651 46.9624C418.455 45.8221 415.622 43.8485 413.444 41.246Z" fill="#455A64"/>
<path d="M439.085 28.9834L426.07 39.873L489.011 115.096L502.026 104.206L439.085 28.9834Z" fill="#455A64"/>
<path opacity="0.2" d="M447.884 46.6056L441.859 51.6465L480.209 97.4799L486.234 92.4389L447.884 46.6056Z" fill="black"/>
<path d="M528.869 35.7045C529.5 35.1815 530.021 34.5392 530.404 33.8143C530.787 33.0895 531.023 32.2964 531.099 31.4803C531.174 30.6642 531.089 29.8412 530.846 29.0582C530.604 28.2752 530.21 27.5477 529.686 26.9173L521.986 17.6559C521.462 17.0246 520.819 16.5027 520.094 16.12C519.368 15.7372 518.574 15.5011 517.758 15.4252C516.941 15.3493 516.117 15.4351 515.333 15.6776C514.55 15.9201 513.822 16.3146 513.191 16.8385L463.77 57.7911L479.415 76.6652L528.869 35.7045Z" fill="#41BD91"/>
<path opacity="0.5" d="M521.455 19.7397C520.491 18.6749 519.169 18.0028 517.741 17.852C516.312 17.7012 514.879 18.0823 513.714 18.9223L507.085 24.6442C498.175 32.366 489.126 39.889 479.938 47.213C475.345 50.886 470.688 54.4771 465.969 57.9866C479.007 46.0605 492.535 34.7883 506.308 23.7695C508.622 21.9385 510.878 20.1239 513.281 18.3174C514.574 17.4888 516.131 17.1752 517.645 17.4385C519.158 17.7019 520.517 18.5229 521.455 19.7397Z" fill="white"/>
<path d="M460.341 64.8695L470.914 77.5898L475.962 73.3942L465.389 60.6738L460.341 64.8695Z" fill="#41BD91"/>
<path opacity="0.2" d="M460.341 64.8695L470.914 77.5898L475.962 73.3942L465.389 60.6738L460.341 64.8695Z" fill="black"/>
<path d="M418.671 107.67L422.02 111.711L468.216 73.4262L464.867 69.3856L418.671 107.67Z" fill="#C7C7C7"/>
<path d="M412.201 109.582C412.201 109.582 405.898 118.982 406.119 119.243L407.231 120.584L408.342 121.916C408.563 122.186 418.969 117.739 418.969 117.739L422.001 111.707L418.683 107.693L412.201 109.582Z" fill="#C7C7C7"/>
<g opacity="0.1">
<path d="M481.46 68.2438L481.771 68.6198C481.915 68.7987 482.093 68.9469 482.295 69.0556C482.498 69.1643 482.72 69.2313 482.948 69.2526C483.177 69.274 483.408 69.2492 483.627 69.1798C483.845 69.1104 484.048 68.9978 484.223 68.8486L524.489 35.4899C524.666 35.3446 524.812 35.1656 524.92 34.9634C525.027 34.7611 525.093 34.5396 525.115 34.3115C525.136 34.0835 525.112 33.8535 525.044 33.6348C524.976 33.4162 524.865 33.2132 524.718 33.0377L524.399 32.6535C524.254 32.4761 524.074 32.3295 523.872 32.2222C523.669 32.1148 523.447 32.049 523.219 32.0284C522.991 32.0079 522.761 32.0331 522.542 32.1025C522.324 32.1719 522.121 32.2842 521.947 32.4328L481.664 65.816C481.491 65.9615 481.348 66.14 481.244 66.341C481.139 66.542 481.076 66.7617 481.057 66.9874C481.038 67.213 481.064 67.4402 481.133 67.6558C481.202 67.8715 481.313 68.0713 481.46 68.2438Z" fill="black"/>
<path d="M476.77 62.6129L477.081 62.9889C477.226 63.1669 477.404 63.3142 477.606 63.4222C477.809 63.5303 478.031 63.597 478.259 63.6183C478.487 63.6396 478.718 63.6151 478.936 63.5464C479.155 63.4776 479.358 63.3659 479.533 63.2178L519.799 29.859C519.976 29.7138 520.123 29.5347 520.23 29.3321C520.338 29.1295 520.403 28.9076 520.424 28.6792C520.445 28.4509 520.419 28.2208 520.35 28.0023C520.281 27.7838 520.168 27.5814 520.02 27.4068L519.709 27.0226C519.564 26.8453 519.385 26.6986 519.182 26.5913C518.98 26.484 518.758 26.4181 518.529 26.3976C518.301 26.377 518.071 26.4022 517.852 26.4716C517.634 26.541 517.431 26.6533 517.257 26.8019L476.991 60.1852C476.64 60.478 476.42 60.8982 476.378 61.3534C476.337 61.8086 476.478 62.2616 476.77 62.6129Z" fill="black"/>
<path d="M472.102 56.9806L472.413 57.3648C472.558 57.5422 472.737 57.6888 472.94 57.7961C473.142 57.9035 473.364 57.9693 473.593 57.9899C473.821 58.0104 474.051 57.9852 474.27 57.9158C474.488 57.8464 474.691 57.7341 474.865 57.5855L515.131 24.2268C515.308 24.0815 515.455 23.9025 515.562 23.7003C515.669 23.498 515.736 23.2764 515.757 23.0484C515.778 22.8204 515.754 22.5904 515.686 22.3717C515.618 22.1531 515.507 21.9501 515.36 21.7745L515.041 21.3985C514.896 21.2206 514.718 21.0733 514.515 20.9652C514.313 20.8571 514.091 20.7905 513.863 20.7692C513.635 20.7479 513.404 20.7723 513.186 20.8411C512.967 20.9098 512.764 21.0216 512.589 21.1697L472.331 54.5529C472.156 54.6967 472.011 54.8738 471.904 55.0739C471.798 55.2741 471.732 55.4934 471.711 55.7191C471.689 55.9448 471.713 56.1725 471.78 56.389C471.847 56.6056 471.957 56.8066 472.102 56.9806Z" fill="black"/>
</g>
<path opacity="0.1" d="M528.87 35.7048L479.416 76.6655L475.215 71.5812L524.734 30.8085C525.873 29.89 526.658 28.6053 526.956 27.1731C527.254 25.7409 527.046 24.2496 526.369 22.9531L529.638 26.9176C530.7 28.1856 531.215 29.8228 531.071 31.4701C530.927 33.1173 530.135 34.6403 528.87 35.7048Z" fill="black"/>
<path d="M488.497 199.285C482.987 199.273 477.597 200.897 473.009 203.95C468.422 207.004 464.844 211.349 462.727 216.437C460.61 221.525 460.051 227.126 461.119 232.532C462.187 237.938 464.835 242.906 468.727 246.806C472.62 250.707 477.582 253.365 482.986 254.444C488.39 255.523 493.992 254.975 499.084 252.869C504.176 250.763 508.529 247.193 511.592 242.612C514.655 238.031 516.289 232.645 516.289 227.134C516.281 219.76 513.352 212.691 508.143 207.471C502.935 202.252 495.871 199.308 488.497 199.285ZM488.497 249.057C484.16 249.06 479.92 247.777 476.313 245.37C472.706 242.963 469.893 239.541 468.231 235.535C466.569 231.529 466.133 227.121 466.977 222.867C467.821 218.613 469.908 214.705 472.973 211.638C476.038 208.57 479.945 206.481 484.198 205.633C488.451 204.786 492.86 205.219 496.867 206.878C500.874 208.537 504.298 211.347 506.708 214.953C509.118 218.558 510.404 222.797 510.404 227.134C510.405 230.012 509.839 232.862 508.739 235.521C507.639 238.18 506.025 240.597 503.991 242.633C501.957 244.668 499.541 246.283 496.883 247.386C494.225 248.488 491.375 249.056 488.497 249.057ZM488.497 199.285C482.987 199.273 477.597 200.897 473.009 203.95C468.422 207.004 464.844 211.349 462.727 216.437C460.61 221.525 460.051 227.126 461.119 232.532C462.187 237.938 464.835 242.906 468.727 246.806C472.62 250.707 477.582 253.365 482.986 254.444C488.39 255.523 493.992 254.975 499.084 252.869C504.176 250.763 508.529 247.193 511.592 242.612C514.655 238.031 516.289 232.645 516.289 227.134C516.281 219.76 513.352 212.691 508.143 207.471C502.935 202.252 495.871 199.308 488.497 199.285ZM488.497 249.057C484.16 249.06 479.92 247.777 476.313 245.37C472.706 242.963 469.893 239.541 468.231 235.535C466.569 231.529 466.133 227.121 466.977 222.867C467.821 218.613 469.908 214.705 472.973 211.638C476.038 208.57 479.945 206.481 484.198 205.633C488.451 204.786 492.86 205.219 496.867 206.878C500.874 208.537 504.298 211.347 506.708 214.953C509.118 218.558 510.404 222.797 510.404 227.134C510.405 230.012 509.839 232.862 508.739 235.521C507.639 238.18 506.025 240.597 503.991 242.633C501.957 244.668 499.541 246.283 496.883 247.386C494.225 248.488 491.375 249.056 488.497 249.057ZM488.497 180.182C479.209 180.174 470.127 182.92 462.401 188.075C454.674 193.229 448.65 200.559 445.09 209.138C441.53 217.717 440.594 227.158 442.401 236.269C444.208 245.379 448.677 253.749 455.241 260.32C461.806 266.89 470.172 271.366 479.281 273.181C488.39 274.996 497.833 274.069 506.415 270.516C514.997 266.964 522.332 260.946 527.493 253.224C532.654 245.501 535.409 236.422 535.409 227.134C535.406 214.689 530.465 202.754 521.669 193.951C512.873 185.147 500.942 180.195 488.497 180.182ZM488.497 257.656C482.46 257.66 476.557 255.872 471.535 252.52C466.514 249.168 462.599 244.403 460.287 238.826C457.974 233.249 457.367 227.111 458.543 221.189C459.719 215.268 462.625 209.828 466.893 205.557C471.16 201.287 476.599 198.378 482.52 197.199C488.441 196.02 494.579 196.624 500.157 198.934C505.736 201.243 510.503 205.155 513.858 210.175C517.213 215.195 519.003 221.097 519.003 227.134C518.992 235.223 515.775 242.978 510.057 248.699C504.339 254.42 496.586 257.641 488.497 257.656ZM488.497 199.285C482.987 199.273 477.597 200.897 473.009 203.95C468.422 207.004 464.844 211.349 462.727 216.437C460.61 221.525 460.051 227.126 461.119 232.532C462.187 237.938 464.835 242.906 468.727 246.806C472.62 250.707 477.582 253.365 482.986 254.444C488.39 255.523 493.992 254.975 499.084 252.869C504.176 250.763 508.529 247.193 511.592 242.612C514.655 238.031 516.289 232.645 516.289 227.134C516.281 219.76 513.352 212.691 508.143 207.471C502.935 202.252 495.871 199.308 488.497 199.285ZM488.497 249.057C484.16 249.06 479.92 247.777 476.313 245.37C472.706 242.963 469.893 239.541 468.231 235.535C466.569 231.529 466.133 227.121 466.977 222.867C467.821 218.613 469.908 214.705 472.973 211.638C476.038 208.57 479.945 206.481 484.198 205.633C488.451 204.786 492.86 205.219 496.867 206.878C500.874 208.537 504.298 211.347 506.708 214.953C509.118 218.558 510.404 222.797 510.404 227.134C510.405 230.012 509.839 232.862 508.739 235.521C507.639 238.18 506.025 240.597 503.991 242.633C501.957 244.668 499.541 246.283 496.883 247.386C494.225 248.488 491.375 249.056 488.497 249.057Z" fill="#41BD91"/>
<path d="M493.999 181.031H483.25L484.321 170.307H492.928L493.999 181.031Z" fill="#41BD91"/>
<path d="M470.214 184.456L460.903 189.826L456.465 180.001L463.92 175.693L470.214 184.456Z" fill="#41BD91"/>
<path d="M451.321 199.31L445.942 208.62L437.188 202.326L441.487 194.871L451.321 199.31Z" fill="#41BD91"/>
<path d="M442.389 221.625V232.366L431.656 231.303V222.688L442.389 221.625Z" fill="#41BD91"/>
<path d="M445.805 245.412L451.184 254.722L441.35 259.153L437.051 251.698L445.805 245.412Z" fill="#41BD91"/>
<path d="M460.657 264.301L469.967 269.671L463.681 278.434L456.227 274.126L460.657 264.301Z" fill="#41BD91"/>
<path d="M482.973 273.236H493.722L492.651 283.961H484.043L482.973 273.236Z" fill="#41BD91"/>
<path d="M506.758 269.812L516.068 264.441L520.507 274.267L513.052 278.575L506.758 269.812Z" fill="#41BD91"/>
<path d="M525.648 254.959L531.027 245.648L539.782 251.943L535.482 259.397L525.648 254.959Z" fill="#41BD91"/>
<path d="M534.582 232.652V221.895L545.315 222.965V231.581L534.582 232.652Z" fill="#41BD91"/>
<path d="M531.168 208.856L525.789 199.546L535.614 195.107L539.922 202.57L531.168 208.856Z" fill="#41BD91"/>
<path d="M516.306 189.965L507.004 184.595L513.29 175.832L520.745 180.14L516.306 189.965Z" fill="#41BD91"/>
<path d="M187.281 18.5625C181.384 18.5593 175.619 20.3049 170.714 23.5786C165.809 26.8524 161.986 31.5071 159.727 36.9541C157.468 42.4011 156.876 48.3956 158.024 54.1795C159.172 59.9634 162.01 65.2767 166.179 69.4475C170.347 73.6183 175.659 76.4592 181.442 77.6108C187.226 78.7624 193.221 78.173 198.669 75.9171C204.117 73.6613 208.774 69.8403 212.05 64.9375C215.327 60.0348 217.075 54.2704 217.075 48.3737C217.075 40.4701 213.937 32.89 208.35 27.2998C202.763 21.7096 195.184 18.5668 187.281 18.5625ZM187.281 62.2861C184.532 62.2861 181.846 61.4711 179.56 59.9442C177.275 58.4172 175.494 56.247 174.442 53.7078C173.391 51.1686 173.115 48.3746 173.652 45.679C174.188 42.9834 175.511 40.5074 177.455 38.564C179.398 36.6206 181.874 35.2971 184.57 34.7609C187.265 34.2248 190.059 34.5 192.598 35.5517C195.138 36.6035 197.308 38.3846 198.835 40.6698C200.362 42.955 201.177 45.6416 201.177 48.39C201.177 52.0755 199.713 55.61 197.107 58.216C194.501 60.822 190.966 62.2861 187.281 62.2861Z" fill="#455A64"/>
<path d="M193.003 19.8044H181.543L182.181 11.6875H192.374L193.003 19.8044Z" fill="#455A64"/>
<path d="M171.194 23.6617L163.086 31.7705L157.797 25.5827L165.006 18.373L171.194 23.6617Z" fill="#455A64"/>
<path d="M158.5 41.8184V53.2785L150.383 52.6491V42.4559L158.5 41.8184Z" fill="#455A64"/>
<path d="M162.359 63.6348L170.46 71.7354L164.28 77.024L157.07 69.8144L162.359 63.6348Z" fill="#455A64"/>
<path d="M180.512 76.3281H191.972L191.334 84.4369H181.141L180.512 76.3281Z" fill="#455A64"/>
<path d="M202.328 72.4619L210.429 64.3613L215.717 70.5492L208.508 77.7506L202.328 72.4619Z" fill="#455A64"/>
<path d="M215.023 54.3078V42.8477L223.132 43.4852V53.6784L215.023 54.3078Z" fill="#455A64"/>
<path d="M211.155 32.4986L203.055 24.3899L209.234 19.1094L216.444 26.3108L211.155 32.4986Z" fill="#455A64"/>
<path d="M57.7352 188.102C53.8551 188.102 50.0622 189.252 46.836 191.408C43.6099 193.563 41.0954 196.627 39.6105 200.212C38.1257 203.797 37.7372 207.741 38.4942 211.547C39.2511 215.352 41.1195 218.848 43.8632 221.592C46.6068 224.335 50.1024 226.204 53.9079 226.961C57.7134 227.718 61.6579 227.329 65.2426 225.844C68.8274 224.359 71.8913 221.845 74.0469 218.619C76.2026 215.393 77.3531 211.6 77.3531 207.72C77.3531 202.517 75.2863 197.527 71.6072 193.848C67.9281 190.168 62.9382 188.102 57.7352 188.102ZM57.7352 216.915C55.9212 216.915 54.148 216.378 52.6398 215.37C51.1316 214.362 49.9561 212.93 49.2619 211.254C48.5677 209.578 48.3861 207.734 48.74 205.955C49.0939 204.176 49.9674 202.542 51.25 201.259C52.5327 199.976 54.1668 199.103 55.9459 198.749C57.725 198.395 59.5691 198.577 61.2449 199.271C62.9208 199.965 64.3532 201.14 65.3609 202.649C66.3687 204.157 66.9066 205.93 66.9066 207.744C66.9066 210.176 65.9403 212.509 64.2203 214.229C62.5004 215.949 60.1676 216.915 57.7352 216.915Z" fill="#455A64"/>
<path d="M61.5119 188.92H53.959L54.3759 183.566H61.095L61.5119 188.92Z" fill="#455A64"/>
<path d="M47.1347 191.463L41.797 196.8L38.3066 192.73L43.0558 187.98L47.1347 191.463Z" fill="#455A64"/>
<path d="M38.7639 203.428V210.981L33.418 210.564V203.845L38.7639 203.428Z" fill="#455A64"/>
<path d="M41.3146 217.807L46.6523 223.153L42.5816 226.635L37.8242 221.886L41.3146 217.807Z" fill="#455A64"/>
<path d="M53.2812 226.178H60.8342L60.4173 231.524H53.6981L53.2812 226.178Z" fill="#455A64"/>
<path d="M67.6602 223.627L72.9979 218.289L76.4882 222.368L71.7391 227.117L67.6602 223.627Z" fill="#455A64"/>
<path d="M76.0293 211.66V204.107L81.3752 204.524V211.243L76.0293 211.66Z" fill="#455A64"/>
<path d="M73.4803 197.281L68.1426 191.943L72.2133 188.453L76.9707 193.21L73.4803 197.281Z" fill="#455A64"/>
<path d="M428.419 269.354C424.539 269.354 420.746 270.504 417.52 272.66C414.293 274.815 411.779 277.879 410.294 281.464C408.809 285.049 408.421 288.993 409.178 292.799C409.935 296.604 411.803 300.1 414.547 302.844C417.29 305.587 420.786 307.456 424.592 308.213C428.397 308.969 432.341 308.581 435.926 307.096C439.511 305.611 442.575 303.097 444.73 299.871C446.886 296.645 448.037 292.852 448.037 288.971C448.037 283.768 445.97 278.779 442.291 275.099C438.612 271.42 433.622 269.354 428.419 269.354ZM428.419 298.176C426.603 298.177 424.827 297.64 423.317 296.633C421.806 295.625 420.628 294.192 419.932 292.515C419.236 290.837 419.053 288.991 419.406 287.21C419.76 285.429 420.633 283.793 421.917 282.508C423.2 281.223 424.836 280.348 426.617 279.993C428.398 279.639 430.244 279.82 431.922 280.514C433.599 281.209 435.034 282.386 436.043 283.895C437.052 285.405 437.59 287.18 437.59 288.996C437.591 290.201 437.355 291.395 436.894 292.508C436.434 293.622 435.759 294.634 434.907 295.486C434.055 296.339 433.044 297.015 431.93 297.477C430.817 297.938 429.624 298.176 428.419 298.176Z" fill="#455A64"/>
<path d="M432.194 270.17H424.641L425.058 264.816H431.777L432.194 270.17Z" fill="#455A64"/>
<path d="M417.816 272.713L412.479 278.059L408.988 273.98L413.737 269.23L417.816 272.713Z" fill="#455A64"/>
<path d="M409.447 284.68V292.233L404.102 291.816V285.097L409.447 284.68Z" fill="#455A64"/>
<path d="M411.994 299.059L417.332 304.404L413.261 307.887L408.504 303.138L411.994 299.059Z" fill="#455A64"/>
<path d="M423.961 307.428H431.514L431.097 312.774H424.378L423.961 307.428Z" fill="#455A64"/>
<path d="M438.34 304.879L443.678 299.541L447.168 303.62L442.419 308.369L438.34 304.879Z" fill="#455A64"/>
<path d="M446.711 292.91V285.357L452.057 285.774V292.493L446.711 292.91Z" fill="#455A64"/>
<path d="M444.162 278.533L438.824 273.195L442.895 269.705L447.652 274.462L444.162 278.533Z" fill="#455A64"/>
<path d="M148.755 77.5703H68.8359V157.489H148.755V77.5703Z" fill="#41BD91"/>
<path d="M86.8932 69.8379H81.0078V77.5706H86.8932V69.8379Z" fill="#41BD91"/>
<path d="M103.456 69.8379H97.5703V77.5706H103.456V69.8379Z" fill="#41BD91"/>
<path d="M120.014 69.8379H114.129V77.5706H120.014V69.8379Z" fill="#41BD91"/>
<path d="M136.577 69.8379H130.691V77.5706H136.577V69.8379Z" fill="#41BD91"/>
<path d="M86.8932 69.8379H81.0078V77.5706H86.8932V69.8379Z" fill="#41BD91"/>
<path d="M103.456 69.8379H97.5703V77.5706H103.456V69.8379Z" fill="#41BD91"/>
<path d="M120.014 69.8379H114.129V77.5706H120.014V69.8379Z" fill="#41BD91"/>
<path d="M136.577 69.8379H130.691V77.5706H136.577V69.8379Z" fill="#41BD91"/>
<path d="M61.1035 139.425V145.311H68.8363V139.425H61.1035Z" fill="#41BD91"/>
<path d="M61.1035 122.865V128.75H68.8363V122.865H61.1035Z" fill="#41BD91"/>
<path d="M61.0957 106.302V112.188H68.8285V106.302H61.0957Z" fill="#41BD91"/>
<path d="M61.1035 89.7416V95.627H68.8363V89.7416H61.1035Z" fill="#41BD91"/>
<path d="M130.701 165.215H136.586V157.482H130.701V165.215Z" fill="#41BD91"/>
<path d="M114.13 165.215H120.016V157.482H114.13V165.215Z" fill="#41BD91"/>
<path d="M97.5677 165.215H103.453V157.482H97.5677V165.215Z" fill="#41BD91"/>
<path d="M80.9994 165.215H86.8848V157.482H80.9994V165.215Z" fill="#41BD91"/>
<path d="M156.48 95.6276V89.7422H148.748V95.6276H156.48Z" fill="#41BD91"/>
<path d="M156.48 112.188V106.303H148.748V112.188H156.48Z" fill="#41BD91"/>
<path d="M156.48 128.749V122.863H148.748V128.749H156.48Z" fill="#41BD91"/>
<path d="M156.48 145.309V139.424H148.748V145.309H156.48Z" fill="#41BD91"/>
<path d="M109.119 127.833H95.5907L92.8605 135.067C92.6276 135.644 92.2278 136.138 91.7122 136.486C91.1967 136.834 90.5889 137.021 89.9668 137.021C89.6054 137.024 89.2461 136.966 88.9042 136.849C88.1371 136.552 87.5163 135.967 87.1743 135.219C86.8323 134.471 86.796 133.619 87.0732 132.844L99.3344 100.041C99.5702 99.4553 99.979 98.9553 100.506 98.6078C101.033 98.2602 101.654 98.0816 102.285 98.0957C102.918 98.0732 103.543 98.2485 104.071 98.5972C104.6 98.9458 105.007 99.4505 105.236 100.041L117.546 132.844C117.823 133.62 117.786 134.473 117.442 135.221C117.098 135.969 116.476 136.554 115.707 136.849C115.369 136.97 115.012 137.029 114.653 137.021C114.035 137.028 113.431 136.844 112.921 136.494C112.412 136.145 112.024 135.646 111.808 135.067L109.119 127.833ZM106.838 121.703L102.326 109.727L97.814 121.703H106.838Z" fill="white"/>
<path d="M130.689 102.216C130.696 102.615 130.623 103.012 130.475 103.383C130.326 103.753 130.106 104.091 129.826 104.375C129.546 104.66 129.212 104.886 128.844 105.04C128.476 105.194 128.081 105.274 127.681 105.273C126.878 105.265 126.11 104.938 125.546 104.366C124.983 103.793 124.669 103.02 124.673 102.216V101.047C124.672 100.652 124.749 100.26 124.9 99.895C125.051 99.5296 125.272 99.1975 125.552 98.918C125.831 98.6385 126.163 98.4169 126.529 98.2661C126.894 98.1153 127.286 98.0383 127.681 98.0393C128.078 98.0338 128.472 98.1079 128.839 98.2571C129.206 98.4063 129.54 98.6277 129.821 98.9081C130.101 99.1886 130.322 99.5224 130.472 99.8898C130.621 100.257 130.695 100.651 130.689 101.047V102.216ZM130.689 112.295V134.055C130.695 134.451 130.621 134.845 130.472 135.212C130.322 135.58 130.101 135.914 129.821 136.194C129.54 136.474 129.206 136.696 128.839 136.845C128.472 136.994 128.078 137.068 127.681 137.063C127.286 137.064 126.894 136.987 126.529 136.836C126.163 136.685 125.831 136.464 125.552 136.184C125.272 135.905 125.051 135.573 124.9 135.207C124.749 134.842 124.672 134.45 124.673 134.055V112.295C124.661 111.894 124.73 111.495 124.876 111.121C125.022 110.748 125.243 110.407 125.524 110.121C125.805 109.835 126.141 109.608 126.511 109.455C126.882 109.302 127.28 109.225 127.681 109.23C128.084 109.22 128.484 109.294 128.857 109.445C129.23 109.597 129.568 109.823 129.85 110.111C130.132 110.398 130.352 110.74 130.496 111.116C130.64 111.491 130.706 111.893 130.689 112.295Z" fill="white"/>
<path opacity="0.2" d="M113.9 77.5703H87.2282L148.771 139.097V112.409L113.9 77.5703ZM68.8281 126.697V153.361L72.9152 157.448H99.5793L68.8281 126.697ZM131.606 77.5703H127.747L148.771 98.6106V94.736L131.606 77.5703ZM68.8608 94.736V98.5779L127.764 157.481H131.606L68.8608 94.736ZM68.8608 117.91V121.792L104.59 157.505H108.432L68.8608 117.91Z" fill="white"/>
<path d="M177.089 192.679C176.656 192.802 169.732 187.072 169.324 186.508C168.915 185.944 168.506 183.614 169.127 181.726C169.749 179.838 172.005 177.868 172.659 177.859C173.313 177.851 181.127 182.143 181.65 182.919C182.173 183.696 181.593 191.42 177.089 192.679Z" fill="#37474F"/>
<path d="M181.68 182.919C181.132 182.143 173.318 177.851 172.689 177.859C172.386 177.906 172.103 178.036 171.871 178.235C174.119 180.091 177.773 183.14 178.41 183.876C179.301 184.889 179.686 188.78 179.449 191.142C181.803 188.469 182.113 183.532 181.68 182.919Z" fill="#263238"/>
<path d="M179.686 163.784C179.906 162.501 182.612 161.078 185.686 161.07C187.051 161.07 191.71 166.081 192.56 168.043C193.732 170.866 194.752 173.751 195.617 176.683C195.617 177.304 187.672 177.68 187.067 177.222C186.462 176.765 184.615 170.348 183.037 168.165C181.46 165.983 179.612 164.234 179.686 163.784Z" fill="#37474F"/>
<path d="M193.377 177.222C191.138 176.061 189.29 172.244 188.375 170.977C187.557 169.865 182.539 164.936 180.315 162.803C180.004 163.055 179.783 163.403 179.686 163.792C179.612 164.241 181.451 165.982 183.037 168.173C184.623 170.364 186.454 176.764 187.067 177.23C187.459 177.516 190.982 177.467 193.377 177.222Z" fill="#263238"/>
<path d="M180.29 183.664C179.71 183.607 172.026 175.327 171.822 174.803C171.332 173.528 172.999 170.291 174.323 169.286C175.648 168.28 180.331 168.101 180.863 168.223C182.954 169.499 184.953 170.919 186.846 172.474C187.582 173.16 191.922 180.166 191.832 180.468C191.742 180.771 180.961 183.73 180.29 183.664Z" fill="#37474F"/>
<path d="M206.141 181.751C205.029 180.754 195.294 173.176 193.561 173.168C191.828 173.16 186.882 175.285 183.874 177.607C179.885 180.68 176.518 186.868 176.166 190.154C175.815 193.44 184.945 204.475 185.926 204.385C186.907 204.295 195.392 201.205 199.512 196.922C204.359 191.895 207.138 182.65 206.141 181.751Z" fill="#37474F"/>
<path d="M194.647 173.699C192.667 174.384 190.736 175.204 188.868 176.151C186.984 177.055 185.272 178.281 183.808 179.773C182.395 181.314 181.158 183.008 180.122 184.824C179.069 186.632 178.122 188.499 177.285 190.415C178.065 188.469 178.983 186.582 180.032 184.767C181.055 182.933 182.28 181.219 183.686 179.658C185.176 178.17 186.913 176.95 188.819 176.053C190.692 175.107 192.642 174.319 194.647 173.699Z" fill="#263238"/>
<path d="M196.003 174.623C193.943 175.34 191.933 176.195 189.987 177.182C188.021 178.125 186.235 179.403 184.707 180.958C183.237 182.567 181.949 184.332 180.865 186.222C179.771 188.11 178.786 190.059 177.914 192.059C178.725 190.028 179.681 188.058 180.775 186.165C181.843 184.255 183.12 182.47 184.584 180.844C186.135 179.287 187.948 178.014 189.938 177.083C191.89 176.099 193.918 175.277 196.003 174.623Z" fill="#263238"/>
<path d="M197.263 175.514C195.126 176.254 193.043 177.139 191.026 178.162C188.99 179.137 187.139 180.459 185.557 182.069C184.034 183.736 182.702 185.568 181.585 187.53C180.445 189.481 179.421 191.498 178.52 193.57C179.361 191.469 180.353 189.431 181.487 187.472C182.591 185.491 183.916 183.64 185.435 181.955C187.044 180.348 188.919 179.031 190.977 178.064C192.999 177.044 195.101 176.191 197.263 175.514Z" fill="#263238"/>
<path d="M198.118 176.627C195.985 177.369 193.904 178.254 191.89 179.275C189.853 180.253 188 181.575 186.413 183.183C184.893 184.852 183.56 186.683 182.44 188.643C181.304 190.596 180.28 192.613 179.375 194.684C180.22 192.584 181.211 190.546 182.342 188.586C183.454 186.619 184.778 184.78 186.29 183.101C187.899 181.494 189.774 180.177 191.832 179.21C193.854 178.18 195.956 177.316 198.118 176.627Z" fill="#263238"/>
<path d="M199.451 177.582C197.24 178.349 195.082 179.264 192.994 180.32C190.884 181.346 188.968 182.729 187.329 184.407C185.762 186.136 184.391 188.033 183.242 190.064C182.059 192.082 180.999 194.17 180.07 196.317C180.927 194.13 181.941 192.007 183.103 189.966C184.25 187.914 185.621 185.995 187.19 184.244C188.851 182.582 190.787 181.218 192.912 180.214C195.017 179.162 197.204 178.281 199.451 177.582Z" fill="#263238"/>
<path d="M200.972 178.547C198.698 179.331 196.48 180.271 194.335 181.359C192.17 182.397 190.201 183.802 188.515 185.511C186.898 187.284 185.484 189.23 184.297 191.315C183.078 193.388 181.986 195.534 181.027 197.74C181.923 195.507 182.978 193.34 184.183 191.258C185.359 189.153 186.769 187.187 188.384 185.397C190.09 183.685 192.081 182.286 194.269 181.261C196.425 180.173 198.667 179.266 200.972 178.547Z" fill="#263238"/>
<path d="M202.38 179.504C200.023 180.32 197.723 181.295 195.498 182.422C193.246 183.498 191.199 184.958 189.449 186.738C187.771 188.578 186.301 190.599 185.067 192.762C183.811 194.92 182.684 197.15 181.691 199.441C182.619 197.123 183.712 194.875 184.961 192.713C186.183 190.526 187.647 188.483 189.326 186.624C191.101 184.849 193.17 183.394 195.44 182.324C197.674 181.198 199.995 180.255 202.38 179.504Z" fill="#263238"/>
<path d="M203.82 180.346C201.396 181.177 199.033 182.176 196.749 183.337C194.438 184.445 192.336 185.944 190.537 187.768C188.81 189.66 187.3 191.738 186.033 193.964C184.74 196.179 183.58 198.469 182.559 200.822C183.522 198.441 184.65 196.13 185.935 193.907C187.194 191.664 188.696 189.567 190.414 187.653C192.238 185.833 194.362 184.34 196.692 183.239C198.988 182.089 201.371 181.122 203.82 180.346Z" fill="#263238"/>
<path d="M224.54 209.119C215.949 193.334 206.933 178.874 206.933 178.874C206.933 178.874 201.334 176.635 191.59 182.389C183.13 187.392 178.512 197.986 178.512 197.986C178.512 197.986 190.233 214.612 204.98 226.088C221.164 224.02 219.889 217.865 224.54 209.119Z" fill="#41BD91"/>
<path opacity="0.1" d="M224.537 209.11C220.303 217.088 220.973 222.899 208.884 225.458C209.358 225.131 217.287 219.842 216.24 209.584C215.349 200.805 206.938 178.89 203.832 178.465C204.884 178.428 205.935 178.571 206.938 178.89C206.938 178.89 215.954 193.334 224.537 209.11Z" fill="black"/>
<path d="M246.708 187.425C243.439 194.087 244.747 201.664 249.667 204.353C254.588 207.043 261.25 203.798 264.544 197.136C267.839 190.474 266.506 182.888 261.577 180.207C256.648 177.526 249.994 180.755 246.708 187.425Z" fill="#37474F"/>
<path d="M246.863 187.505C244.075 193.129 245.228 199.521 249.315 201.778C249.397 201.778 249.478 201.867 249.552 201.9C253.688 203.952 259.148 201.214 261.87 195.696C264.323 190.726 263.726 185.135 260.661 182.339C260.265 181.988 259.832 181.681 259.369 181.424C255.258 179.168 249.634 181.89 246.863 187.505Z" fill="#455A64"/>
<path d="M216.823 228.818C228.676 219.05 239.948 209.143 244.37 204.516C248.98 199.71 252.667 188.773 251.939 185.715C250.558 179.822 242.776 182.666 236.482 184.857C228.684 187.563 215.491 196.579 203.254 205.758C204.357 216.025 207.627 224.788 216.823 228.818Z" fill="#41BD91"/>
<path opacity="0.1" d="M244.411 204.524C239.989 209.143 228.708 219.041 216.864 228.826C214.232 227.699 211.877 226.011 209.965 223.881C225.128 214.807 253.975 193.366 250.345 183.01C251.201 183.651 251.785 184.59 251.98 185.642C252.667 188.822 248.972 199.701 244.411 204.524Z" fill="black"/>
<path d="M217.982 219.368C217.982 219.368 215.996 202.407 219.061 194.494L216.928 194.363C216.928 194.363 209.816 206.625 211.533 220.153L217.982 219.368Z" fill="#263238"/>
<path d="M204.568 223.972C204.568 223.972 204.568 224.012 204.568 224.037C205.108 228.206 210.045 231.01 215.636 230.282C220.541 229.644 224.382 226.497 224.897 222.884C224.963 222.377 224.963 221.863 224.897 221.356C224.399 217.154 219.437 214.326 213.813 215.045C208.189 215.765 204.07 219.729 204.568 223.972Z" fill="#263238"/>
<path d="M204.578 223.97C205.118 228.139 210.055 230.942 215.646 230.215C220.55 229.577 224.392 226.43 224.907 222.817C224.368 218.64 219.431 215.845 213.831 216.564C208.902 217.226 205.101 220.381 204.578 223.97Z" fill="#37474F"/>
<path d="M402.77 152.512C403.211 152.577 409.309 145.972 409.685 145.4C410.061 144.828 410.135 142.416 409.26 140.634C408.386 138.853 405.925 137.177 405.271 137.25C404.617 137.324 397.416 142.58 396.966 143.414C396.517 144.247 398.143 151.833 402.77 152.512Z" fill="#37474F"/>
<path d="M396.966 143.415C397.415 142.598 404.617 137.326 405.271 137.252C405.561 137.271 405.843 137.364 406.088 137.522C404.085 139.655 400.857 143.146 400.317 143.947C399.573 145.066 399.688 148.998 400.219 151.303C397.546 148.941 396.614 144.086 396.966 143.415Z" fill="#263238"/>
<path d="M396.497 124.189C396.113 122.938 393.228 121.875 390.203 122.259C388.846 122.431 384.866 127.981 384.277 130.058C383.471 133.018 382.825 136.02 382.34 139.049C382.397 139.662 390.351 139.049 390.898 138.485C391.446 137.921 392.435 131.357 393.735 128.987C395.034 126.616 396.636 124.622 396.497 124.189Z" fill="#37474F"/>
<path d="M384.637 139.254C386.705 137.823 388.07 133.801 388.797 132.428C389.435 131.227 393.824 125.684 395.745 123.281C396.087 123.491 396.351 123.807 396.497 124.18C396.636 124.614 395.034 126.584 393.735 128.954C392.435 131.325 391.438 137.946 390.898 138.452C390.547 138.796 387.048 139.196 384.637 139.254Z" fill="#263238"/>
<path d="M398.444 143.978C399.008 143.848 405.572 134.652 405.702 134.112C406.029 132.78 403.961 129.788 402.523 128.954C401.084 128.12 396.408 128.546 395.918 128.734C394.007 130.269 392.204 131.935 390.523 133.72C389.877 134.488 386.436 141.992 386.599 142.278C386.763 142.564 397.782 144.125 398.444 143.978Z" fill="#37474F"/>
<path d="M372.565 145.377C373.538 144.249 382.227 135.495 383.944 135.266C385.66 135.037 390.835 136.508 394.112 138.429C398.469 140.963 402.564 146.677 403.357 149.873C404.15 153.069 396.483 165.199 395.494 165.232C394.505 165.265 385.685 163.287 381.066 159.567C375.622 155.211 371.682 146.399 372.565 145.377Z" fill="#37474F"/>
<path d="M382.93 135.928C384.98 136.352 386.998 136.917 388.97 137.62C390.955 138.277 392.81 139.273 394.455 140.562C396.05 141.916 397.492 143.44 398.755 145.107C400.03 146.766 401.209 148.496 402.286 150.29C401.264 148.462 400.114 146.708 398.845 145.042C397.59 143.355 396.154 141.812 394.562 140.44C392.895 139.153 391.017 138.165 389.011 137.522C387.033 136.82 384.998 136.286 382.93 135.928Z" fill="#263238"/>
<path d="M381.738 137.021C383.875 137.461 385.979 138.051 388.032 138.787C390.103 139.47 392.039 140.507 393.754 141.852C395.421 143.259 396.924 144.849 398.234 146.593C399.566 148.32 400.794 150.124 401.912 151.997C400.849 150.087 399.65 148.257 398.324 146.52C397.016 144.762 395.52 143.153 393.861 141.722C392.121 140.382 390.163 139.353 388.073 138.681C386.011 137.953 383.892 137.398 381.738 137.021Z" fill="#263238"/>
<path d="M380.566 138.061C382.786 138.518 384.971 139.129 387.106 139.892C389.243 140.594 391.243 141.662 393.016 143.047C394.736 144.506 396.291 146.151 397.65 147.951C399.031 149.74 400.303 151.61 401.46 153.551C400.357 151.576 399.114 149.683 397.74 147.886C396.39 146.063 394.841 144.396 393.122 142.916C391.32 141.524 389.29 140.456 387.122 139.761C384.986 139.02 382.794 138.451 380.566 138.061Z" fill="#263238"/>
<path d="M379.855 139.277C382.075 139.732 384.26 140.341 386.395 141.1C388.54 141.809 390.545 142.885 392.321 144.28C394.042 145.739 395.596 147.384 396.956 149.184C398.332 150.976 399.604 152.846 400.765 154.784C399.66 152.81 398.418 150.917 397.046 149.119C395.693 147.298 394.144 145.631 392.427 144.149C390.625 142.76 388.595 141.695 386.427 141.002C384.289 140.244 382.091 139.667 379.855 139.277Z" fill="#263238"/>
<path d="M378.672 140.398C380.963 140.872 383.219 141.503 385.424 142.287C387.642 143.012 389.716 144.119 391.554 145.556C393.338 147.069 394.95 148.774 396.361 150.641C397.785 152.495 399.1 154.43 400.301 156.436C399.155 154.393 397.869 152.432 396.451 150.567C395.047 148.683 393.441 146.959 391.661 145.426C389.799 143.983 387.699 142.876 385.456 142.156C383.247 141.383 380.978 140.796 378.672 140.398Z" fill="#263238"/>
<path d="M377.273 141.543C379.628 142.028 381.947 142.676 384.213 143.48C386.491 144.238 388.623 145.379 390.516 146.856C392.336 148.413 393.981 150.164 395.42 152.079C396.898 153.984 398.263 155.974 399.507 158.038C398.333 155.939 397.011 153.926 395.551 152.014C394.116 150.079 392.471 148.308 390.646 146.734C388.732 145.254 386.574 144.12 384.271 143.382C381.993 142.576 379.653 141.961 377.273 141.543Z" fill="#263238"/>
<path d="M376.016 142.67C378.46 143.174 380.867 143.849 383.217 144.689C385.584 145.469 387.797 146.656 389.756 148.196C391.66 149.804 393.377 151.622 394.873 153.615C396.396 155.592 397.799 157.658 399.075 159.803C397.86 157.623 396.494 155.531 394.988 153.542C393.494 151.534 391.783 149.698 389.887 148.065C387.899 146.533 385.662 145.355 383.274 144.583C380.91 143.75 378.483 143.11 376.016 142.67Z" fill="#263238"/>
<path d="M374.684 143.691C377.195 144.204 379.668 144.895 382.081 145.759C384.515 146.56 386.791 147.777 388.809 149.356C390.759 151.014 392.522 152.88 394.065 154.923C395.626 156.957 397.067 159.08 398.38 161.282C397.124 159.044 395.712 156.897 394.154 154.857C392.621 152.793 390.864 150.904 388.915 149.225C386.873 147.652 384.575 146.443 382.122 145.653C379.7 144.797 377.213 144.141 374.684 143.691Z" fill="#263238"/>
<path d="M357.801 174.876C364.34 158.119 371.411 142.646 371.411 142.646C371.411 142.646 376.675 139.703 387.072 144.174C396.105 148.057 402.072 157.964 402.072 157.964C402.072 157.964 392.574 175.947 379.413 189.222C363.049 189.222 363.531 182.952 357.801 174.876Z" fill="#41BD91"/>
<path opacity="0.1" d="M357.793 174.868C363.016 182.225 363.09 188.086 375.408 189.075C374.893 188.822 366.359 184.579 366.098 174.28C365.861 165.452 371.411 142.646 374.436 141.82C373.388 141.916 372.364 142.192 371.411 142.638C371.411 142.638 364.3 158.12 357.793 174.868Z" fill="black"/>
<path d="M334.024 187.425C337.294 194.087 335.986 201.664 331.057 204.353C326.128 207.043 319.474 203.798 316.188 197.136C312.902 190.474 314.226 182.888 319.147 180.207C324.068 177.526 330.73 180.755 334.024 187.425Z" fill="#37474F"/>
<path d="M333.861 187.505C336.64 193.129 335.495 199.521 331.408 201.777C331.327 201.777 331.253 201.867 331.171 201.9C327.035 203.951 321.575 201.213 318.853 195.696C316.401 190.726 317.005 185.135 320.063 182.339C320.451 182.002 320.876 181.708 321.33 181.464C325.474 179.167 331.098 181.889 333.861 187.505Z" fill="#455A64"/>
<path d="M376.392 201.272C361.049 200.503 346.09 199.269 339.78 198.198C333.241 197.086 323.734 190.514 322.467 187.572C320.064 182.005 328.001 179.651 334.361 177.656C342.232 175.204 358.205 174.55 373.507 174.616C378.763 183.575 381.37 192.574 376.392 201.272Z" fill="#41BD91"/>
<path opacity="0.1" d="M339.788 198.206C346.09 199.277 361.041 200.495 376.384 201.28C377.831 198.808 378.716 196.048 378.975 193.195C361.392 194.953 325.459 194.953 322.205 184.498C321.905 185.524 321.995 186.625 322.459 187.588C323.701 190.514 333.216 197.078 339.788 198.206Z" fill="black"/>
<path d="M369.82 194.381C369.82 194.381 361.302 179.577 354.117 175.057L355.752 173.684C355.752 173.684 368.765 179.275 375.46 191.16L369.82 194.381Z" fill="#263238"/>
<path d="M383.307 190.049C383.307 190.049 383.307 190.09 383.307 190.106C385.367 193.776 383.078 198.967 378.149 201.713C373.808 204.165 368.879 203.896 366.305 201.304C365.945 200.943 365.635 200.536 365.381 200.095C363.272 196.425 365.569 191.193 370.506 188.414C375.443 185.635 381.198 186.37 383.307 190.049Z" fill="#263238"/>
<path d="M383.371 190.105C385.431 193.775 383.142 198.966 378.213 201.712C373.872 204.164 368.943 203.895 366.368 201.303C364.309 197.633 366.605 192.443 371.526 189.68C375.826 187.244 380.763 187.514 383.371 190.105Z" fill="#37474F"/>
<path d="M262.876 246.457C262.998 248.762 265.459 267.816 267.51 269.778C269.562 271.74 278.031 275.091 284.415 276.047C292.883 277.306 304.327 274.527 308.749 271.47C313.171 268.413 315.566 246.367 314.291 245.312C313.016 244.258 299.161 237.956 289.082 237.841C277.238 237.727 262.761 244.405 262.876 246.457Z" fill="#37474F"/>
<path d="M266.855 267.996C270.04 269.51 273.316 270.823 276.664 271.928C280.021 273.111 283.545 273.754 287.103 273.832C290.63 273.799 294.145 273.402 297.59 272.647C301.016 271.93 304.4 271.024 307.726 269.933C304.434 271.125 301.064 272.089 297.639 272.819C294.182 273.601 290.655 274.028 287.111 274.094C283.538 273.983 280.004 273.31 276.64 272.1C273.279 270.981 270.008 269.609 266.855 267.996Z" fill="#263238"/>
<path d="M266.352 265.471C269.68 267.051 273.107 268.416 276.61 269.558C280.101 270.79 283.765 271.46 287.465 271.544C291.144 271.504 294.809 271.088 298.402 270.302C301.98 269.558 305.514 268.616 308.988 267.482C305.552 268.716 302.038 269.718 298.468 270.481C294.866 271.299 291.191 271.746 287.498 271.814C283.764 271.705 280.07 271.007 276.553 269.746C273.05 268.579 269.64 267.15 266.352 265.471Z" fill="#263238"/>
<path d="M265.934 263.109C269.382 264.75 272.931 266.17 276.56 267.36C280.175 268.63 283.968 269.323 287.799 269.412C291.608 269.365 295.401 268.929 299.121 268.112C302.82 267.335 306.474 266.355 310.066 265.177C306.506 266.451 302.866 267.489 299.17 268.284C295.436 269.127 291.626 269.587 287.799 269.657C283.942 269.538 280.127 268.812 276.495 267.507C272.869 266.307 269.339 264.837 265.934 263.109Z" fill="#263238"/>
<path d="M266.242 260.951C269.69 262.593 273.24 264.013 276.869 265.202C280.481 266.49 284.274 267.196 288.108 267.294C291.918 267.249 295.714 266.819 299.437 266.011C303.133 265.229 306.784 264.249 310.374 263.076C306.816 264.352 303.176 265.387 299.478 266.174C295.748 267.022 291.941 267.483 288.116 267.548C284.258 267.434 280.442 266.708 276.811 265.398C273.181 264.186 269.647 262.699 266.242 260.951Z" fill="#263238"/>
<path d="M265.828 258.441C269.398 260.142 273.073 261.614 276.831 262.847C280.574 264.166 284.503 264.884 288.471 264.973C292.413 264.93 296.34 264.486 300.192 263.648C304.02 262.835 307.801 261.82 311.522 260.608C307.837 261.925 304.068 262.995 300.241 263.812C296.376 264.684 292.432 265.16 288.471 265.234C284.479 265.113 280.531 264.362 276.773 263.011C273.016 261.764 269.357 260.237 265.828 258.441Z" fill="#263238"/>
<path d="M265.164 255.695C268.829 257.444 272.602 258.957 276.461 260.224C280.305 261.571 284.339 262.303 288.411 262.39C292.464 262.344 296.501 261.884 300.46 261.017C304.391 260.188 308.274 259.146 312.092 257.894C308.304 259.238 304.432 260.33 300.501 261.164C296.535 262.064 292.486 262.551 288.42 262.619C284.319 262.494 280.264 261.724 276.404 260.338C272.546 259.073 268.789 257.521 265.164 255.695Z" fill="#263238"/>
<path d="M264.641 253.078C268.445 254.899 272.363 256.472 276.371 257.786C280.362 259.191 284.549 259.958 288.779 260.059C292.985 260.013 297.176 259.536 301.285 258.637C305.37 257.773 309.404 256.681 313.367 255.367C309.437 256.773 305.417 257.915 301.334 258.784C297.215 259.717 293.01 260.227 288.787 260.304C284.53 260.174 280.321 259.374 276.313 257.934C272.306 256.61 268.404 254.987 264.641 253.078Z" fill="#263238"/>
<path d="M263.945 250.57C267.851 252.437 271.873 254.05 275.986 255.401C280.087 256.848 284.39 257.637 288.738 257.739C293.073 257.694 297.393 257.204 301.628 256.276C305.823 255.39 309.965 254.274 314.037 252.933C309.984 254.378 305.838 255.549 301.628 256.439C297.396 257.399 293.076 257.922 288.738 258.001C284.363 257.86 280.038 257.032 275.92 255.548C271.811 254.189 267.808 252.525 263.945 250.57Z" fill="#263238"/>
<path d="M331.874 202.644C329.871 216.409 328.326 234.172 324.035 247.152C316.163 270.931 289.295 270.702 289.295 270.702C289.295 270.702 265.483 270.931 257.62 247.152C253.32 234.172 251.783 216.409 249.772 202.644C249.254 199.074 249.51 195.433 250.523 191.97C251.535 188.507 253.281 185.303 255.641 182.574C258.001 179.845 260.92 177.655 264.201 176.154C267.481 174.652 271.047 173.874 274.655 173.871H306.943C310.555 173.865 314.126 174.638 317.414 176.136C320.701 177.634 323.627 179.822 325.993 182.552C328.358 185.282 330.108 188.49 331.123 191.957C332.138 195.424 332.394 199.069 331.874 202.644Z" fill="#41BD91"/>
<path opacity="0.1" d="M273.142 176.814C272.646 180.427 272.232 184.04 271.9 187.653C271.567 191.266 271.295 194.879 271.082 198.492C270.673 205.718 270.608 212.933 270.886 220.137C271.099 227.331 271.654 234.516 272.521 241.644C272.946 245.219 273.455 248.777 274.049 252.319C274.643 255.861 275.292 259.403 275.995 262.946C275.139 259.447 274.365 255.929 273.673 252.393C272.981 248.856 272.401 245.314 271.932 241.766C270.979 234.622 270.366 227.434 270.093 220.203C269.821 212.971 269.946 205.737 270.469 198.5C270.72 194.877 271.06 191.261 271.491 187.653C271.921 184.046 272.472 180.433 273.142 176.814Z" fill="black"/>
<path opacity="0.1" d="M268.976 182.805C269.001 183.315 268.839 183.817 268.52 184.216C268.2 184.615 267.746 184.884 267.243 184.971C266.972 185.012 266.695 184.996 266.431 184.924C266.166 184.852 265.919 184.726 265.706 184.554C265.482 184.36 265.3 184.122 265.172 183.855C265.044 183.588 264.973 183.297 264.962 183.001C264.952 182.7 265.004 182.399 265.113 182.118C265.223 181.837 265.388 181.581 265.6 181.366C265.798 181.171 266.035 181.019 266.295 180.921C266.556 180.822 266.834 180.779 267.112 180.794C267.617 180.837 268.088 181.067 268.433 181.438C268.778 181.81 268.971 182.298 268.976 182.805ZM268.976 182.805C268.97 182.564 268.913 182.327 268.809 182.11C268.705 181.893 268.555 181.701 268.371 181.546C268.198 181.405 267.997 181.302 267.781 181.244C267.566 181.186 267.34 181.175 267.12 181.211C266.718 181.287 266.358 181.507 266.106 181.828C265.853 182.15 265.726 182.552 265.747 182.96C265.741 183.276 265.829 183.587 266.001 183.852C266.173 184.117 266.42 184.325 266.711 184.449C267.002 184.573 267.323 184.607 267.633 184.547C267.943 184.487 268.229 184.336 268.452 184.113C268.626 183.943 268.761 183.739 268.851 183.514C268.942 183.289 268.984 183.047 268.976 182.805Z" fill="black"/>
<path opacity="0.1" d="M267.968 196.007C268.02 196.517 267.882 197.028 267.58 197.443C267.279 197.858 266.835 198.147 266.334 198.255C266.066 198.312 265.79 198.313 265.522 198.257C265.255 198.2 265.002 198.088 264.78 197.928C264.547 197.748 264.353 197.521 264.212 197.262C264.071 197.003 263.987 196.717 263.963 196.424C263.941 196.128 263.979 195.832 264.073 195.551C264.167 195.27 264.316 195.011 264.511 194.789C264.698 194.584 264.925 194.421 265.178 194.308C265.431 194.196 265.705 194.137 265.982 194.135C266.486 194.147 266.967 194.345 267.334 194.69C267.7 195.036 267.926 195.505 267.968 196.007ZM267.968 196.007C267.946 195.768 267.875 195.536 267.758 195.326C267.641 195.116 267.482 194.933 267.29 194.789C267.109 194.658 266.903 194.568 266.684 194.523C266.466 194.478 266.241 194.479 266.023 194.527C265.628 194.627 265.283 194.865 265.049 195.198C264.815 195.531 264.708 195.937 264.748 196.342C264.763 196.657 264.871 196.96 265.058 197.213C265.245 197.467 265.504 197.659 265.8 197.766C266.097 197.873 266.418 197.889 266.724 197.813C267.03 197.737 267.307 197.572 267.519 197.339C267.682 197.16 267.807 196.95 267.884 196.72C267.961 196.491 267.99 196.248 267.968 196.007Z" fill="black"/>
<path opacity="0.1" d="M267.404 209.976C267.485 210.476 267.381 210.99 267.112 211.42C266.843 211.85 266.427 212.167 265.941 212.313C265.676 212.386 265.399 212.403 265.127 212.362C264.855 212.321 264.595 212.224 264.363 212.076C264.118 211.914 263.91 211.702 263.751 211.454C263.592 211.206 263.486 210.928 263.44 210.638C263.398 210.343 263.416 210.042 263.494 209.754C263.571 209.466 263.705 209.197 263.889 208.962C264.061 208.746 264.277 208.568 264.522 208.439C264.767 208.311 265.036 208.236 265.312 208.218C265.816 208.199 266.31 208.369 266.697 208.694C267.083 209.018 267.336 209.475 267.404 209.976ZM267.404 209.976C267.368 209.74 267.283 209.514 267.155 209.313C267.027 209.112 266.858 208.94 266.66 208.807C266.471 208.69 266.259 208.612 266.038 208.58C265.817 208.548 265.592 208.561 265.377 208.619C264.988 208.741 264.656 208.999 264.442 209.346C264.227 209.692 264.144 210.104 264.208 210.507C264.262 210.901 264.457 211.262 264.758 211.523C265.059 211.783 265.445 211.925 265.843 211.921C266.067 211.906 266.286 211.847 266.487 211.746C266.688 211.645 266.866 211.504 267.012 211.333C267.166 211.145 267.281 210.928 267.348 210.695C267.416 210.461 267.435 210.217 267.404 209.976Z" fill="black"/>
<path opacity="0.1" d="M267.684 223.921C267.803 224.421 267.734 224.947 267.49 225.399C267.245 225.852 266.843 226.198 266.36 226.373C266.092 226.464 265.808 226.498 265.527 226.472C265.245 226.447 264.972 226.363 264.725 226.226C264.472 226.078 264.252 225.878 264.081 225.64C263.909 225.402 263.789 225.131 263.728 224.844C263.665 224.554 263.664 224.254 263.723 223.963C263.782 223.671 263.9 223.396 264.071 223.152C264.233 222.929 264.439 222.74 264.677 222.6C264.914 222.459 265.178 222.369 265.452 222.335C265.955 222.274 266.462 222.403 266.875 222.697C267.287 222.99 267.576 223.426 267.684 223.921ZM267.684 223.921C267.634 223.687 267.535 223.467 267.395 223.274C267.254 223.081 267.074 222.92 266.867 222.801C266.671 222.695 266.455 222.63 266.233 222.61C266.011 222.59 265.787 222.616 265.575 222.686C265.195 222.832 264.88 223.109 264.688 223.468C264.495 223.827 264.439 224.243 264.529 224.64C264.608 225.034 264.829 225.385 265.15 225.626C265.471 225.867 265.87 225.982 266.27 225.948C266.493 225.922 266.708 225.851 266.902 225.738C267.096 225.626 267.265 225.474 267.398 225.294C267.537 225.097 267.634 224.873 267.683 224.637C267.732 224.401 267.733 224.157 267.684 223.921Z" fill="black"/>
<path opacity="0.1" d="M268.794 237.8C268.922 238.283 268.873 238.796 268.655 239.246C268.438 239.696 268.067 240.053 267.609 240.253C267.355 240.358 267.082 240.407 266.807 240.399C266.532 240.391 266.262 240.324 266.015 240.204C265.753 240.073 265.521 239.888 265.335 239.661C265.149 239.434 265.013 239.171 264.936 238.888C264.856 238.602 264.835 238.303 264.876 238.009C264.917 237.715 265.018 237.432 265.173 237.179C265.382 236.849 265.684 236.588 266.04 236.427C266.397 236.267 266.792 236.215 267.178 236.278C267.564 236.34 267.923 236.515 268.21 236.78C268.497 237.045 268.701 237.388 268.794 237.768V237.8ZM268.794 237.8C268.728 237.571 268.615 237.358 268.463 237.174C268.311 236.99 268.124 236.839 267.912 236.73C267.706 236.641 267.485 236.595 267.262 236.595C267.038 236.595 266.817 236.641 266.612 236.73C266.249 236.891 265.954 237.176 265.781 237.533C265.607 237.891 265.566 238.298 265.664 238.683C265.766 239.073 266.009 239.411 266.345 239.633C266.682 239.855 267.088 239.944 267.487 239.885C267.707 239.846 267.918 239.762 268.105 239.638C268.292 239.515 268.451 239.354 268.574 239.166C268.7 238.964 268.785 238.74 268.823 238.505C268.86 238.271 268.851 238.031 268.794 237.8Z" fill="black"/>
<path opacity="0.1" d="M270.731 251.576C270.898 252.054 270.885 252.577 270.693 253.047C270.502 253.516 270.147 253.9 269.693 254.126C269.451 254.249 269.186 254.321 268.914 254.337C268.642 254.352 268.371 254.311 268.116 254.216C267.847 254.099 267.606 253.928 267.407 253.712C267.209 253.497 267.058 253.242 266.963 252.965C266.866 252.685 266.827 252.389 266.85 252.093C266.872 251.798 266.956 251.51 267.094 251.249C267.282 250.905 267.567 250.625 267.914 250.442C268.26 250.26 268.653 250.184 269.043 250.223C269.432 250.262 269.802 250.415 270.105 250.663C270.408 250.911 270.632 251.242 270.748 251.616L270.731 251.576ZM270.731 251.576C270.653 251.35 270.528 251.143 270.365 250.968C270.202 250.794 270.003 250.655 269.783 250.562C269.575 250.48 269.353 250.441 269.129 250.448C268.906 250.455 268.686 250.507 268.484 250.603C268.124 250.792 267.843 251.103 267.693 251.481C267.543 251.859 267.534 252.278 267.666 252.663C267.792 253.044 268.054 253.366 268.403 253.567C268.751 253.767 269.161 253.832 269.554 253.75C269.776 253.694 269.984 253.593 270.164 253.452C270.345 253.311 270.493 253.134 270.601 252.932C270.822 252.515 270.869 252.027 270.731 251.576Z" fill="black"/>
<path opacity="0.1" d="M331.874 202.644C329.863 216.409 328.318 234.164 324.018 247.152C316.155 270.931 289.286 270.702 289.286 270.702C289.286 270.702 274.99 270.841 264.895 259.855C264.984 259.904 265.091 259.929 265.181 259.978C300.804 274.855 309.624 248.673 314.659 216.843C319.784 184.399 310.482 174.672 304.85 173.871H306.991C310.599 173.875 314.164 174.654 317.444 176.156C320.724 177.658 323.642 179.848 326.002 182.576C328.362 185.305 330.107 188.509 331.12 191.972C332.133 195.434 332.39 199.074 331.874 202.644Z" fill="black"/>
<path d="M263.97 179.193C251.938 185.61 255.837 205.179 257.177 216.483C258.575 226.619 259.85 236.821 262.311 246.728C263.226 249.916 264.117 253.431 266.398 255.973C263.627 253.88 262.196 250.333 260.872 247.21C257.251 237.458 255.551 227.11 254.079 216.876C252.6 205.301 249.992 183.844 264.011 179.16L263.97 179.193Z" fill="white"/>
<path d="M272.801 158.937C272.866 160.654 274.354 174.779 275.727 176.218C277.101 177.656 282.814 180.068 287.171 180.713C292.893 181.531 300.699 179.397 303.732 177.084C306.765 174.771 308.596 158.365 307.737 157.621C306.879 156.878 297.544 152.316 290.702 152.316C282.643 152.316 272.744 157.384 272.801 158.937Z" fill="#37474F"/>
<path d="M275.301 174.926C277.451 176.014 279.671 176.959 281.946 177.754C284.203 178.59 286.586 179.032 288.992 179.062C291.398 179.001 293.788 178.672 296.12 178.081C298.461 177.51 300.767 176.806 303.028 175.972C300.792 176.876 298.495 177.619 296.153 178.195C293.813 178.813 291.411 179.164 288.992 179.242C286.568 179.198 284.169 178.73 281.905 177.86C279.627 177.064 277.419 176.083 275.301 174.926Z" fill="#263238"/>
<path d="M274.98 173.029C277.218 174.168 279.531 175.151 281.904 175.972C284.258 176.854 286.747 177.319 289.261 177.345C291.779 177.278 294.282 176.933 296.724 176.315C299.166 175.725 301.57 174.991 303.925 174.116C301.594 175.062 299.198 175.84 296.756 176.446C294.316 177.081 291.813 177.446 289.293 177.533C286.776 177.482 284.287 176.996 281.937 176.095C279.537 175.267 277.21 174.242 274.98 173.029Z" fill="#263238"/>
<path d="M274.719 171.271C277.034 172.456 279.43 173.478 281.888 174.329C284.322 175.242 286.897 175.723 289.498 175.751C292.095 175.679 294.678 175.323 297.198 174.688C299.726 174.073 302.215 173.309 304.653 172.4C302.241 173.396 299.761 174.215 297.23 174.852C294.703 175.513 292.109 175.891 289.498 175.98C286.88 175.933 284.291 175.43 281.847 174.492C279.386 173.618 277.001 172.541 274.719 171.271Z" fill="#263238"/>
<path d="M274.949 169.67C277.268 170.855 279.666 171.876 282.126 172.727C284.561 173.641 287.136 174.123 289.736 174.149C292.334 174.077 294.916 173.721 297.436 173.087C299.966 172.484 302.458 171.733 304.899 170.839C302.486 171.836 300.002 172.656 297.469 173.291C294.944 173.953 292.353 174.331 289.744 174.419C287.127 174.372 284.538 173.869 282.093 172.931C279.626 172.043 277.237 170.952 274.949 169.67Z" fill="#263238"/>
<path d="M274.695 167.814C277.093 169.039 279.573 170.096 282.117 170.978C284.639 171.92 287.305 172.418 289.997 172.449C292.686 172.376 295.359 172.006 297.967 171.346C300.585 170.706 303.164 169.917 305.692 168.983C303.189 169.993 300.619 170.826 298 171.476C295.383 172.157 292.699 172.547 289.997 172.637C287.288 172.591 284.607 172.071 282.077 171.1C279.53 170.209 277.062 169.11 274.695 167.814Z" fill="#263238"/>
<path d="M274.27 165.779C276.731 167.048 279.28 168.141 281.896 169.049C284.486 170.017 287.224 170.529 289.988 170.561C292.746 170.483 295.487 170.105 298.163 169.433C300.851 168.772 303.499 167.953 306.092 166.981C303.524 168.022 300.885 168.877 298.195 169.539C295.509 170.239 292.754 170.639 289.98 170.733C287.198 170.685 284.445 170.152 281.847 169.155C279.234 168.237 276.7 167.108 274.27 165.779Z" fill="#263238"/>
<path d="M273.938 163.842C276.496 165.152 279.143 166.283 281.858 167.226C284.548 168.23 287.391 168.761 290.261 168.795C293.13 168.719 295.981 168.324 298.762 167.618C301.552 166.945 304.301 166.109 306.994 165.117C304.334 166.189 301.603 167.074 298.82 167.765C296.03 168.497 293.168 168.914 290.286 169.008C287.398 168.957 284.54 168.404 281.842 167.373C279.115 166.413 276.472 165.232 273.938 163.842Z" fill="#263238"/>
<path d="M273.484 161.979C276.111 163.326 278.829 164.486 281.618 165.453C284.379 166.493 287.299 167.046 290.25 167.087C293.198 167.008 296.129 166.602 298.988 165.878C301.853 165.175 304.675 164.307 307.44 163.278C304.702 164.385 301.888 165.294 299.02 166C296.156 166.751 293.217 167.179 290.258 167.275C287.288 167.222 284.351 166.652 281.577 165.591C278.786 164.609 276.079 163.4 273.484 161.979Z" fill="#263238"/>
<path d="M355.687 119.186C360.518 119.276 373.801 133.564 372.853 138.583C371.904 143.602 357.583 152.855 351.493 150.885C348.87 150.035 350.913 119.096 355.687 119.186Z" fill="#41BD91"/>
<path opacity="0.2" d="M355.687 119.186C360.518 119.276 373.801 133.564 372.853 138.583C371.904 143.602 357.583 152.855 351.493 150.885C348.87 150.035 350.913 119.096 355.687 119.186Z" fill="black"/>
<path d="M225.038 119.186C220.215 119.276 206.924 133.564 207.872 138.583C208.821 143.602 223.158 152.855 229.24 150.885C231.855 150.035 229.82 119.096 225.038 119.186Z" fill="#41BD91"/>
<path opacity="0.2" d="M225.038 119.186C220.215 119.276 206.924 133.564 207.872 138.583C208.821 143.602 223.158 152.855 229.24 150.885C231.855 150.035 229.82 119.096 225.038 119.186Z" fill="black"/>
<path d="M354.075 157.841C349.4 167.176 304.336 169.522 289.262 169.522C274.189 169.522 229.133 167.176 224.45 157.841C218.948 146.855 216.978 104.652 218.948 89.4806C220.649 76.2712 264.993 73.7617 289.246 73.7617C313.499 73.7617 357.852 76.2712 359.544 89.4806C361.547 104.627 359.577 146.855 354.075 157.841Z" fill="#41BD91"/>
<path d="M314.815 94.0838C313 97.1328 295.508 97.9011 289.663 97.9011C283.818 97.9011 266.326 97.1328 264.511 94.0838C262.394 90.4872 261.577 76.6892 262.394 71.7275C263.048 67.4034 280.263 66.5859 289.679 66.5859C299.096 66.5859 316.303 67.4034 316.965 71.7275C317.709 76.6892 316.948 90.4872 314.815 94.0838Z" fill="#41BD91"/>
<path opacity="0.1" d="M314.072 93.4621C311.84 95.6201 308.26 95.5956 305.358 96.1841C293.015 97.68 280.452 98.4402 268.117 96.1841C266.784 95.7999 265.403 95.5465 264.349 94.3368C263.122 92.5139 262.714 90.2497 262.305 88.2797C261.392 83.1866 261.118 77.9997 261.488 72.8387C261.519 72.2818 261.626 71.7317 261.806 71.2039C262.333 70.1638 263.198 69.3337 264.259 68.8497C272.98 64.4847 307.459 65.2204 315.478 70.5581C315.821 70.8207 316.097 71.1603 316.284 71.5493C316.472 71.9384 316.565 72.3661 316.557 72.7978C316.729 79.5497 316.688 87.1271 314.105 93.4212L314.072 93.4621ZM314.072 93.4621C316.426 87.7402 316.271 81.2663 316.156 75.201C316.149 74.0934 315.984 72.9924 315.666 71.9314C310.492 66.5773 282.152 68.8988 274.158 69.8306C271.125 70.3374 267.103 70.6072 264.806 72.5608C264.806 72.4055 264.749 72.9041 264.716 73.2311C264.34 79.566 264.324 86.4487 266.196 92.5221C266.368 92.939 266.335 92.9226 266.825 93.2414C274.444 96.9198 307.623 98.7344 314.072 93.4866V93.4621Z" fill="black"/>
<path d="M340.146 147.502C336.59 154.606 300.73 156.388 289.262 156.388C277.793 156.388 241.942 154.606 238.378 147.502C234.192 139.14 232.656 124.378 234.192 112.836C235.484 102.782 270.796 100.877 289.262 100.877C307.727 100.877 343.04 102.782 344.331 112.836C345.835 124.378 344.331 139.14 340.146 147.502Z" fill="#263238"/>
<path d="M293.742 100.908C292.165 100.908 290.669 100.908 289.263 100.908C285.176 100.908 280.353 100.998 275.212 101.243L327.117 153.166C333.771 151.833 338.896 149.994 340.139 147.534C340.139 147.485 340.188 147.46 340.204 147.411L293.742 100.908ZM310.197 101.628L307.271 101.431L343.384 137.561C343.539 136.809 343.686 136.049 343.809 135.264L310.197 101.628ZM252.463 103.557C251.695 103.696 250.926 103.835 250.182 103.99L302.145 155.953C302.963 155.904 303.846 155.863 304.712 155.798L252.463 103.557ZM234.938 136.507C235.166 137.708 235.428 138.877 235.755 140.005L248.082 152.34C249.185 152.618 250.362 152.879 251.588 153.157L234.938 136.507Z" fill="#37474F"/>
<path d="M260.294 115.916H254.531V141.354H260.294V115.916Z" fill="#41BD91"/>
<path d="M323.985 115.916H318.223V141.354H323.985V115.916Z" fill="#41BD91"/>
<path opacity="0.1" d="M354.068 157.833C349.401 167.168 304.337 169.53 289.263 169.53C276.136 169.53 240.218 167.74 228.129 161.094C241.919 164.903 331.875 166.555 339.649 153.533C347.423 140.512 350.995 92.3905 348.959 86.7912C346.981 81.3554 337.924 77.6852 337.36 77.4727C349.54 79.8268 358.809 83.5869 359.578 89.4805C361.548 104.627 359.578 146.847 354.068 157.833Z" fill="black"/>
<path d="M231.464 83.293C223.69 85.9986 224.737 90.429 224.573 97.3934C224.091 109.655 224.418 121.736 224.818 133.956C225.006 140.071 225.186 146.218 225.456 152.316C224.201 146.298 223.262 140.219 222.644 134.104C221.401 121.908 220.707 109.532 221.622 97.2708C222.096 90.2165 222.595 83.6772 231.431 83.3011L231.464 83.293Z" fill="white"/>
<path d="M272.961 279.652C272.961 282.104 280.857 284.908 287.993 284.908C295.129 284.908 305.502 282.121 305.502 280.004C305.502 277.887 295.088 280.167 287.658 280.085C282.157 279.995 272.961 277.748 272.961 279.652Z" fill="#37474F"/>
<path d="M172.258 185.921L178.617 184.744L180.04 178.041L181.462 184.744L187.821 185.921L181.486 187.474L180.04 193.801L178.585 187.474L172.258 185.921Z" fill="white"/>
<path d="M371.305 166.204L377.664 165.027L379.087 158.324L380.509 165.027L386.868 166.204L380.542 167.749L379.087 174.084L377.64 167.749L371.305 166.204Z" fill="white"/>
<path d="M235.148 86.9561L241.508 85.779L242.93 79.0762L244.353 85.779L250.712 86.9642L244.377 88.5091L242.93 94.8441L241.483 88.5091L235.148 86.9561Z" fill="white"/>
<path d="M395.059 139.9L398.614 139.238L399.407 135.494L400.2 139.238L403.756 139.9L400.216 140.766L399.407 144.306L398.598 140.766L395.059 139.9Z" fill="white"/>
<path d="M227.785 155.953L231.341 155.299L232.134 151.547L232.927 155.299L236.482 155.953L232.943 156.819L232.134 160.359L231.325 156.819L227.785 155.953Z" fill="white"/>
<path d="M265.793 260.623L269.349 259.961L270.142 256.217L270.935 259.961L274.49 260.623L270.951 261.489L270.142 265.029L269.332 261.489L265.793 260.623Z" fill="white"/>
<path d="M341.07 91.3609L344.626 90.707L345.419 86.9551L346.212 90.707L349.768 91.3609L346.228 92.2274L345.419 95.7668L344.61 92.2274L341.07 91.3609Z" fill="white"/>
<path d="M390.46 156.314C390.733 156.314 390.995 156.205 391.188 156.012C391.381 155.819 391.49 155.557 391.49 155.284C391.49 155.011 391.381 154.749 391.188 154.556C390.995 154.362 390.733 154.254 390.46 154.254C390.186 154.254 389.925 154.362 389.731 154.556C389.538 154.749 389.43 155.011 389.43 155.284C389.43 155.557 389.538 155.819 389.731 156.012C389.925 156.205 390.186 156.314 390.46 156.314Z" fill="white"/>
<path d="M341.487 108.544C341.76 108.544 342.022 108.436 342.215 108.243C342.408 108.049 342.517 107.787 342.517 107.514C342.517 107.241 342.408 106.979 342.215 106.786C342.022 106.593 341.76 106.484 341.487 106.484C341.214 106.484 340.952 106.593 340.759 106.786C340.566 106.979 340.457 107.241 340.457 107.514C340.457 107.787 340.566 108.049 340.759 108.243C340.952 108.436 341.214 108.544 341.487 108.544Z" fill="white"/>
<path d="M232.15 95.5706C232.331 95.5515 232.498 95.4661 232.62 95.3311C232.741 95.196 232.809 95.0207 232.809 94.839C232.809 94.6573 232.741 94.482 232.62 94.3469C232.498 94.2119 232.331 94.1265 232.15 94.1074C231.97 94.1265 231.803 94.2119 231.681 94.3469C231.559 94.482 231.492 94.6573 231.492 94.839C231.492 95.0207 231.559 95.196 231.681 95.3311C231.803 95.4661 231.97 95.5515 232.15 95.5706Z" fill="white"/>
<path d="M230.571 205.988C230.764 205.988 230.949 205.912 231.086 205.775C231.222 205.639 231.299 205.454 231.299 205.261C231.299 205.068 231.222 204.883 231.086 204.746C230.949 204.61 230.764 204.533 230.571 204.533C230.378 204.533 230.193 204.61 230.057 204.746C229.92 204.883 229.844 205.068 229.844 205.261C229.844 205.454 229.92 205.639 230.057 205.775C230.193 205.912 230.378 205.988 230.571 205.988Z" fill="white"/>
<path d="M307.726 190.407C310.268 190.407 310.276 186.459 307.726 186.459C305.176 186.459 305.184 190.407 307.726 190.407Z" fill="white"/>
<g opacity="0.2">
<path d="M447.759 121.925C447.251 128.73 445.069 135.303 441.408 141.061L430.781 134.873C433.331 130.972 434.925 126.525 435.432 121.893L447.759 121.925Z" fill="#41BD91"/>
<path d="M447.892 118.72C447.892 119.17 447.892 119.619 447.892 120.061H435.631C435.631 119.619 435.631 119.17 435.631 118.72C435.628 113.814 434.405 108.985 432.07 104.67C429.735 100.354 426.363 96.688 422.258 94.0014L428.421 83.375C434.379 87.1512 439.288 92.3705 442.692 98.5492C446.095 104.728 447.884 111.666 447.892 118.72Z" fill="#41BD91"/>
<path d="M426.818 82.3535L420.679 92.9799C416.48 90.5733 411.752 89.2397 406.914 89.0972V76.8359C413.908 76.9676 420.755 78.8656 426.818 82.3535Z" fill="#41BD91"/>
<path d="M405.058 76.8359V89.0972C400.06 89.2487 395.181 90.666 390.88 93.2164C386.578 95.7668 382.994 99.3669 380.462 103.68L369.836 97.5411C373.45 91.3687 378.584 86.2249 384.75 82.6004C390.916 78.9758 397.908 76.9912 405.058 76.8359Z" fill="#41BD91"/>
<path d="M379.57 105.347C377.543 109.334 376.455 113.732 376.39 118.204H364.129C364.187 111.573 365.839 105.052 368.943 99.1914L379.57 105.347Z" fill="#41BD91"/>
<path d="M389.486 143.316L383.331 153.942C377.611 150.278 372.872 145.274 369.523 139.364C366.174 133.454 364.318 126.817 364.113 120.027H376.375C376.577 124.666 377.869 129.192 380.147 133.238C382.425 137.285 385.624 140.737 389.486 143.316Z" fill="#41BD91"/>
<path d="M440.396 142.604C434.396 151.264 425.352 157.344 415.067 159.63C404.783 161.917 394.014 160.242 384.91 154.939L391.065 144.313C397.349 147.981 404.763 149.207 411.893 147.756C419.023 146.306 425.37 142.281 429.721 136.449L440.396 142.604Z" fill="#41BD91"/>
<path d="M423.965 126.313C428.148 116.387 423.492 104.949 413.566 100.766C403.639 96.5835 392.202 101.239 388.019 111.166C383.836 121.092 388.492 132.529 398.418 136.712C408.345 140.895 419.782 136.239 423.965 126.313Z" fill="#41BD91"/>
</g>
<g opacity="0.2">
<path d="M214.508 165.705C214.009 172.507 211.839 179.08 208.189 184.841L197.562 178.686C200.112 174.785 201.706 170.338 202.214 165.705H214.508Z" fill="#41BD91"/>
<path d="M214.64 162.502C214.64 162.952 214.64 163.401 214.64 163.843H202.379C202.379 163.401 202.379 162.952 202.379 162.502C202.382 157.597 201.165 152.768 198.838 148.45C196.511 144.132 193.146 140.461 189.047 137.767L195.202 127.141C201.157 130.922 206.06 136.146 209.458 142.327C212.856 148.509 214.639 155.448 214.64 162.502Z" fill="#41BD91"/>
<path d="M193.568 126.135L187.429 136.761C183.23 134.355 178.502 133.021 173.664 132.878V120.617C180.658 120.749 187.505 122.647 193.568 126.135Z" fill="#41BD91"/>
<path d="M171.808 120.617V132.878C166.81 133.03 161.931 134.447 157.63 136.998C153.328 139.548 149.744 143.148 147.212 147.461L136.586 141.322C140.2 135.15 145.334 130.006 151.5 126.382C157.666 122.757 164.658 120.772 171.808 120.617Z" fill="#41BD91"/>
<path d="M146.32 149.128C144.293 153.115 143.206 157.513 143.14 161.986H130.879C130.937 155.354 132.589 148.833 135.693 142.973L146.32 149.128Z" fill="#41BD91"/>
<path d="M156.236 187.097L150.081 197.723C144.361 194.059 139.622 189.055 136.273 183.145C132.924 177.235 131.068 170.598 130.863 163.809H143.125C143.327 168.448 144.619 172.974 146.897 177.02C149.175 181.066 152.374 184.518 156.236 187.097Z" fill="#41BD91"/>
<path d="M207.146 186.37C201.146 195.03 192.102 201.11 181.817 203.396C171.533 205.682 160.764 204.007 151.66 198.705L157.815 188.078C164.099 191.747 171.513 192.972 178.643 191.522C185.773 190.072 192.12 186.046 196.471 180.215L207.146 186.37Z" fill="#41BD91"/>
<path d="M172.746 182.013C183.517 182.013 192.249 173.281 192.249 162.509C192.249 151.738 183.517 143.006 172.746 143.006C161.974 143.006 153.242 151.738 153.242 162.509C153.242 173.281 161.974 182.013 172.746 182.013Z" fill="#41BD91"/>
</g>
</svg>
