<svg width="712" height="400" viewBox="0 0 712 400" fill="none" xmlns="http://www.w3.org/2000/svg">
<rect width="743" height="465" transform="translate(-7.64844 -49)" fill="#E7F7F1"/>
<path d="M78.1224 349.082C78.1224 349.082 -0.281246 265.731 53.0589 168.644C94.2114 93.7463 193.756 107.092 244.834 138.772C266.589 152.257 313.331 127.519 372.609 52.3776C441.429 -34.8564 707.856 18.3675 661.839 185.04C639.573 265.696 729.606 268.628 683.731 349.252L78.1224 349.082Z" fill="#B6E5D4" fill-opacity="0.5"/>
<path d="M636.172 348.416H437.264C427.705 348.413 418.538 344.613 411.78 337.852C405.022 331.092 401.226 321.923 401.227 312.364V140.156C401.236 113.519 409.088 87.4738 423.804 65.2706C438.52 43.0674 459.449 25.689 483.978 15.3036C498.393 9.20982 494.94 5.5154 510.56 4.66212C513.066 4.52727 534.2 4.64584 536.73 4.64584C554.528 4.63239 572.155 8.12811 588.601 14.933C605.047 21.7379 619.99 31.7185 632.575 44.3039C645.161 56.8892 655.141 71.8323 661.946 88.2784C668.751 104.724 672.247 122.351 672.233 140.149V312.357C672.234 317.093 671.303 321.783 669.491 326.158C667.679 330.534 665.023 334.509 661.674 337.858C658.325 341.207 654.349 343.863 649.974 345.674C645.598 347.486 640.908 348.417 636.172 348.416ZM443.56 147.338H629.879V140.156C629.879 88.7876 588.087 46.9981 536.718 46.9981C485.35 46.9981 443.56 88.7876 443.56 140.156V147.338Z" fill="#B6E5D4"/>
<path d="M612.177 348.414H413.271C403.71 348.414 394.54 344.616 387.779 337.855C381.018 331.094 377.22 321.924 377.22 312.363V140.155C377.146 122.313 380.596 104.632 387.373 88.1269C394.15 71.6219 404.119 56.6176 416.709 43.9752C429.299 31.3329 444.262 21.3013 460.739 14.4564C477.216 7.61147 494.882 4.08789 512.724 4.08789C530.566 4.08789 548.233 7.61147 564.71 14.4564C581.187 21.3013 596.149 31.3329 608.74 43.9752C621.33 56.6176 631.299 71.6219 638.076 88.1269C644.852 104.632 648.303 122.313 648.229 140.155V312.363C648.229 317.097 647.296 321.785 645.485 326.159C643.673 330.533 641.017 334.507 637.67 337.855C634.322 341.203 630.348 343.858 625.974 345.67C621.6 347.482 616.912 348.414 612.177 348.414ZM419.565 147.337H605.884V140.155C605.884 88.7863 564.092 46.9967 512.723 46.9967C461.355 46.9967 419.565 88.7863 419.565 140.155V147.337Z" fill="#92D9C0"/>
<path d="M529.49 214.825C529.494 210.806 528.049 206.92 525.419 203.881C523.094 200.431 518.284 198.068 512.722 198.068C507.161 198.068 502.353 200.44 500.028 203.881C498.212 205.985 496.948 208.508 496.35 211.223C495.752 213.937 495.838 216.757 496.6 219.43C497.363 222.103 498.778 224.544 500.718 226.534C502.659 228.524 505.064 230 507.716 230.83V256.224C507.716 258.272 509.958 259.944 512.722 259.944C515.487 259.944 517.73 258.284 517.73 256.224V230.83C521.14 229.763 524.119 227.634 526.234 224.755C528.35 221.876 529.49 218.397 529.49 214.825Z" fill="#B6E5D4"/>
<path d="M289.874 193.374C289.555 195.527 287.098 198.024 284.475 199.884C281.653 201.895 280.523 203.959 279.521 204.999C279.149 205.422 278.921 205.654 278.921 205.654L275.898 202.15C275.95 202.112 275.997 202.068 276.038 202.018C276.712 201.283 278.421 199.46 279.56 197.384C282.057 192.811 285.547 192.137 285.547 192.137C285.547 192.137 288.895 192.627 289.874 193.374Z" fill="#FFB27D"/>
<path d="M134.214 237.344L136.251 238.997C136.251 238.997 141.831 237 143.077 243.619C143.077 243.619 143.412 246.441 141.627 246.446C139.841 246.451 140.576 246.137 138.046 246.214C135.516 246.29 133.417 244.953 133.047 242.901L131.836 241.161L134.214 237.344Z" fill="#EA8E50"/>
<path d="M133.983 240.896C135.611 239.198 135.478 237.945 135.478 237.945C135.478 237.945 116.664 222.542 114.755 221.286C113.456 220.431 100.34 207.874 93.133 200.659C89.6594 197.19 85.9418 198.388 81.3894 199.694L77.6392 200.768C73.1124 202.068 71.936 208.399 75.649 211.477C86.1115 220.143 103.514 229.889 106.771 231.937C114.855 237.022 130.679 243.065 130.679 243.065C131.913 242.568 133.036 241.83 133.983 240.896Z" fill="#41BD91"/>
<path d="M155.452 335.527C155.452 335.527 160.018 338.947 167.014 337.141C167.014 337.141 172.654 335.855 173.891 338.668C173.891 338.668 165.24 343.063 163.05 344.265C161.401 345.171 159.678 346.59 158.462 347.706C158.234 347.913 157.965 348.071 157.674 348.17C157.382 348.27 157.073 348.309 156.765 348.286C156.458 348.262 156.158 348.176 155.885 348.033C155.612 347.889 155.371 347.692 155.177 347.452C154.796 346.987 154.361 346.427 153.884 345.781C152.55 343.974 149.441 338.134 149.441 338.134L155.452 335.527Z" fill="#60C7A3"/>
<path d="M158.125 333.791C158.125 333.791 155.347 340.201 148.93 339.022C148.93 339.022 135.833 328.206 126.842 316.972C123.948 313.324 121.458 309.632 119.995 306.26C114.039 292.468 97.9613 271.899 87.7383 261.474L113.313 252.223C113.313 252.223 121.504 268.702 132.404 288.941C140.262 303.517 149.523 320.055 158.125 333.791Z" fill="#92D9C0"/>
<path d="M132.406 288.932L126.859 316.972C123.948 313.324 121.458 309.632 119.995 306.26C114.039 292.468 97.9613 271.899 87.7383 261.474L113.313 252.223C113.313 252.223 121.507 268.693 132.406 288.932Z" fill="#60C7A3"/>
<path d="M111.502 339.247C111.502 339.247 111.223 344.362 117.423 345.046C117.423 345.046 120.967 345.064 120.978 348.319L102.955 348.378C102.955 348.378 102.432 347.064 102.304 344.251C102.206 342.091 104.396 336.443 104.396 336.443L111.502 339.247Z" fill="#60C7A3"/>
<path d="M104.926 252.213C104.926 252.213 116.319 264.733 123.552 287.285C127.488 299.557 116.344 330.409 114.166 341.13C114.166 341.13 106.688 341.765 101.576 339.788C101.576 339.788 101.187 317.648 104.177 300.582C105.851 291.033 89.1765 280.157 81.89 262.901C76.9331 251.162 82.9641 251.359 90.3739 251.078L104.926 252.213Z" fill="#92D9C0"/>
<path d="M91.7747 196.36C85.4368 199.94 72.4609 196.639 72.4609 196.639C72.4609 196.639 77.7294 190.615 75.3346 180.91L80.3125 183.437L85.66 186.153C85.9427 187.738 86.1383 189.338 86.2459 190.945C86.3086 191.738 86.3621 192.624 86.3993 193.591C88.3454 194.177 90.1673 195.116 91.7747 196.36Z" fill="#FFB07B"/>
<path d="M115.02 251.566C115.02 252.679 113.736 253.214 113.462 253.268C110.904 253.733 103.767 256.523 97.3356 257.148C91.9207 257.715 86.894 257.176 81.3722 256.067C80.6398 255.92 78.9216 255.458 78.8007 254.758C78.6496 253.993 57.4967 211.638 73.9391 193.445C74.3251 193.018 77.5708 193.787 80.5398 194.492C83.0422 195.083 85.6673 194.868 88.0403 193.878L90.8303 195.343C94.248 197.247 100.716 204.015 101.472 209.325C101.858 212.027 103.402 214.026 103.848 216.4C104.013 217.279 104.183 218.139 104.357 218.974C104.693 220.615 105.04 222.178 105.396 223.661C106.364 227.679 107.384 231.136 108.389 234.124C109.454 237.295 110.5 239.936 111.437 242.14C112.648 245.002 113.671 247.141 114.313 248.778C114.759 249.929 115.02 250.833 115.02 251.566Z" fill="#12AC75"/>
<path d="M114.309 248.778C84.451 234.709 74.1094 207.697 74.1094 207.697C74.1094 207.697 98.3684 216.646 104.353 218.976C104.689 220.617 105.036 222.18 105.392 223.663C106.359 227.681 107.38 231.138 108.385 234.126C109.449 237.297 110.496 239.938 111.433 242.142C112.644 245.002 113.667 247.141 114.309 248.778Z" fill="#41BD91"/>
<path d="M152.186 241.837H135.702C128.099 241.829 120.811 238.805 115.435 233.429C110.06 228.054 107.036 220.765 107.027 213.163V159.455C107.035 151.853 110.059 144.564 115.435 139.189C120.81 133.813 128.099 130.789 135.702 130.781H152.186C159.788 130.789 167.077 133.813 172.453 139.189C177.828 144.564 180.852 151.853 180.86 159.455V213.163C180.851 220.765 177.828 228.054 172.452 233.429C167.076 238.805 159.788 241.829 152.186 241.837ZM135.702 147.717C132.59 147.72 129.606 148.958 127.406 151.159C125.205 153.36 123.968 156.343 123.965 159.455V213.163C123.969 216.275 125.206 219.258 127.407 221.458C129.607 223.658 132.59 224.896 135.702 224.9H152.186C155.297 224.896 158.281 223.658 160.481 221.458C162.681 219.258 163.919 216.275 163.922 213.163V159.455C163.919 156.343 162.682 153.36 160.482 151.159C158.281 148.958 155.298 147.72 152.186 147.717H135.702Z" fill="#F99746"/>
<path d="M325.057 196.202H173.891V176.416H325.057C327.681 176.416 330.198 177.458 332.053 179.314C333.908 181.169 334.95 183.685 334.95 186.309C334.95 188.933 333.908 191.449 332.053 193.304C330.198 195.159 327.681 196.202 325.057 196.202Z" fill="#F99746"/>
<path d="M306.084 192.217H321.962V230.988C321.962 233.094 321.125 235.114 319.636 236.603C318.147 238.092 316.128 238.928 314.022 238.928C311.916 238.928 309.897 238.092 308.408 236.603C306.919 235.114 306.082 233.094 306.082 230.988V192.217H306.084Z" fill="#F99746"/>
<path d="M131.776 240.623L134.357 241.57C134.357 241.57 139.523 237.917 142.741 243.86C142.741 243.86 143.903 246.454 142.062 247.017C140.22 247.58 140.899 247.052 138.302 247.915C135.705 248.777 133.162 248.147 132.185 246.306L130.43 245.018L131.776 240.623Z" fill="#FFB07B"/>
<path d="M133.9 244.274C134.853 241.784 135.295 240.656 135.295 240.656C135.295 240.656 115.8 224.767 113.814 223.402C112.459 222.472 98.9833 212.4 92.4128 204.551C90.8138 202.64 88.7256 201.2 86.3713 200.384C84.017 199.567 81.4852 199.406 79.0464 199.918L74.9521 200.775C70.0115 201.812 68.4049 208.069 72.2388 211.354C83.0361 220.61 101.246 231.349 104.64 233.579C113.068 239.122 131.712 246.889 131.712 246.889C131.712 246.889 133.151 246.229 133.9 244.274Z" fill="#12AC75"/>
<path d="M86.2428 190.941C80.0095 191.292 75.957 186.145 75.957 186.145C75.957 186.145 78.7749 184.584 80.3118 183.434L85.6593 186.149C85.9412 187.735 86.136 189.334 86.2428 190.941Z" fill="#EA8E50"/>
<path d="M88.9012 184.546C88.9012 184.546 79.4547 191.324 75.3255 185.376C71.1963 179.429 67.188 176.309 73.0494 171.722C78.9107 167.134 81.6658 168.587 83.5258 170.238C85.3858 171.889 91.2518 182.628 88.9012 184.546Z" fill="#FFB07B"/>
<path d="M84.5251 164.867C84.3328 163.526 83.9622 162.216 83.4231 160.973C83.4231 160.973 82.8302 163.428 78.343 163.088C73.8557 162.749 66.7459 163.53 64.3744 168.643C64.2232 168.968 64.0907 169.303 63.9698 169.647C63.542 168.513 63.4374 166.813 63.4374 166.813C62.5841 169.015 63.4374 171.768 63.4374 171.768L63.4025 172C62.4121 172.837 61.582 175.441 61.582 175.441C61.8796 174.713 62.6097 174.241 63.2584 173.948C63.2374 177.927 64.851 181.816 67.6759 182.974C71.819 184.669 71.7841 183.376 75.9505 186.138C75.9505 186.138 77.0665 184.743 76.3039 183.813C75.5413 182.883 72.6653 181.528 74.2742 180.175C75.8831 178.822 76.4737 180.342 77.0642 179.412C77.6548 178.482 74.695 175.771 78.5034 173.232C82.3117 170.693 84.8623 167.153 84.5251 164.867Z" fill="#212121"/>
<path d="M249.96 343.022L246.472 344.319C246.472 344.319 231.36 323.355 229.5 304.91C229.167 301.618 229.267 298.428 229.997 295.482C229.997 295.482 229.849 294.638 229.591 293.146C229.472 292.448 229.323 291.614 229.156 290.651C228.665 287.838 227.993 283.985 227.214 279.598C225.436 269.503 223.132 256.599 221.344 247.113L222.274 246.813L232.418 243.54L234.51 236.881L242.064 234.891C242.064 234.891 243.752 238.192 245.261 253.786C245.54 255.832 245.791 258.087 245.982 260.528C246.678 269.634 246.437 278.788 245.263 287.845C244.916 290.554 244.474 293.349 243.938 296.229C243.541 298.335 243.473 301.209 243.647 304.506C244.419 319.59 249.96 343.022 249.96 343.022Z" fill="#12AC75"/>
<path d="M245.993 260.535L229.591 293.146C229.472 292.448 229.323 291.614 229.156 290.651C228.665 287.838 227.993 283.985 227.214 279.598C225.436 269.503 223.132 256.599 221.344 247.113L222.274 246.813L232.418 243.54L234.51 236.881L242.064 234.891C242.064 234.891 243.752 238.192 245.261 253.786C245.542 255.832 245.803 258.087 245.993 260.535Z" fill="#41BD91"/>
<path d="M238.777 239.067L238.398 235.812C232.037 237.502 215.037 231.09 215.037 231.09C215.037 231.09 208.875 236.507 209.689 249.495C210.082 255.833 210.805 282.768 211.549 290.738C211.821 293.628 212.061 295.683 212.158 296.504C212.175 296.75 212.11 296.995 211.975 297.201C210.877 299.067 209.944 301.024 209.185 303.051C201.786 322.76 210.324 347.031 210.324 347.031L212.537 346.138C212.537 346.138 217.41 319.152 221.363 307.22C222.033 305.195 222.674 303.604 223.262 302.653C224.978 299.884 226.571 295.36 228.017 289.977C230.749 279.803 232.946 266.565 234.411 256.349C234.615 256.358 238.777 239.067 238.777 239.067Z" fill="#12AC75"/>
<path d="M277.596 198.669C279.519 199.434 281.4 200.943 283.26 202.821C283.26 202.821 272.409 221.747 266.164 224.497C262.735 226.009 252.007 214.549 249.791 208.125C249.25 206.555 251.249 201.305 250.593 200.201C249.839 198.943 249.344 197.547 249.136 196.095C249.085 195.907 249.062 195.713 249.068 195.519C248.933 194.421 248.999 193.309 249.263 192.236C249.512 191.599 250.214 191.324 251.258 191.341H251.626C257.245 194.649 264.629 210.887 265.845 211.268C269.028 207.244 277.596 198.669 277.596 198.669Z" fill="#109D6A"/>
<path d="M250.934 199.578C248.937 200.508 246.516 201.136 243.608 201.296C232.669 201.894 230.185 192.305 229.734 185.951C230.939 185.537 232.217 185.379 233.487 185.486C234.263 185.528 235.073 185.609 235.74 185.691C237.079 184.993 239.481 181.596 240.871 175.926L241.336 176.144L249.227 179.864C249.227 179.864 248.39 182.422 247.772 184.891C247.288 186.814 246.942 188.674 247.23 189.192C247.853 189.446 248.225 189.604 248.225 189.604C249.444 192.834 250.351 196.174 250.934 199.578Z" fill="#FFB27D"/>
<path d="M253.682 206.749C253.599 206.968 253.508 207.182 253.41 207.4C250.639 213.366 245.505 238.09 245.505 238.09C246.235 242.533 212.111 237.218 212.025 233.173C210.823 228.881 216.289 221.99 219.372 218.525C219.757 218.091 220.103 217.624 220.407 217.13C221.172 215.892 221.649 214.497 221.802 213.05C222.406 207.316 220.154 194.09 220.76 191.534C220.993 190.535 225.517 196.252 226.057 195.677C226.652 195.052 227.024 194.413 227.066 193.692C227.096 193.137 227.082 192.58 227.024 192.027C226.998 191.762 226.963 191.499 226.924 191.234C226.498 188.458 221.19 189.644 221.19 189.644C223.134 184.962 233.494 185.334 233.492 185.459C233.49 185.585 233.492 185.75 233.492 186.224C233.476 188.131 233.492 193.025 234.104 193.95C234.868 195.113 248.849 200.158 249.588 198.6C250.327 197.042 248.323 189.846 248.249 189.574C249.419 190.086 250.552 190.678 251.641 191.346C253.38 194.857 255.852 200.967 253.682 206.749Z" fill="#92D9C0"/>
<path d="M244.253 155.202C244.236 154.737 243.869 149.622 236.085 149.35C236.085 149.35 239.914 149.815 240.575 151.489C240.575 151.489 237.968 149.41 235.845 150.08C233.723 150.749 232.477 154.467 232.465 155.69C232.453 156.913 233.627 160.854 234.978 161.191C235.515 161.299 236.069 161.299 236.606 161.191C236.222 161.791 235.873 162.412 235.56 163.051C232.453 169.426 235.657 175.657 238.287 174.969C239.972 174.527 240.449 177.405 240.449 177.405L256.833 164.141C256.833 164.141 250.821 151.698 244.253 155.202Z" fill="#2E2E2E"/>
<path d="M249.235 179.828C249.235 179.828 248.398 182.385 247.779 184.855C243.164 183.566 241.765 178.717 241.344 176.117L249.235 179.828Z" fill="#ED985F"/>
<path d="M250.204 182.546C250.204 182.546 239.168 179.989 240.865 173.142C242.562 166.295 242.279 161.352 249.398 162.693C256.517 164.035 257.233 166.985 257.224 169.41C257.214 171.835 253.12 183.035 250.204 182.546Z" fill="#FFB27D"/>
<path d="M257.846 165.521C256.658 163.038 255.263 163.17 254.389 163.612C249.202 158.813 244.117 162.733 244.117 162.733C242.884 165.605 240.691 167.96 237.914 169.394C237.914 169.394 239.611 171.131 244.524 171.094C246.026 171.094 247.547 170.396 248.909 169.443C247.194 171.128 245.257 172.572 243.152 173.735C249.304 172.558 253.431 165.435 253.847 164.667C254.37 165.437 255.365 167.076 255.449 168.459C255.563 170.338 254.917 173.988 255.993 174.128C256.007 174.139 259.625 169.243 257.846 165.521Z" fill="#2E2E2E"/>
<path d="M223.225 348.865H205.69C205.69 348.865 205.269 346.194 206.185 344.169C207.062 342.223 208.436 341.339 208.106 338.986C209.22 340.133 211.035 341.418 213.57 341.079C213.879 341.583 215.574 344.276 216.611 345.031C217.757 345.843 222.863 345.552 223.225 348.865Z" fill="#60C7A3"/>
<path d="M260.846 348.867H243.318C243.318 348.867 242.665 346.077 243.813 344.17C244.834 342.487 244.443 341.526 243.688 340.136C244.619 340.537 245.627 340.727 246.64 340.692C247.512 340.641 248.438 340.245 249.247 339.773C250 340.634 253.232 344.296 254.241 345.021C255.385 345.844 260.493 345.553 260.846 348.867Z" fill="#60C7A3"/>
<path d="M284.688 196.202H311.365L309.881 185.855L286.064 186.811L284.688 196.202Z" fill="#F99746"/>
<path d="M289.374 176.416C288.13 177.655 288.158 181.626 285.536 183.495C282.713 185.507 281.583 187.571 280.581 188.61C280.211 189.034 279.983 189.266 279.983 189.266L276.961 185.762C277.012 185.723 277.058 185.679 277.098 185.63C277.772 184.895 279.484 183.072 280.62 180.996C283.118 176.423 286.61 175.749 286.61 175.749C286.61 175.749 288.393 175.669 289.374 176.416Z" fill="#FFB27D"/>
<path d="M278.811 183L283.257 187.976C283.257 187.976 271.376 198.319 268.895 200.468C267.133 201.967 265.468 203.19 264.113 203.892C263.979 203.963 263.841 204.024 263.699 204.076C260.211 205.604 252.678 205.434 245.152 204.309C244.111 204.158 243.083 203.983 242.079 203.82C238.64 203.245 235.247 202.421 231.928 201.354C230.388 200.883 228.892 200.282 227.454 199.556C227.055 199.36 226.667 199.141 226.292 198.901C220.407 195.374 220.691 192.098 220.803 190.924C220.914 189.749 221.763 188.194 223.727 187.557C228.398 186.041 244.066 192.079 246.375 192.516C247.77 192.809 251.365 194.086 252.576 194.309C254.901 194.723 256.814 194.99 258.126 195.006C258.974 195.006 260.474 194.49 262.285 193.69C265.436 192.307 278.811 183 278.811 183Z" fill="#0D7A53"/>
<path d="M280.559 198.006C280.19 197.399 280.152 196.414 280.152 196.414C280.666 195.095 281.803 193.624 282.226 193.324C282.649 193.024 283.205 192.317 283.338 192.793C283.47 193.27 282.835 195.758 282.094 196.746C281.703 197.294 281.173 197.729 280.559 198.006Z" fill="#FFB27D"/>
<path d="M544.843 138.316C548.584 144.826 553.288 147.337 553.288 147.337H572.855C572.855 147.337 541.984 133.352 544.843 138.316Z" fill="#ED7D2B"/>
<path d="M558.707 189.013C559.216 189.597 559.658 189.564 559.404 190.262C559.404 190.262 559.29 190.608 559.288 190.611C558.823 191.901 557.939 192.805 556.149 194.245C555.917 194.428 555.684 194.582 555.51 194.737C555.463 194.779 555.147 194.842 555.103 194.884C555.059 194.926 554.789 195.491 554.754 195.521C553.085 197.06 553.424 196.614 550.425 199.736C547.003 203.296 547.103 202.928 546.433 202.605C545.866 202.329 545.631 201.675 546.898 199.543L547.084 199.234C547.254 198.953 547.423 198.664 547.591 198.381C549.088 195.823 548.702 194.63 548.349 190.829C548.06 187.739 543.543 173.573 543.543 173.573L550.099 172.445C550.099 172.445 552.076 183.726 554.25 185.465C555.412 186.395 556.716 186.395 557.832 187.093L558.065 187.239C558.721 187.655 558.195 188.427 558.707 189.013Z" fill="#FFB27D"/>
<path d="M559.872 188.676C560.106 188.933 560.261 189.252 560.318 189.595C560.376 189.938 560.333 190.291 560.195 190.61C559.623 191.898 558.119 193.33 556.389 194.765C556.157 194.953 555.964 195.125 555.785 195.286L555.648 195.409L555.543 195.504C553.874 197.043 554.501 197.397 551.5 200.519C548.08 204.079 545.724 204.144 545.055 203.821C544.488 203.544 545.638 201.656 546.915 199.534C549.309 198.6 551.413 197.049 553.013 195.039C555.073 192.412 556.447 189.034 557.849 187.076L558.082 187.223C558.741 187.625 559.343 188.114 559.872 188.676Z" fill="#12AC75"/>
<path d="M505.787 184.197C505.38 186.22 504.068 185.653 500.846 184.865C497.624 184.077 498.37 184.851 493.783 184.342C489.195 183.832 488.779 183.107 488.64 182.423C488.514 181.819 489.472 181.41 491.895 181.128C492.199 181.096 492.506 181.056 492.813 181.019C495.559 180.675 497.568 178.903 500.062 177.45C502.422 176.072 505.947 170.459 505.947 170.459L512.238 170.957C512.238 170.957 508.937 175.969 507.661 178.15C506.91 179.431 506.949 181.128 507.042 182.437C507.107 183.14 505.928 183.474 505.787 184.197Z" fill="#FFB27D"/>
<path d="M500.489 185.479C497.266 184.69 498.034 185.627 493.446 185.118C488.859 184.609 487.469 182.9 487.329 182.219C487.204 181.614 489.471 181.4 491.903 181.119L491.923 181.168C493.89 182.428 496.16 183.133 498.494 183.209C501.605 183.284 504.902 182.393 507.05 182.428C507.13 183.144 507.114 183.867 507.003 184.579C506.597 186.604 503.713 186.264 500.489 185.479Z" fill="#12AC75"/>
<path d="M531.109 144.356L536.992 160.18L544.664 180.84C546.035 180.943 547.413 180.817 548.742 180.468C550.579 179.938 552.695 178.547 552.695 178.547C552.695 178.547 550.563 156.362 546.585 143.628C545.566 140.359 544.425 137.716 543.165 136.228C536.996 128.941 531.109 144.356 531.109 144.356Z" fill="#ED7D2B"/>
<path d="M537.102 119.226C540.954 117.982 551.942 119.579 562.981 121.739L565.292 117.926L589.133 116.066C589.133 116.066 596.987 133.504 592.692 144.629C591.648 147.338 588.233 147.335 588.233 147.338H569.512C557.655 147.338 544.418 139.186 542.707 138.844C539.903 138.284 538.783 143.89 535.981 149.772C533.179 155.654 509.636 175.837 509.636 175.837C509.636 175.837 506.016 175.872 504.521 175.312C502.912 174.71 502.324 173.917 502.324 173.917C502.324 173.917 528.404 122.028 537.102 119.226Z" fill="#F99746"/>
<path d="M565.422 85.0922C573.91 89.7677 591.134 99.4583 591.229 99.3956C591.229 99.3956 597.56 101.781 601.15 99.3956C607.137 95.4221 610.348 84.7225 599.399 75.5155C593.94 70.9236 590.062 69.8053 589.472 62.4746C589.153 58.4965 583.715 45.3672 574.68 46.5809C573.927 46.6938 573.165 46.7443 572.404 46.732C570.794 46.6811 569.203 47.0917 567.819 47.9154C562.702 50.9588 552.695 83.2926 565.422 85.0922Z" fill="#2E2E2E"/>
<path d="M572.537 81.1138C572.497 81.1371 576.722 82.5762 579.53 81.3277C582.183 80.1652 584.18 75.7965 584.15 75.7942C582.946 75.7384 581.62 74.6829 580.602 67.7637L580.088 67.9497L571.453 71.0559C571.453 71.0559 572.079 73.8273 572.483 76.4638C572.825 78.6796 573.006 80.7999 572.537 81.1138Z" fill="#FFB27D"/>
<path d="M571.453 71.0554C571.453 71.0554 572.079 73.8268 572.483 76.4634C577.442 75.5706 579.388 70.6299 580.088 67.9492L571.453 71.0554Z" fill="#ED975D"/>
<path d="M570.169 73.8055C570.169 73.8055 581.982 72.2199 580.883 64.8775C579.783 57.5352 580.564 52.3853 572.978 53.0874C565.391 53.7896 564.345 56.8074 564.117 59.351C563.889 61.8945 567.067 74.0287 570.169 73.8055Z" fill="#FFB27D"/>
<path d="M564.535 55.328C564.535 55.328 572.098 61.838 577.244 62.3705C582.389 62.9029 584.335 61.2452 584.335 61.2452C582.282 59.4079 580.629 57.1683 579.478 54.6654C579.216 54.0765 578.801 53.5683 578.277 53.1935C577.752 52.8187 577.137 52.5908 576.495 52.5334C572.831 52.2149 565.87 52.0707 564.535 55.328Z" fill="#585858"/>
<path d="M569.274 54.7427C569.274 54.7427 566.742 57.1886 565.947 59.0021C565.177 60.7551 564.947 64.9424 565.558 66.6048C565.558 66.6048 561.606 58.9323 563.849 55.2123C566.216 51.2668 569.274 54.7427 569.274 54.7427Z" fill="#585858"/>
<path d="M562.588 98.5174C562.944 122.432 562.686 117.434 565.301 119.703C565.932 120.249 567.703 120.577 570.035 120.73C577.368 121.216 590.263 120.01 590.749 118.654C592.441 113.965 591.246 112.507 592.657 105.33C592.806 104.565 592.988 103.739 593.201 102.84C594.378 97.9083 595.526 96.2319 591.341 88.3107C587.556 81.1357 583.622 75.3116 583.269 75.5232C573.272 81.4519 572.476 76.4694 572.476 76.4694C572.476 76.4694 562.414 86.8529 562.588 98.5174Z" fill="#12AC75"/>
<path d="M536.992 160.181L544.665 180.841C546.035 180.943 547.413 180.818 548.743 180.469C550.579 179.938 552.695 178.548 552.695 178.548C552.695 178.548 550.563 156.363 546.585 143.629L536.992 160.181Z" fill="#F99746"/>
<path d="M572.482 76.4648C572.482 76.4648 562.205 78.2086 560.999 82.6331C559.792 87.0575 552.691 113.067 552.691 113.067C552.691 113.067 557.916 113.997 560.329 111.593C562.742 109.189 568.718 89.2012 568.718 89.2012L572.482 76.4648Z" fill="#12AC75"/>
<path d="M570.035 120.724C577.368 121.21 590.263 120.004 590.749 118.648C592.441 113.959 591.246 112.501 592.657 105.324L589.121 95.3633C589.121 95.3633 589.707 106.454 586.436 109.371C583.164 112.289 573.044 115.003 571.453 117.439C570.689 118.613 570.184 119.794 570.035 120.724Z" fill="#41BD91"/>
<path d="M578.437 116.076C578.437 116.076 571.204 114.464 570.034 115.106C568.865 115.748 566.014 118.087 565.658 118.9C565.303 119.714 568.258 118.282 569.218 118.024C569.841 117.857 571.48 118.426 572.292 118.696C575.705 119.835 577.797 119.249 577.797 119.249L578.437 116.076Z" fill="#FFB27D"/>
<path d="M583.282 75.5156C583.282 75.5156 592.996 76.1131 596.358 80.805C601.092 87.4057 610.483 115.543 605.1 119.295C599.041 123.522 577.519 120.4 577.519 120.4C577.519 120.4 576.803 117.054 577.798 115.434C578.793 113.813 594.991 111.193 595.735 110.451C596.479 109.709 586.389 95.8756 586.389 93.6343C586.389 91.393 583.282 75.5156 583.282 75.5156Z" fill="#12AC75"/>
<path d="M569.687 117.109C569.687 117.109 568.171 119.065 567.674 119.297C567.424 119.434 567.14 119.495 566.855 119.474L567.878 117.635L569.687 117.109Z" fill="#FFB27D"/>
<path d="M570.035 115.096L565.629 117.235C565.715 117.341 565.828 117.424 565.956 117.473C566.084 117.523 566.223 117.539 566.359 117.518C566.901 117.493 568.27 116.993 568.27 116.993L570.035 115.096Z" fill="#FFB27D"/>
<path d="M567.675 122.294H532.814L522.328 96.2148H557.136L567.675 122.294Z" fill="#109D6A"/>
<path d="M532.402 121.279H578.437V122.295H532.812L532.402 121.279Z" fill="#109D6A"/>
<path d="M541.614 109.254C541.351 108.338 541.882 107.594 542.798 107.594C543.28 107.621 543.743 107.794 544.125 108.09C544.507 108.387 544.789 108.793 544.934 109.254C545.197 110.184 544.667 110.914 543.751 110.914C543.268 110.887 542.805 110.714 542.423 110.418C542.041 110.121 541.759 109.715 541.614 109.254Z" fill="white"/>
<path d="M706.636 349.919H38.578C38.3438 349.919 38.1191 349.827 37.9524 349.663C37.7857 349.498 37.6906 349.275 37.6875 349.04C37.6881 348.805 37.7819 348.58 37.9483 348.413C38.1147 348.247 38.3403 348.153 38.5757 348.152H706.636C706.871 348.154 707.095 348.248 707.261 348.415C707.426 348.581 707.519 348.806 707.52 349.04C707.517 349.273 707.423 349.496 707.258 349.66C707.092 349.825 706.869 349.918 706.636 349.919Z" fill="#109D6A"/>
</svg>
