<svg width="712" height="400" viewBox="0 0 712 400" fill="none" xmlns="http://www.w3.org/2000/svg">
<rect width="762" height="762" transform="translate(-21 -14)" fill="#E7F7F1"/>
<path d="M112.169 625.913C249.984 696.749 473.357 696.749 611.202 625.913C749.048 555.078 749.018 440.244 611.202 369.424C473.387 298.604 250.014 298.604 112.169 369.424C-25.6772 440.244 -25.5706 555.093 112.169 625.913Z" fill="#F5F5F5"/>
<path d="M137.501 164.874C137.658 164.971 137.781 165.113 137.855 165.282C137.929 165.451 137.949 165.639 137.912 165.819L83.9776 404.904L82.4536 411.686C81.712 411.74 80.9696 411.593 80.3048 411.26L76.6929 409.172C76.5341 409.077 76.409 408.935 76.3352 408.765C76.2614 408.596 76.2426 408.407 76.2814 408.227L131.572 162.863C131.602 162.73 131.662 162.606 131.749 162.501C131.835 162.396 131.945 162.312 132.07 162.257C132.194 162.202 132.33 162.178 132.466 162.185C132.602 162.192 132.734 162.231 132.852 162.299L137.501 164.874Z" fill="#37474F"/>
<path d="M144.175 161.611L88.6097 408.149C88.512 408.537 88.2656 408.871 87.9239 409.078L84.312 411.197C83.7378 411.51 83.0915 411.668 82.4375 411.654L83.9615 404.872L137.957 165.162L144.175 161.611Z" fill="#455A64"/>
<path d="M150.376 493.936V501.114C149.683 501.129 148.997 500.972 148.379 500.657L145.026 498.722C144.801 498.617 144.608 498.455 144.466 498.252C144.324 498.048 144.239 497.811 144.219 497.563V283.365L150.421 286.947L150.376 493.936Z" fill="#37474F"/>
<path d="M156.578 283.379V497.562C156.543 497.797 156.449 498.019 156.305 498.208C156.161 498.397 155.972 498.547 155.755 498.644L152.418 500.579C151.797 500.919 151.098 501.087 150.391 501.067V286.945L156.578 283.379Z" fill="#455A64"/>
<path d="M230.738 454.676C230.056 454.648 229.392 454.454 228.802 454.112L225.358 452.115C225.139 451.99 224.95 451.818 224.803 451.613C224.655 451.408 224.554 451.174 224.505 450.927L187.578 258.293L193.781 261.874L229.412 447.802L230.738 454.676Z" fill="#37474F"/>
<path d="M236.926 451.063C236.892 451.314 236.797 451.553 236.648 451.758C236.499 451.963 236.301 452.128 236.072 452.237L232.918 454.066L232.765 454.157C232.141 454.488 231.444 454.656 230.738 454.645L229.412 447.711L193.781 261.843L199.999 258.277L236.865 450.82L236.926 451.063Z" fill="#455A64"/>
<path d="M57.5234 350.36V352.936C57.5607 353.623 57.7595 354.291 58.1037 354.887C58.448 355.483 58.9279 355.989 59.5046 356.365L80.3072 368.374C80.9195 368.682 81.5954 368.843 82.2808 368.843C82.9663 368.843 83.6422 368.682 84.2544 368.374L259.834 267.013C260.407 266.634 260.882 266.126 261.224 265.531C261.565 264.936 261.762 264.269 261.8 263.584V261.008C261.765 260.322 261.568 259.655 261.227 259.059C260.885 258.463 260.408 257.956 259.834 257.579L239.032 245.57C238.419 245.254 237.74 245.09 237.051 245.09C236.361 245.09 235.682 245.254 235.069 245.57L59.5046 346.931C58.9271 347.306 58.4465 347.812 58.1021 348.408C57.7578 349.004 57.5594 349.673 57.5234 350.36Z" fill="#12AC75"/>
<path opacity="0.4" d="M59.4987 349.217L80.3013 361.226C80.9136 361.535 81.5895 361.695 82.2749 361.695C82.9604 361.695 83.6363 361.535 84.2485 361.226L259.829 259.865C260.069 259.786 260.278 259.632 260.426 259.427C260.574 259.222 260.654 258.975 260.654 258.722C260.654 258.469 260.574 258.222 260.426 258.017C260.278 257.812 260.069 257.659 259.829 257.579L239.026 245.57C238.413 245.254 237.734 245.09 237.045 245.09C236.356 245.09 235.676 245.254 235.064 245.57L59.4987 346.931C58.4015 347.556 58.4015 348.577 59.4987 349.217Z" fill="white"/>
<path opacity="0.1" d="M82.2732 361.698V368.845C81.5886 368.856 80.9124 368.693 80.3072 368.373L59.5046 356.333C58.9296 355.956 58.4509 355.449 58.1069 354.854C57.7629 354.258 57.563 353.591 57.5234 352.904V350.328C57.5472 349.726 57.6948 349.135 57.957 348.593C58.2192 348.05 58.5904 347.567 59.0474 347.174C58.3616 347.799 58.4988 348.698 59.4437 349.185L80.2463 361.195C80.8674 361.534 81.5656 361.707 82.2732 361.698Z" fill="black"/>
<path d="M72.7878 356.881L66.9966 353.544C66.0284 352.909 65.2114 352.07 64.6031 351.085C63.9948 350.1 63.6101 348.994 63.4761 347.844L51.5432 140.991C51.5341 139.862 51.8083 138.749 52.3408 137.753C52.8733 136.757 53.647 135.911 54.5912 135.291L227.55 35.4542C228.573 34.936 229.703 34.666 230.849 34.666C231.996 34.666 233.126 34.936 234.149 35.4542L239.94 38.7918C240.908 39.4248 241.725 40.264 242.331 41.2494C242.936 42.2348 243.317 43.3419 243.445 44.4915L255.393 251.344C255.4 252.473 255.124 253.585 254.592 254.58C254.06 255.576 253.288 256.422 252.345 257.044L79.3867 356.881C78.364 357.399 77.2337 357.669 76.0872 357.669C74.9408 357.669 73.8104 357.399 72.7878 356.881Z" fill="#E0E0E0"/>
<path d="M243.369 43.9126C243.019 42.2362 241.586 41.6418 239.925 42.5867L66.9968 142.439C66.0289 143.046 65.2441 143.905 64.7261 144.923L52.3359 137.776C52.8731 136.782 53.6612 135.947 54.6219 135.353L227.55 35.4544C228.571 34.9399 229.699 34.6719 230.842 34.6719C231.985 34.6719 233.113 34.9399 234.134 35.4544L239.956 38.8072C240.836 39.3882 241.591 40.1391 242.177 41.0158C242.763 41.8924 243.169 42.8773 243.369 43.9126Z" fill="#FAFAFA"/>
<path d="M63.9219 148.156L75.8701 354.993C75.8205 355.421 75.9005 355.854 76.0999 356.236C76.2993 356.618 76.6088 356.931 76.9883 357.134C77.3678 357.338 77.7997 357.423 78.228 357.378C78.6564 357.333 79.0614 357.161 79.3905 356.883L252.319 257.046C253.261 256.425 254.033 255.578 254.566 254.583C255.098 253.587 255.373 252.475 255.367 251.346L243.449 44.4937C243.496 44.0686 243.414 43.6393 243.215 43.2608C243.016 42.8822 242.709 42.5716 242.333 42.3687C241.956 42.1658 241.528 42.0798 241.102 42.1217C240.677 42.1636 240.274 42.3315 239.944 42.6039L67.0004 142.441C66.0513 143.061 65.2725 143.909 64.7348 144.907C64.1971 145.906 63.9177 147.022 63.9219 148.156Z" fill="#F0F0F0"/>
<path d="M193.701 70.8878V82.013C193.678 82.4955 193.539 82.9655 193.298 83.3842C193.057 83.8028 192.72 84.1582 192.315 84.4209L120.808 125.676C120.379 125.895 119.904 126.009 119.422 126.009C118.939 126.009 118.464 125.895 118.035 125.676L114.636 123.694C114.236 123.431 113.903 123.078 113.664 122.662C113.426 122.246 113.289 121.78 113.265 121.302V115.754L100.92 108.607L94.8242 112.173V99.478C94.8504 98.9981 94.9896 98.5312 95.2307 98.1153C95.4717 97.6995 95.8076 97.3466 96.2111 97.0854L167.717 55.785C168.147 55.5656 168.622 55.4512 169.104 55.4512C169.586 55.4512 170.061 55.5656 170.491 55.785L192.36 68.4799C192.757 68.7477 193.086 69.1052 193.319 69.5236C193.552 69.9419 193.683 70.4093 193.701 70.8878Z" fill="#263238"/>
<path d="M193.702 70.8871V82.0123C193.675 82.4923 193.536 82.9592 193.295 83.375C193.054 83.7909 192.718 84.1438 192.315 84.405L120.809 125.675C120.379 125.893 119.903 126.003 119.422 125.995V111.715C119.905 111.72 120.381 111.605 120.809 111.38L192.361 70.0794C193.031 69.6984 193.107 69.0888 192.604 68.6621C192.933 68.9353 193.201 69.2746 193.39 69.6579C193.579 70.0413 193.685 70.4601 193.702 70.8871Z" fill="#37474F"/>
<path d="M96.0415 98.6856L118.033 111.38C118.462 111.6 118.937 111.714 119.42 111.714C119.902 111.714 120.377 111.6 120.806 111.38L192.358 70.0801C192.522 70.0194 192.662 69.9103 192.762 69.7673C192.861 69.6242 192.915 69.4542 192.915 69.28C192.915 69.1058 192.861 68.9357 192.762 68.7927C192.662 68.6497 192.522 68.5405 192.358 68.4799L170.367 55.785C169.938 55.5656 169.462 55.4512 168.98 55.4512C168.498 55.4512 168.023 55.5656 167.593 55.785L96.0415 97.0854C95.871 97.1386 95.7219 97.2449 95.6161 97.3889C95.5102 97.5328 95.4531 97.7068 95.4531 97.8855C95.4531 98.0641 95.5102 98.2381 95.6161 98.382C95.7219 98.526 95.871 98.6323 96.0415 98.6856Z" fill="#455A64"/>
<path d="M84.9991 188.252C85.8526 203.004 97.0997 208.871 110.13 201.358C123.16 193.845 132.99 175.785 132.167 161.018C131.344 146.25 120.066 140.398 107.021 147.927C93.9755 155.455 84.1609 173.454 84.9991 188.252Z" fill="#12AC75"/>
<path opacity="0.1" d="M123.78 145.898L108.54 174.64L107.016 147.925C113.34 144.298 119.208 143.779 123.78 145.898Z" fill="black"/>
<path opacity="0.2" d="M128.519 179.442L108.539 174.641L123.779 145.898C128.58 148.139 131.811 153.397 132.252 161.032C132.425 167.373 131.148 173.669 128.519 179.442Z" fill="black"/>
<path d="M143.914 143.295L144.051 145.642C144.024 145.897 144.074 146.154 144.193 146.38C144.312 146.607 144.496 146.794 144.721 146.916C144.946 147.038 145.202 147.091 145.458 147.068C145.713 147.044 145.955 146.946 146.154 146.785L226.195 100.592C226.763 100.219 227.23 99.7104 227.552 99.1116C227.874 98.5128 228.041 97.8432 228.039 97.1633L227.917 94.8163C227.947 94.5588 227.899 94.2982 227.779 94.0683C227.66 93.8383 227.474 93.6496 227.245 93.5265C227.017 93.4034 226.757 93.3515 226.499 93.3777C226.242 93.4039 225.997 93.5069 225.799 93.6733L145.773 139.927C145.211 140.292 144.747 140.791 144.422 141.378C144.098 141.966 143.923 142.624 143.914 143.295Z" fill="#37474F"/>
<path d="M150.254 156.689L150.483 160.56C150.483 161.014 150.37 161.46 150.155 161.859C149.939 162.259 149.628 162.598 149.248 162.846L146.459 164.309C146.328 164.422 146.165 164.492 145.993 164.511C145.821 164.529 145.647 164.495 145.495 164.412C145.343 164.329 145.22 164.202 145.141 164.048C145.063 163.893 145.034 163.719 145.057 163.547L144.844 159.676C144.843 159.223 144.956 158.776 145.171 158.377C145.387 157.978 145.699 157.639 146.078 157.39L148.852 155.866C148.987 155.745 149.156 155.671 149.336 155.653C149.516 155.635 149.697 155.674 149.853 155.766C150.009 155.857 150.132 155.996 150.204 156.162C150.276 156.328 150.294 156.513 150.254 156.689Z" fill="#12AC75"/>
<path d="M227.159 117.797L158.838 157.193C158.639 157.354 158.397 157.452 158.142 157.476C157.886 157.499 157.63 157.446 157.405 157.324C157.18 157.201 156.996 157.015 156.877 156.788C156.758 156.561 156.708 156.304 156.735 156.05L156.613 153.703C156.61 153.023 156.776 152.352 157.099 151.753C157.421 151.154 157.888 150.646 158.457 150.274L226.717 110.878C226.917 110.717 227.159 110.619 227.414 110.595C227.669 110.572 227.926 110.625 228.151 110.747C228.376 110.869 228.56 111.056 228.679 111.283C228.798 111.509 228.847 111.766 228.82 112.021L228.958 114.383C228.968 115.058 228.809 115.723 228.494 116.32C228.18 116.916 227.721 117.424 227.159 117.797Z" fill="#455A64"/>
<path d="M151.031 173.972L151.245 177.843C151.245 178.297 151.133 178.743 150.917 179.142C150.701 179.541 150.39 179.881 150.01 180.129L147.237 181.729C147.105 181.842 146.943 181.912 146.771 181.931C146.598 181.949 146.425 181.915 146.273 181.832C146.12 181.749 145.997 181.622 145.919 181.468C145.841 181.313 145.811 181.139 145.834 180.967L145.621 177.096C145.621 176.643 145.733 176.196 145.949 175.797C146.164 175.398 146.476 175.059 146.856 174.81L149.629 173.286C149.756 173.18 149.91 173.112 150.074 173.092C150.239 173.072 150.405 173.1 150.553 173.173C150.702 173.245 150.826 173.36 150.911 173.501C150.996 173.643 151.038 173.807 151.031 173.972Z" fill="#12AC75"/>
<path opacity="0.1" d="M151.031 173.972L151.245 177.843C151.245 178.297 151.133 178.743 150.917 179.142C150.701 179.541 150.39 179.881 150.01 180.129L147.237 181.729C147.105 181.842 146.943 181.912 146.771 181.931C146.598 181.949 146.425 181.915 146.273 181.832C146.12 181.749 145.997 181.622 145.919 181.468C145.841 181.313 145.811 181.139 145.834 180.967L145.621 177.096C145.621 176.643 145.733 176.196 145.949 175.797C146.164 175.398 146.476 175.059 146.856 174.81L149.629 173.286C149.756 173.18 149.91 173.112 150.074 173.092C150.239 173.072 150.405 173.1 150.553 173.173C150.702 173.245 150.826 173.36 150.911 173.501C150.996 173.643 151.038 173.807 151.031 173.972Z" fill="black"/>
<path d="M227.93 135.155L159.639 174.565C159.44 174.726 159.197 174.825 158.942 174.848C158.687 174.872 158.431 174.819 158.206 174.696C157.981 174.574 157.797 174.388 157.678 174.161C157.558 173.934 157.509 173.677 157.536 173.422L157.414 171.075C157.412 170.395 157.579 169.726 157.901 169.127C158.223 168.528 158.69 168.019 159.258 167.646L227.549 128.236C227.748 128.074 227.99 127.976 228.245 127.953C228.501 127.929 228.757 127.982 228.982 128.104C229.207 128.227 229.391 128.413 229.51 128.64C229.629 128.867 229.679 129.124 229.652 129.379L229.789 131.741C229.788 132.42 229.618 133.088 229.293 133.684C228.968 134.28 228.5 134.786 227.93 135.155Z" fill="#455A64"/>
<path d="M151.793 191.482L152.021 195.338C152.022 195.791 151.909 196.238 151.694 196.637C151.478 197.036 151.167 197.375 150.787 197.624L147.983 199.239C147.849 199.344 147.688 199.408 147.519 199.422C147.35 199.436 147.18 199.401 147.031 199.32C146.882 199.239 146.76 199.116 146.68 198.966C146.6 198.816 146.565 198.646 146.581 198.477L146.367 194.621C146.363 194.167 146.473 193.719 146.689 193.319C146.905 192.919 147.219 192.581 147.602 192.335L150.391 190.72C150.522 190.607 150.684 190.537 150.857 190.518C151.029 190.5 151.203 190.535 151.355 190.617C151.507 190.7 151.63 190.827 151.708 190.981C151.787 191.136 151.816 191.31 151.793 191.482Z" fill="#12AC75"/>
<path opacity="0.2" d="M151.793 191.482L152.021 195.338C152.022 195.791 151.909 196.238 151.694 196.637C151.478 197.036 151.167 197.375 150.787 197.624L147.983 199.239C147.849 199.344 147.688 199.408 147.519 199.422C147.35 199.436 147.18 199.401 147.031 199.32C146.882 199.239 146.76 199.116 146.68 198.966C146.6 198.816 146.565 198.646 146.581 198.477L146.367 194.621C146.363 194.167 146.473 193.719 146.689 193.319C146.905 192.919 147.219 192.581 147.602 192.335L150.391 190.72C150.522 190.607 150.684 190.537 150.857 190.518C151.029 190.5 151.203 190.535 151.355 190.617C151.507 190.7 151.63 190.827 151.708 190.981C151.787 191.136 151.816 191.31 151.793 191.482Z" fill="black"/>
<path d="M228.683 152.664L160.362 192.06C160.163 192.221 159.92 192.319 159.665 192.343C159.41 192.366 159.153 192.313 158.928 192.191C158.703 192.069 158.519 191.882 158.4 191.655C158.281 191.429 158.232 191.172 158.259 190.917L158.137 188.585C158.133 187.905 158.3 187.235 158.622 186.636C158.944 186.037 159.411 185.528 159.981 185.156L228.256 145.745C228.455 145.584 228.698 145.486 228.953 145.462C229.208 145.439 229.464 145.492 229.689 145.614C229.915 145.737 230.098 145.923 230.218 146.15C230.337 146.377 230.386 146.634 230.359 146.888L230.496 149.235C230.502 149.912 230.339 150.58 230.023 151.179C229.706 151.777 229.246 152.288 228.683 152.664Z" fill="#455A64"/>
<path d="M95.0081 221.277L128.125 202.121C128.323 201.954 128.568 201.851 128.825 201.825C129.083 201.799 129.343 201.851 129.571 201.974C129.8 202.097 129.986 202.286 130.105 202.516C130.225 202.745 130.273 203.006 130.243 203.264L130.563 208.796C130.567 209.476 130.4 210.146 130.078 210.745C129.756 211.344 129.288 211.853 128.719 212.225L95.6025 231.366C95.4037 231.533 95.1595 231.636 94.9016 231.662C94.6437 231.688 94.3838 231.636 94.1557 231.513C93.9275 231.39 93.7415 231.201 93.6218 230.971C93.5021 230.741 93.4541 230.481 93.4841 230.223L93.1641 224.691C93.1656 224.014 93.3349 223.348 93.6566 222.752C93.9784 222.156 94.4427 221.65 95.0081 221.277Z" fill="#37474F"/>
<path d="M88.1175 266.067L136.764 237.98C136.963 237.819 137.205 237.72 137.46 237.697C137.716 237.673 137.972 237.726 138.197 237.849C138.422 237.971 138.606 238.157 138.725 238.384C138.844 238.611 138.894 238.868 138.867 239.123L139.004 241.47C139.012 242.151 138.847 242.822 138.524 243.422C138.202 244.022 137.732 244.53 137.16 244.899L88.5138 272.986C88.3146 273.147 88.0721 273.246 87.8169 273.269C87.5618 273.292 87.3054 273.24 87.0803 273.117C86.8552 272.995 86.6714 272.809 86.5522 272.582C86.433 272.355 86.3837 272.098 86.4106 271.843L86.2735 269.466C86.2707 268.79 86.4382 268.124 86.7605 267.53C87.0828 266.936 87.5495 266.433 88.1175 266.067Z" fill="#455A64"/>
<path d="M89.184 284.521L137.83 256.419C138.026 256.251 138.268 256.147 138.525 256.119C138.781 256.091 139.04 256.141 139.267 256.263C139.495 256.385 139.68 256.573 139.799 256.802C139.918 257.031 139.964 257.291 139.933 257.547L140.07 259.909C140.075 260.589 139.909 261.26 139.587 261.859C139.265 262.458 138.797 262.967 138.226 263.338L89.5802 291.41C89.382 291.57 89.1411 291.668 88.8876 291.691C88.6341 291.715 88.3792 291.664 88.1548 291.543C87.9304 291.423 87.7465 291.239 87.6259 291.015C87.5054 290.791 87.4536 290.536 87.4771 290.282L87.34 287.95C87.3349 287.27 87.5011 286.599 87.8234 286C88.1456 285.401 88.6136 284.892 89.184 284.521Z" fill="#455A64"/>
<path d="M90.2581 302.994L138.904 274.861C139.103 274.699 139.346 274.601 139.601 274.578C139.856 274.554 140.113 274.607 140.338 274.729C140.563 274.852 140.747 275.038 140.866 275.265C140.985 275.492 141.034 275.749 141.007 276.004L141.144 278.351C141.152 279.032 140.987 279.703 140.665 280.303C140.342 280.903 139.873 281.411 139.3 281.78L90.6543 309.852C90.4552 310.013 90.2127 310.111 89.9575 310.135C89.7024 310.158 89.446 310.105 89.2209 309.983C88.9958 309.861 88.812 309.674 88.6928 309.447C88.5736 309.221 88.5243 308.964 88.5512 308.709L88.4141 306.407C88.4143 305.73 88.5829 305.064 88.9048 304.468C89.2267 303.872 89.6918 303.365 90.2581 302.994Z" fill="#455A64"/>
<path d="M91.3377 321.433L139.969 293.285C140.166 293.12 140.409 293.018 140.665 292.991C140.921 292.965 141.18 293.015 141.407 293.136C141.635 293.257 141.821 293.443 141.942 293.671C142.063 293.898 142.113 294.157 142.087 294.413L142.224 296.775C142.222 297.456 142.051 298.125 141.727 298.724C141.402 299.322 140.934 299.831 140.365 300.204L91.7797 328.276C91.5809 328.443 91.3368 328.546 91.0788 328.572C90.8209 328.598 90.5611 328.546 90.3329 328.423C90.1047 328.3 89.9188 328.111 89.799 327.881C89.6793 327.651 89.6313 327.391 89.6613 327.133L89.5394 324.862C89.5307 324.186 89.6906 323.519 90.0046 322.92C90.3185 322.322 90.7767 321.811 91.3377 321.433Z" fill="#455A64"/>
<path d="M155.45 237.979L162.445 233.941C162.644 233.78 162.886 233.681 163.142 233.658C163.397 233.634 163.653 233.687 163.878 233.81C164.103 233.932 164.287 234.118 164.406 234.345C164.526 234.572 164.575 234.829 164.548 235.084L166.712 271.904C166.717 272.584 166.551 273.255 166.229 273.854C165.906 274.453 165.438 274.962 164.868 275.333L157.873 279.356C157.675 279.521 157.432 279.623 157.176 279.65C156.92 279.676 156.662 279.626 156.434 279.505C156.207 279.384 156.021 279.198 155.9 278.97C155.779 278.743 155.728 278.484 155.754 278.228L153.606 241.408C153.6 240.728 153.767 240.057 154.089 239.458C154.411 238.859 154.879 238.35 155.45 237.979Z" fill="#12AC75"/>
<path d="M158.273 286.228L165.268 282.189C166.365 281.565 167.295 281.824 167.356 282.784C167.301 283.38 167.099 283.953 166.77 284.453C166.44 284.953 165.992 285.363 165.466 285.649L158.471 289.688C157.389 290.328 156.444 290.069 156.398 289.108C156.448 288.511 156.646 287.935 156.973 287.432C157.3 286.929 157.747 286.516 158.273 286.228Z" fill="#37474F"/>
<path d="M180.352 241.683L187.347 237.644C187.546 237.478 187.79 237.375 188.048 237.348C188.306 237.322 188.566 237.374 188.794 237.497C189.022 237.62 189.208 237.809 189.328 238.039C189.447 238.269 189.495 238.529 189.465 238.787L190.593 258.081C190.597 258.761 190.43 259.431 190.108 260.03C189.786 260.629 189.319 261.138 188.749 261.51L181.693 265.548C181.494 265.715 181.25 265.818 180.992 265.844C180.734 265.87 180.474 265.818 180.246 265.695C180.018 265.572 179.832 265.383 179.712 265.154C179.593 264.924 179.545 264.663 179.575 264.405L178.508 245.081C178.509 244.406 178.678 243.742 179 243.149C179.322 242.556 179.787 242.052 180.352 241.683Z" fill="#12AC75"/>
<path opacity="0.1" d="M180.352 241.683L187.347 237.644C187.546 237.478 187.79 237.375 188.048 237.348C188.306 237.322 188.566 237.374 188.794 237.497C189.022 237.62 189.208 237.809 189.328 238.039C189.447 238.269 189.495 238.529 189.465 238.787L190.593 258.081C190.597 258.761 190.43 259.431 190.108 260.03C189.786 260.629 189.319 261.138 188.749 261.51L181.693 265.548C181.494 265.715 181.25 265.818 180.992 265.844C180.734 265.87 180.474 265.818 180.246 265.695C180.018 265.572 179.832 265.383 179.712 265.154C179.593 264.924 179.545 264.663 179.575 264.405L178.508 245.081C178.509 244.406 178.678 243.742 179 243.149C179.322 242.556 179.787 242.052 180.352 241.683Z" fill="black"/>
<path d="M182.148 272.511L189.143 268.473C190.24 267.848 191.17 268.107 191.216 269.067C191.165 269.662 190.967 270.236 190.64 270.736C190.312 271.236 189.866 271.647 189.341 271.932L182.346 275.971C181.249 276.596 180.319 276.336 180.273 275.376C180.325 274.781 180.522 274.208 180.85 273.708C181.177 273.208 181.623 272.796 182.148 272.511Z" fill="#37474F"/>
<path d="M202.692 199.772L209.687 195.734C209.886 195.573 210.129 195.474 210.384 195.451C210.639 195.427 210.895 195.48 211.12 195.603C211.346 195.725 211.529 195.911 211.649 196.138C211.768 196.365 211.817 196.622 211.79 196.877L214.472 244.273C214.475 244.953 214.307 245.623 213.985 246.221C213.663 246.82 213.197 247.329 212.628 247.702L205.633 251.741C205.434 251.907 205.19 252.01 204.932 252.036C204.674 252.062 204.414 252.011 204.186 251.888C203.958 251.764 203.772 251.576 203.652 251.346C203.533 251.116 203.485 250.855 203.515 250.598L200.848 203.201C200.843 202.521 201.009 201.85 201.331 201.251C201.653 200.652 202.121 200.143 202.692 199.772Z" fill="#12AC75"/>
<path opacity="0.2" d="M202.692 199.772L209.687 195.734C209.886 195.573 210.129 195.474 210.384 195.451C210.639 195.427 210.895 195.48 211.12 195.603C211.346 195.725 211.529 195.911 211.649 196.138C211.768 196.365 211.817 196.622 211.79 196.877L214.472 244.273C214.475 244.953 214.307 245.623 213.985 246.221C213.663 246.82 213.197 247.329 212.628 247.702L205.633 251.741C205.434 251.907 205.19 252.01 204.932 252.036C204.674 252.062 204.414 252.011 204.186 251.888C203.958 251.764 203.772 251.576 203.652 251.346C203.533 251.116 203.485 250.855 203.515 250.598L200.848 203.201C200.843 202.521 201.009 201.85 201.331 201.251C201.653 200.652 202.121 200.143 202.692 199.772Z" fill="black"/>
<path d="M206.077 258.661L213.072 254.623C214.154 253.983 215.099 254.242 215.145 255.202C215.095 255.8 214.898 256.375 214.571 256.878C214.243 257.381 213.797 257.795 213.271 258.082L206.275 262.121C205.178 262.746 204.248 262.487 204.188 261.526C204.243 260.93 204.444 260.357 204.774 259.857C205.103 259.358 205.551 258.947 206.077 258.661Z" fill="#37474F"/>
<path d="M227.797 206.89L234.792 202.851C234.991 202.69 235.234 202.591 235.489 202.568C235.744 202.545 236 202.597 236.225 202.72C236.451 202.842 236.634 203.028 236.753 203.255C236.873 203.482 236.922 203.739 236.895 203.994L238.419 230.466C238.421 231.145 238.252 231.814 237.927 232.411C237.602 233.008 237.132 233.513 236.56 233.88L229.565 237.918C229.366 238.078 229.126 238.176 228.872 238.2C228.618 238.223 228.364 238.172 228.139 238.051C227.915 237.931 227.731 237.747 227.61 237.523C227.49 237.299 227.438 237.044 227.462 236.79L225.938 210.319C225.937 209.637 226.107 208.967 226.431 208.368C226.756 207.769 227.225 207.261 227.797 206.89Z" fill="#12AC75"/>
<path opacity="0.3" d="M227.797 206.89L234.792 202.851C234.991 202.69 235.234 202.591 235.489 202.568C235.744 202.545 236 202.597 236.225 202.72C236.451 202.842 236.634 203.028 236.753 203.255C236.873 203.482 236.922 203.739 236.895 203.994L238.419 230.466C238.421 231.145 238.252 231.814 237.927 232.411C237.602 233.008 237.132 233.513 236.56 233.88L229.565 237.918C229.366 238.078 229.126 238.176 228.872 238.2C228.618 238.223 228.364 238.172 228.139 238.051C227.915 237.931 227.731 237.747 227.61 237.523C227.49 237.299 227.438 237.044 227.462 236.79L225.938 210.319C225.937 209.637 226.107 208.967 226.431 208.368C226.756 207.769 227.225 207.261 227.797 206.89Z" fill="black"/>
<path d="M229.913 244.839L236.908 240.801C237.99 240.176 238.92 240.435 238.981 241.395C238.927 241.99 238.728 242.562 238.401 243.062C238.075 243.561 237.63 243.973 237.106 244.26L230.111 248.299C229.014 248.939 228.084 248.665 228.023 247.72C228.08 247.122 228.282 246.547 228.611 246.045C228.941 245.543 229.388 245.129 229.913 244.839Z" fill="#37474F"/>
<path d="M401.254 276.001L413.141 269.006C413.949 271.124 414.665 272.984 415.366 274.508C416.067 276.031 419.085 277.906 420.548 278.577C424.434 280.36 426.187 282.478 429.265 284.962C431.673 286.913 433.563 287.233 433.365 288.01C433.06 288.844 432.45 289.532 431.658 289.933C430.866 290.335 429.95 290.421 429.097 290.174C427.198 289.69 425.361 288.984 423.626 288.071C425.303 291.164 427.464 293.968 430.027 296.377C435.879 301.909 436.595 305.689 426.415 307.045C420.045 307.929 414.436 304.652 407.792 291.195C405.254 286.292 403.069 281.215 401.254 276.001Z" fill="#B16668"/>
<path d="M384.245 157.938C382.894 161.731 381.264 165.419 379.368 168.971C377.433 172.278 379.063 225.039 380.039 229.459C381.014 233.878 400.323 277.084 400.323 277.084C403.035 277.66 405.85 277.529 408.498 276.704C411.145 275.88 413.536 274.389 415.441 272.375L401.146 227.158L400.186 188.692C400.186 188.692 400.75 160.879 384.245 157.938Z" fill="#12AC75"/>
<path opacity="0.1" d="M384.245 157.938C382.894 161.731 381.264 165.419 379.368 168.971C377.433 172.278 379.063 225.039 380.039 229.459C381.014 233.878 400.323 277.084 400.323 277.084C403.035 277.66 405.85 277.529 408.498 276.704C411.145 275.88 413.536 274.389 415.441 272.375L401.146 227.158L400.186 188.692C400.186 188.692 400.75 160.879 384.245 157.938Z" fill="black"/>
<path d="M325.752 263.473C325.752 277.189 324.807 356.437 324.807 356.437C324.472 360.354 320.708 367.334 320.403 381.461C319.976 401.944 323.131 450.209 323.131 450.209C325.596 451.422 328.297 452.079 331.043 452.134C333.79 452.189 336.515 451.641 339.026 450.529C339.026 450.529 350.243 382.253 352.742 361.984C354.967 344.275 362.679 297.031 362.679 297.031L373.712 356.803C372.066 364.242 371.471 371.875 371.945 379.48C372.615 388.868 381.302 435.868 381.302 435.868C383.79 437.273 386.557 438.114 389.406 438.333C392.256 438.551 395.118 438.142 397.792 437.133C397.792 437.133 398.645 363.371 398.798 354.837C398.996 345.022 394.713 260.623 394.713 260.623L325.752 263.473Z" fill="#37474F"/>
<path d="M362.746 296.972C370.102 294.66 376.863 290.77 382.558 285.572C382.558 285.572 378.718 292.75 367.318 299.441L372.835 352.659L362.746 296.972Z" fill="#263238"/>
<path d="M350.502 158.897C345.656 160.07 335.857 161.67 333.662 171.348C331.026 182.961 330.157 208.274 330.157 208.274L329.258 264.662C339.088 271.81 375.206 275.711 395.887 260.608C395.887 260.608 393.357 192.989 393.357 182.473C393.357 171.957 387.505 159.293 371.366 158.363L350.502 158.897Z" fill="#F5F5F5"/>
<path d="M371.137 157.19C371.137 157.19 378.391 162.951 380.357 171.47C382.323 179.989 382.643 275.102 382.643 275.102C382.643 275.102 392.732 273.243 397.456 269.524C397.456 269.524 396.847 194.467 395.932 182.062C394.408 163.241 394.637 157.815 371.198 155.834L371.137 157.19Z" fill="#12AC75"/>
<path d="M346.283 155.805C346.283 155.805 359.74 164.08 359.877 196.953C360.014 225.421 360.959 275.012 360.959 275.012C360.959 275.012 338.693 278.289 324.581 269.861C324.581 269.861 322.905 200.808 323.164 190.125C323.469 177.933 326.334 162.053 330.266 160.483C335.481 158.527 340.835 156.963 346.283 155.805Z" fill="#12AC75"/>
<path d="M315.392 178.558C309.082 189.226 295.427 210.867 295.427 210.867C294.223 209.922 265.511 191.939 259.034 183.907C257.718 180.872 256.084 177.986 254.157 175.297C251.689 172.066 249.128 168.911 246.537 165.802C246.348 165.56 246.122 165.349 245.867 165.177C244.891 164.598 243.596 165.452 243.276 166.534C243.069 167.649 243.202 168.801 243.657 169.841C244.114 171.243 245.547 173.194 243.55 173.529C241.829 173.611 240.118 173.226 238.597 172.416C236.068 171.319 233.568 170.115 231.13 168.82C229.63 167.835 227.916 167.224 226.131 167.037C224.826 167.091 223.568 167.544 222.527 168.334C221.487 169.124 220.713 170.213 220.309 171.456C219.94 172.707 219.83 174.02 219.988 175.315C220.145 176.61 220.566 177.859 221.224 178.985C222.563 181.228 224.347 183.173 226.466 184.7C230.932 188.159 236.845 189.744 242.255 191.177C244.983 191.913 247.562 193.12 249.875 194.743C254.188 197.791 276.652 216.902 287.411 224.766C297.149 231.898 299.893 229.109 305.577 223.348C311.262 217.588 332.689 190.506 332.689 190.506L315.392 178.558Z" fill="#B16668"/>
<path d="M334.211 159.082C319.611 163.349 320.586 168.516 310.863 184.045C301.14 199.575 294.633 206.6 294.633 206.6L263.604 187.047C259.154 190.273 255.704 194.689 253.652 199.788C253.652 199.788 284.849 223.989 289.192 226.702C295.379 230.573 298.565 232.066 303.64 227.769C308.714 223.471 329.258 200.885 329.258 200.885C338.661 191.421 340.612 166.077 334.211 159.082Z" fill="#12AC75"/>
<path opacity="0.1" d="M334.211 159.082C319.611 163.349 320.586 168.516 310.863 184.045C301.14 199.575 294.633 206.6 294.633 206.6L263.604 187.047C259.154 190.273 255.704 194.689 253.652 199.788C253.652 199.788 284.849 223.989 289.192 226.702C295.379 230.573 298.565 232.066 303.64 227.769C308.714 223.471 329.258 200.885 329.258 200.885C338.661 191.421 340.612 166.077 334.211 159.082Z" fill="black"/>
<path opacity="0.1" d="M344.742 173.801L350.899 181.436L347.821 190.108L355.913 210.864L346.159 190.108L349.573 181.924L344.742 173.801Z" fill="black"/>
<path opacity="0.1" d="M388.191 171.348L386.865 179.242L392.199 186.176L384.777 209.554L390.523 186.435L385.6 179.943L388.191 171.348Z" fill="black"/>
<path d="M387.482 125.84C395.142 118.18 395.142 105.761 387.482 98.1016C379.823 90.4419 367.404 90.4419 359.744 98.1016C352.084 105.761 352.084 118.18 359.744 125.84C367.404 133.5 379.823 133.5 387.482 125.84Z" fill="#263238"/>
<path d="M339.699 125.934C339.699 125.934 342.869 140.869 344.149 143.322C344.995 144.837 346.393 145.967 348.051 146.477L347.807 135.962L339.699 125.934Z" fill="#263238"/>
<path d="M343.676 104.536C342.565 104.401 341.437 104.523 340.38 104.893C339.323 105.263 338.365 105.871 337.58 106.669C334.959 109.351 336.422 117.718 339.683 125.932L345.657 126.618L343.676 104.536Z" fill="#263238"/>
<path d="M347.468 126.617C346.264 127.334 344.557 125.093 343.079 123.478C341.601 121.863 336.77 119.82 334.347 124.895C331.923 129.97 336.48 136.92 340.29 138.108C346.843 140.166 347.91 135.96 347.91 135.96L348.383 160.344C352.955 166.15 363.12 172.993 368.591 172.017C372.98 171.24 373.925 163.834 369.749 158.987V151.794C372.671 152.26 375.634 152.413 378.588 152.251C383.404 151.504 386.437 147.679 387.9 142.482C390.247 134.085 391.146 127.242 389.15 110.829C386.97 92.7542 365.939 92.5408 354.585 99.7036C343.231 106.866 347.468 126.617 347.468 126.617Z" fill="#B16668"/>
<path d="M347.475 128.646C346.88 128.646 344.579 124.836 343.086 123.48C341.013 121.59 343.68 104.537 343.68 104.537C342.983 103.043 342.746 101.375 343.002 99.7463C343.257 98.1175 343.992 96.6018 345.113 95.3928C347.947 92.3448 351.91 88.4586 364.787 89.9826C373.931 91.0647 383.944 93.9298 392.021 89.9826C392.769 92.6137 392.713 95.4082 391.86 98.007C391.007 100.606 389.397 102.891 387.236 104.567C387.236 104.567 384.31 106.457 376.568 107.387C368.826 108.316 356.924 107.204 355.232 106.99C353.007 106.686 352.535 108.834 351.331 114.732C350.386 119.823 349.502 128.601 347.475 128.646Z" fill="#263238"/>
<path d="M343.692 105.862L336.438 101.961C336.669 101.472 336.997 101.036 337.402 100.679C337.806 100.321 338.28 100.049 338.793 99.8795C339.305 99.7099 339.847 99.6462 340.386 99.6922C340.924 99.7382 341.447 99.893 341.924 100.147C342.9 100.686 343.63 101.583 343.96 102.648C344.289 103.714 344.193 104.866 343.692 105.862Z" fill="#263238"/>
<path d="M369.662 151.796C369.662 151.796 358.887 149.632 355.123 147.62C352.916 146.467 351.105 144.678 349.926 142.484C350.489 144.695 351.495 146.769 352.882 148.58C355.626 152.101 369.646 154.676 369.646 154.676L369.662 151.796Z" fill="#9A4A4D"/>
<path d="M367.071 123.923C367.047 124.345 366.9 124.751 366.648 125.09C366.397 125.429 366.051 125.688 365.654 125.833C365.257 125.978 364.826 126.004 364.415 125.907C364.003 125.811 363.629 125.596 363.339 125.289C363.048 124.982 362.854 124.596 362.78 124.18C362.706 123.764 362.755 123.335 362.922 122.947C363.088 122.559 363.365 122.227 363.718 121.995C364.071 121.762 364.484 121.637 364.907 121.637C365.2 121.641 365.49 121.703 365.759 121.821C366.028 121.939 366.27 122.109 366.472 122.322C366.674 122.536 366.831 122.787 366.933 123.062C367.036 123.337 367.083 123.629 367.071 123.923Z" fill="#263238"/>
<path d="M364.783 115.783L360.211 118.328C359.879 117.696 359.805 116.961 360.004 116.276C360.203 115.592 360.659 115.011 361.277 114.655C361.581 114.497 361.913 114.401 362.254 114.372C362.596 114.344 362.939 114.383 363.265 114.488C363.591 114.593 363.893 114.761 364.153 114.983C364.414 115.206 364.628 115.477 364.783 115.783Z" fill="#263238"/>
<path d="M368.685 138.826L373.607 140.685C373.498 141.015 373.323 141.319 373.095 141.581C372.866 141.842 372.587 142.055 372.274 142.207C371.962 142.359 371.622 142.447 371.276 142.465C370.929 142.484 370.582 142.433 370.255 142.316C369.592 142.05 369.059 141.538 368.766 140.888C368.473 140.237 368.444 139.498 368.685 138.826Z" fill="#9A4A4D"/>
<path d="M386.304 117.582L382.098 114.336C382.296 114.052 382.549 113.812 382.843 113.629C383.137 113.446 383.464 113.325 383.806 113.272C384.148 113.219 384.497 113.236 384.832 113.322C385.167 113.408 385.481 113.561 385.755 113.772C386.319 114.215 386.69 114.857 386.792 115.567C386.894 116.276 386.72 116.998 386.304 117.582Z" fill="#263238"/>
<path d="M385.007 123.311C384.992 123.736 384.852 124.147 384.604 124.493C384.357 124.839 384.013 125.104 383.616 125.256C383.218 125.408 382.785 125.439 382.37 125.346C381.955 125.253 381.576 125.039 381.282 124.732C380.988 124.425 380.79 124.039 380.714 123.62C380.639 123.201 380.688 122.77 380.856 122.379C381.024 121.988 381.304 121.656 381.66 121.423C382.016 121.19 382.432 121.068 382.858 121.07C383.146 121.076 383.43 121.139 383.694 121.255C383.958 121.371 384.197 121.537 384.396 121.745C384.596 121.953 384.752 122.199 384.857 122.467C384.962 122.736 385.013 123.022 385.007 123.311Z" fill="#263238"/>
<path d="M374.02 121.27L374.721 134.239L381.502 131.938L374.02 121.27Z" fill="#9A4A4D"/>
<path d="M376.368 170.525C375.042 173.664 372.603 174.945 368.169 175.448C365.953 175.601 363.73 175.301 361.634 174.568C359.538 173.834 357.613 172.682 355.977 171.18L361.478 165.709L368.458 170.967L369.052 165.1L376.368 170.525Z" fill="#12AC75"/>
<path opacity="0.1" d="M376.368 170.525C375.042 173.664 372.603 174.945 368.169 175.448C365.953 175.601 363.73 175.301 361.634 174.568C359.538 173.834 357.613 172.682 355.977 171.18L361.478 165.709L368.458 170.967L369.052 165.1L376.368 170.525Z" fill="black"/>
<path d="M372.889 168.881C373.534 170.776 373.783 172.783 373.621 174.779C373.413 176.56 372.734 178.254 371.655 179.686C370.956 180.132 370.163 180.411 369.338 180.501C368.513 180.591 367.679 180.489 366.9 180.204C365.474 178.989 364.328 177.48 363.539 175.781C362.75 174.082 362.337 172.233 362.328 170.359L368.424 171.045L372.889 168.881Z" fill="#12AC75"/>
<path d="M371.655 179.549C371.655 179.549 378.817 219.173 379.107 222.221C379.396 225.269 374.992 236.76 372.264 236.851C369.536 236.943 364.172 226.686 364.08 223.791C363.989 220.895 366.9 180.006 366.9 180.006L371.655 179.549Z" fill="#12AC75"/>
<path opacity="0.1" d="M366.904 180.126C367.673 180.464 368.517 180.594 369.351 180.503C370.186 180.412 370.982 180.103 371.659 179.607L371.766 180.232C371.083 180.782 370.278 181.159 369.418 181.331C368.559 181.504 367.67 181.467 366.828 181.223L366.904 180.126Z" fill="black"/>
<path d="M368.409 170.967L348.216 155.59L348.124 151.018C348.124 151.018 343.43 152.785 342.379 161.076C345.635 168.247 351.17 174.14 358.122 177.84L362.359 170.22L368.409 170.967Z" fill="#E0E0E0"/>
<path d="M369.66 153.123C372.271 153.554 374.608 154.993 376.167 157.131C378.179 160.453 377.691 173.194 377.691 173.194L372.891 168.881L368.41 171.045C368.837 166.793 369.675 159.067 369.675 159.067L369.66 153.123Z" fill="#E0E0E0"/>
<path d="M513.268 307.23L467.578 331.066L490.286 393.138L532.912 369.257L513.268 307.23Z" fill="#12AC75"/>
<path d="M511.165 313.293L472.836 333.303L492.938 386.658L528.706 366.633L511.165 313.293Z" fill="#F5F5F5"/>
<path opacity="0.15" d="M503.084 319.055L502.338 317.165C501.926 316.114 498.741 316.738 495.205 318.552L488.469 322.042C484.934 323.856 482.373 326.187 482.815 327.239L483.562 329.129L503.084 319.055Z" fill="black"/>
<path d="M502.339 311.464C502.08 310.809 500.693 310.915 499.291 311.708L496.64 313.125C496.64 313.125 495.009 309.026 488.943 311.86C482.878 314.695 484.25 319.48 484.25 319.48L481.445 321.004C479.921 321.858 478.794 323.092 478.976 323.747L479.312 324.967L502.858 312.683L502.339 311.464Z" fill="#37474F"/>
<path d="M499.793 314.223C497.613 315.289 496.745 315.747 497.385 317.423C498.101 319.282 498.772 320.608 498.772 320.608L488.363 326.049C488.363 326.049 487.494 323.702 487.113 322.788C486.732 321.873 485.97 321.462 484.309 322.315L483.699 321.675L500.113 313.293L499.793 314.223Z" fill="#263238"/>
<path d="M503.529 319.161L502.782 317.256C502.371 316.205 499.186 316.83 495.665 318.659L488.914 322.133C485.394 323.962 482.818 326.279 483.275 327.33L484.022 329.235L503.529 319.161Z" fill="#37474F"/>
<path d="M630.52 428.768C630.52 428.768 570.002 410.48 559.487 407.63C548.971 404.78 528.778 399.903 522.911 402.54C517.043 405.176 514.026 408.255 513.477 416.759C513.37 418.359 513.477 426.147 513.477 426.147C513.477 426.147 542.723 435.199 566.695 435.199C590.668 435.199 630.52 428.768 630.52 428.768Z" fill="#263238"/>
<path d="M579.438 325.897L578.996 347.949L600.256 354.975L603.167 324.998L579.438 325.897Z" fill="#FFA8A7"/>
<path d="M562.692 304.73C562.692 304.73 558.013 312.914 558.775 313.631C559.537 314.347 563.484 314.896 563.484 314.896L562.692 304.73Z" fill="#F28F8F"/>
<path d="M574.013 277.802C569.441 280.972 564.519 286.839 562.629 303.908C560.571 322.623 565.052 328.642 567.201 330.197C570.249 332.513 582.639 332.132 587.013 330.105C592.53 327.56 603.335 320.657 607.907 310.293C613.302 298.101 612.753 282.968 604.066 278.137C591.798 271.355 577.93 275.104 574.013 277.802Z" fill="#FFA8A7"/>
<path d="M566.225 284.582C568.693 287.429 571.644 289.817 574.943 291.638C577.061 294.991 573.662 304.226 578.311 306.466C578.311 306.466 580.444 299.471 586.357 300.63C592.27 301.788 592.789 309.453 588.811 313.934C584.833 318.415 581.389 316.479 581.389 316.479C581.156 318.813 581.525 321.168 582.462 323.318C583.398 325.469 584.871 327.343 586.738 328.763C589.043 330.327 591.692 331.312 594.46 331.633C597.227 331.954 600.031 331.602 602.634 330.607C606.657 329.083 613.393 323.459 617.157 315.991C625.097 300.188 626.941 287.218 616.837 282.463C616.045 274.981 612.921 271.994 606.306 270.165C592.103 266.233 580.597 274.981 568.618 272.512C562.37 271.171 562.69 280.299 566.225 284.582Z" fill="#263238"/>
<path d="M606.37 276.992L613.731 273.837C613.54 273.331 613.248 272.869 612.874 272.478C612.499 272.087 612.049 271.777 611.551 271.565C611.053 271.352 610.517 271.244 609.976 271.244C609.435 271.245 608.899 271.355 608.402 271.568C607.904 271.781 607.455 272.093 607.082 272.485C606.708 272.876 606.417 273.339 606.227 273.846C606.038 274.353 605.952 274.893 605.977 275.434C606.001 275.974 606.135 276.504 606.37 276.992Z" fill="#263238"/>
<path d="M626.591 348.318C624.595 342.222 616.365 333.672 608.654 335.104C594.496 337.741 579.012 342.328 574.897 343.532C574.897 343.532 576.741 374.744 560.724 384.192L560.16 439.056C560.16 439.056 561.318 442.973 567.43 446.859C574.044 451.066 586.845 452.955 602.939 448.551C624.564 442.684 628.496 430.263 628.496 430.263C628.496 430.263 628.329 393.474 628.496 376.649C628.649 361.424 627.963 352.493 626.591 348.318Z" fill="#F0F0F0"/>
<path d="M560.647 391.52C560.647 391.52 568.679 383.199 571.635 373.125C571.635 373.125 572.077 388.136 560.602 396.092L560.647 391.52Z" fill="#E0E0E0"/>
<path d="M574.878 343.529C566.13 346.151 560.812 346.577 551.149 361.482C541.487 376.387 519.633 404.154 517.545 407.735C514.634 412.658 514.086 420.141 516.6 424.667C518.947 428.904 524.586 426.404 534.172 418.007C543.438 409.869 562.991 387.527 562.991 387.527C569.061 373.513 573.065 358.693 574.878 343.529Z" fill="#FFA8A7"/>
<path d="M574.88 343.529C570.546 344.442 566.314 345.785 562.247 347.537C558.007 348.913 554.262 351.498 551.472 354.975C543.623 365.46 533.504 383.184 533.504 383.184C533.504 383.184 535.302 396.9 552.203 401.777L560.509 391.657C564.195 387.718 567.22 383.21 569.47 378.307C573.357 369.94 577.639 356.666 574.88 343.529Z" fill="#F0F0F0"/>
<path d="M519.562 426.757C511.47 425.781 494.02 401.321 488.655 392.954C484.412 386.164 478.846 380.297 472.288 375.703C463.738 369.378 464.972 359.655 468.706 350.755C470.002 347.707 474.391 349.673 474.391 349.673L475.915 353.909L478.597 361.225C480.41 362.901 481.432 363.45 481.553 362.947C481.782 362.002 480.228 358.07 480.273 353.97C480.273 349.033 483.763 352.279 484.845 353.97C486.26 356.589 487.477 359.309 488.488 362.109C490.21 366.528 489.509 370.993 491.536 374.011C493.563 377.028 521.802 404.003 521.802 404.003L519.562 426.757Z" fill="#FFA8A7"/>
<path d="M642.529 360.095C641.514 359.599 640.404 359.325 639.274 359.291C638.144 359.257 637.02 359.463 635.976 359.897L580.975 385.287C579.983 385.784 579.145 386.543 578.552 387.481L578.293 387.908C578.171 388.152 578.049 388.395 577.942 388.655C577.67 389.301 577.525 389.995 577.516 390.697V431.418C577.551 432.526 577.845 433.61 578.374 434.584C578.903 435.558 579.653 436.394 580.564 437.026C581.525 437.487 582.568 437.753 583.633 437.808C584.698 437.863 585.763 437.706 586.766 437.346C586.888 437.314 587.006 437.268 587.117 437.209L589.845 435.944L642.103 411.804C643.099 411.283 643.942 410.512 644.548 409.566C645.155 408.62 645.505 407.532 645.562 406.409V365.688C645.528 364.584 645.235 363.503 644.709 362.532C644.182 361.561 643.436 360.726 642.529 360.095Z" fill="#12AC75"/>
<path opacity="0.4" d="M645.626 365.689C645.687 365.261 645.623 364.824 645.443 364.431C645.262 364.038 644.972 363.705 644.607 363.472C644.243 363.239 643.819 363.116 643.386 363.117C642.953 363.119 642.53 363.244 642.167 363.48L587.181 388.87C586.19 389.375 585.353 390.139 584.758 391.079L578.57 387.498C579.157 386.556 579.989 385.792 580.978 385.288L635.964 359.883C637.008 359.449 638.132 359.243 639.262 359.277C640.392 359.311 641.502 359.585 642.517 360.081C643.44 360.706 644.202 361.539 644.742 362.514C645.283 363.488 645.585 364.576 645.626 365.689Z" fill="white"/>
<path opacity="0.1" d="M586.833 437.365C585.829 437.725 584.764 437.881 583.699 437.827C582.635 437.772 581.591 437.506 580.63 437.045C579.72 436.413 578.97 435.577 578.44 434.603C577.911 433.629 577.617 432.545 577.582 431.437V390.716C577.592 390.014 577.736 389.32 578.009 388.673C578.115 388.414 578.237 388.171 578.359 387.927L578.618 387.5L584.806 391.081C584.167 392.03 583.808 393.139 583.769 394.282V435.018C583.713 435.408 583.761 435.805 583.909 436.169C584.057 436.533 584.3 436.852 584.612 437.091C584.924 437.33 585.295 437.482 585.685 437.53C586.076 437.578 586.472 437.521 586.833 437.365Z" fill="black"/>
</svg>
