<svg width="32" height="32" viewBox="0 0 32 32" fill="none" xmlns="http://www.w3.org/2000/svg">
<rect width="32" height="32" rx="6" fill="#12AC75"/>
<path d="M6 25.5216V6.36354C6.00065 6.20283 6.06477 6.04889 6.17841 5.93525C6.29205 5.82161 6.44599 5.75748 6.6067 5.75684H13.1416C19.1043 5.75684 23.1344 9.14314 23.1344 16.2682C23.1344 23.3932 18.8857 27.1283 13.1416 27.1283H6.6067C6.44579 27.1283 6.29147 27.0644 6.17769 26.9506C6.06392 26.8369 6 26.6825 6 26.5216ZM10.6319 21.7985C10.6319 21.8782 10.6476 21.9571 10.6781 22.0307C10.7086 22.1043 10.7533 22.1712 10.8096 22.2275C10.866 22.2839 10.9329 22.3285 11.0065 22.359C11.0801 22.3895 11.159 22.4052 11.2386 22.4052H13.783C17.0956 22.4052 18.3748 20.7036 18.306 16.0643C18.2801 14.516 17.6501 13.0807 16.4396 11.8872C15.229 10.6936 13.6841 10.4867 12.6357 10.4849H11.2485C11.1688 10.4849 11.0899 10.5006 11.0163 10.531C10.9427 10.5615 10.8758 10.6062 10.8195 10.6626C10.7631 10.7189 10.7184 10.7858 10.6879 10.8594C10.6575 10.933 10.6418 11.0119 10.6418 11.0916L10.6319 21.7985Z" fill="white"/>
</svg> 